<svg aria-hidden="true" xmlns="http://www.w3.org/2000/svg" viewBox="0 0 64 64"><path d="M63 22.4L41.6 1c-1.3-1.3-3.7-1.3-5.1 0L18.7 18.9c-4.5 4.5-5.1 11.7-1.6 16.8L2.4 50.6C.8 52 0 53.8 0 56s.8 4.3 2.4 5.6C4 63.2 5.9 64 8 64s4-.8 5.6-2.4l14.7-14.7c2.1 1.6 4.8 2.4 7.5 2.4 3.5 0 6.9-1.3 9.6-4l17.9-17.9c1-1.3 1-3.4-.3-5zM9.6 57.8c-1.1 1.1-2.7 1.1-3.5 0-.5-.5-.8-1.1-.8-1.9 0-.5.3-1.3.8-1.9l14.4-14.7 3.5 3.5-14.4 15zm20.3-16.2l-7.5-7.5c-3.2-3.2-3.2-8.3 0-11.5l2.1-2.1 18.9 18.9-2.1 2.1c-3.1 3.3-8.2 3.3-11.4.1zm17.6-6.2l-19-18.9L39 5.8l18.9 18.9-10.4 10.7z"/><ellipse cx="26.7" cy="29.3" rx="2.7" ry="2.7"/><ellipse cx="34.7" cy="37.3" rx="2.7" ry="2.7"/></svg>