<svg viewPort="0 0 256 256" width="256" height="256"><style>path{fill:#005252}@media (prefers-color-scheme:dark){path{fill:#f5f3ef}}</style><path d="M167.188 186.644l10.189-22.537.692-.31c10.71-4.8 16.803-12.056 18.48-21.898 2.54-14.913.714-22.934-4.76-24.667-1.225-.387-2.354-.413-3.438-.094l-3.095.91 3.348-18.96c1.684-28.123-2.155-48.271-11.367-60.444-12.901-17.05-22.884-21.34-52.704-24.36-12.19-1.235-23.084.187-32.608 3.69-7.223 2.657-13.211 6.359-17.465 10.235-4.175 3.805-8.832 17.086-13.584 39.408v59.781c-1.366 9.915-1.366 19.303-.022 28.307 1.348 9.035 4.5 20.704 9.457 34.984 8.118 17.47 16.912 25.815 26.214 25.505 9.844-.328 33.565-10.204 70.663-29.55zm25.808-73.225c8.079 2.556 10.337 12.475 7.496 29.152-1.874 10.998-8.635 19.224-20.092 24.558l-10.137 22.421-.612.32c-38.073 19.882-62.234 29.963-72.993 30.322-11.338.378-21.287-9.082-30.017-27.91-5.126-14.724-8.35-26.65-9.744-35.987-1.395-9.345-1.4-19.07-.021-29.17V67.196c5.003-23.558 9.822-37.325 14.89-41.944 4.628-4.217 11.059-8.192 18.778-11.032 10.09-3.71 21.592-5.212 34.392-3.916 30.822 3.122 41.807 7.844 55.491 25.926 9.911 13.097 13.916 34.168 12.163 63.214l-2.367 13.48c.915.035 1.84.2 2.773.495z"/><path d="M91.804 114.151l-1.79 3.577c-7.041-3.526-12.659-5.267-16.78-5.267-3.845 0-6.79 1.514-9.028 4.642l-3.253-2.327c2.988-4.178 7.145-6.315 12.28-6.315 4.859 0 11.025 1.91 18.571 5.69zm20.545 2.372l-2.513-3.112c6.329-5.111 14.105-6.8 23.167-5.086 9.037 1.71 15.868 6.14 20.362 13.25l-3.382 2.137c-3.883-6.144-9.747-9.948-17.723-11.457-7.952-1.504-14.535-.075-19.911 4.268z"/><path d="M127.5 130a6.5 6.5 0 110-13 6.5 6.5 0 010 13zm0-4a2.5 2.5 0 100-5 2.5 2.5 0 000 5zm-49 6a6.5 6.5 0 110-13 6.5 6.5 0 010 13zm0-4a2.5 2.5 0 100-5 2.5 2.5 0 000 5zm17.464-6.1l3.855 1.066-7.76 28.04-.052.16c-1.956 5.294-1.028 8.246 2.762 9.8 3.884 1.59 6.015.777 7.368-2.693l.498-1.277 1.371.004c4.5.014 5.854-.79 5.629-2.214-.421-2.662-1.143-4.451-2.06-5.383l2.85-2.806c1.602 1.627 2.62 4.153 3.16 7.563.686 4.33-2.496 6.547-8.278 6.813-2.352 4.621-6.625 5.918-12.054 3.694-5.962-2.443-7.63-7.689-5.028-14.807l7.739-27.96z"/><path d="M90.747 159.557l1.112 3.842c-4.19 1.213-7.297.952-9.11-1.231-1.717-2.066-1.717-5.818-.413-11.576l3.9.884c-.554 2.448-.827 4.421-.827 5.894 0 1.22.186 1.965.416 2.242.524.631 2.096.763 4.922-.055zm-12.703 17.677l2.2-3.34c3.453 2.273 9.108 3.462 16.941 3.462 8.025 0 17.523-1.245 28.485-3.742l.888 3.9c-11.233 2.559-21.02 3.842-29.373 3.842-8.543 0-14.916-1.34-19.141-4.122z"/><path d="M64.255 229.548l7.402-49.4 3.956.593-6.828 45.568 13.026 2.38 9.257 11.412 20.296-2.034 18.883-.01 11.846-20.616-8.54-36.541 3.896-.91 8.898 38.076-13.785 23.991h-20.899l-22.342 2.24-9.685-11.939zM68.849 80.56l-2.89-2.765 11.534-12.054 1.12 2.974c2.67 7.094 7.062 9.78 13.708 8.499 7.052-1.36 13.918-6.721 20.553-16.219l.965-1.381 1.524.716c11.817 5.55 19.72 8.329 23.369 8.329 3.102 0 5.602-2.26 7.559-7.249l1.654-4.215L158.693 79l-.227.754c-1.706 5.654-1.706 11.61.014 17.912 1.739 6.369 5.09 12.555 10.074 18.564l.326.393 2.188 11.228c.578-1.83 1.324-3.47 2.241-4.92 2.752-4.355 7.583-7.86 14.434-10.575l1.473 3.72c-6.127 2.426-10.282 5.442-12.525 8.991-2.255 3.568-3.317 8.84-3.109 15.826l-3.962.442-4.471-22.949c-5.156-6.31-8.671-12.866-10.527-19.666-1.837-6.73-1.91-13.193-.207-19.354l-6.256-12.69c-2.385 3.914-5.536 5.982-9.427 5.982-4.273 0-12.025-2.665-23.558-8.003-6.896 9.44-14.25 14.973-22.096 16.486-7.642 1.472-13.417-1.358-16.955-8.184L68.85 80.56z"/></svg>