<svg xmlns="http://www.w3.org/2000/svg" fill="none" viewBox="0 0 325 325">
  <style> [data-description="bg"] {
      fill: #88D800;
    } [data-description="flare"] {
      fill: #0D9300;
    } [data-description="border"] {
      fill: #000;
    }
  </style>
  <path data-description="bg" d="M0 0h325v154.475H0V0Z"/>
  <path data-description="bg" d="M21 153.472h284V325H21V153.472Z"/>
  <path data-description="flare" d="M61.378 25.579h-50.31v8.526H42.26V143.44h19.118V25.579ZM251.548 25.077h62.384v9.028h-62.384v-9.028Z"/>
  <path data-description="flare" d="M253.56 25.077H121.749v118.364h10.062V34.105h21.13V143.44H253.56V25.077Zm0 19.059h10.062v10.03H253.56v-10.03Zm0 40.124h10.062v10.03H253.56V84.26Zm0 40.123h10.062v10.031H253.56v-10.031Zm0-60.185h10.062v10.03H253.56v-10.03Zm0 40.123h10.062v10.031H253.56v-10.031Zm10.062-70.216h10.062v10.03h-10.062v-10.03Zm0 40.123h10.062V84.26h-10.062V74.23Zm0 40.124h10.062v10.031h-10.062v-10.031Zm0-60.185h10.062v10.03h-10.062v-10.03Zm0 40.123h10.062v10.031h-10.062V94.29Zm0 40.124h10.062v10.03h-10.062v-10.03Zm10.062-90.278h10.062v10.03h-10.062v-10.03Zm0 40.124h10.062v10.03h-10.062V84.26Zm0 40.123h10.062v10.031h-10.062v-10.031Zm0-60.185h10.062v10.03h-10.062v-10.03Zm0 40.123h10.062v10.031h-10.062v-10.031Zm10.062-70.216h10.062v10.03h-10.062v-10.03Zm0 40.123h10.062V84.26h-10.062V74.23Z"/>
  <path data-description="flare" d="M283.746 114.352h10.062v10.031h-10.062v-10.031Zm0-60.185h10.062v10.03h-10.062v-10.03Zm0 40.123h10.062v10.031h-10.062V94.29Zm0 40.124h10.062v10.03h-10.062v-10.03Zm-41.248 40.123h10.062v10.031h-10.062v-10.031Zm0 40.123h10.062v10.031h-10.062V214.66Zm0 60.186h10.062v10.031h-10.062v-10.031Zm0-20.062h10.062v10.031h-10.062v-10.031Zm0-60.185h10.062v10.031h-10.062v-10.031Zm0 40.123h10.062v10.031h-10.062v-10.031Zm0 60.185h10.062v10.031h-10.062v-10.031Zm0 20.062h10.062V325h-10.062v-10.031Zm10.062-150.463h10.062v10.031H252.56v-10.031Zm0 40.124h10.062v10.031H252.56V204.63Zm0 60.185h10.062v10.031H252.56v-10.031Zm0-20.062h10.062v10.031H252.56v-10.031Zm0 60.185h10.062v10.031H252.56v-10.031Zm0-120.37h10.062v10.031H252.56v-10.031Zm0 40.123h10.062v10.031H252.56v-10.031Zm0 60.186h10.062v10.03H252.56v-10.03Z"/>
  <path data-description="flare" d="M252.56 264.815h10.062v10.031H252.56v-10.031Zm10.062-90.278h10.062v10.031h-10.062v-10.031Zm0 40.123h10.062v10.031h-10.062V214.66Zm0 60.186h10.062v10.031h-10.062v-10.031Zm0-20.062h10.062v10.031h-10.062v-10.031Zm0-60.185h10.062v10.031h-10.062v-10.031Zm0 40.123h10.062v10.031h-10.062v-10.031Zm0 60.185h10.062v10.031h-10.062v-10.031Zm0 20.062h10.062V325h-10.062v-10.031ZM163 164.506h80V325h-80V164.506Zm-30 0h10V325h-10V164.506Zm-72 0h22V325H61V164.506Z"/>
  <path data-description="border" fill-rule="evenodd" d="M314 11.034H11v132.407h303V11.034ZM0 0v154.475h325V0H0Z" clip-rule="evenodd"/>
  <path data-description="border" d="M32.01 164.442h261.98v144.602h.01V325h11V153.472H21V325h11v-15.956h.01V164.442Z"/>
</svg>