<svg xmlns="http://www.w3.org/2000/svg" stroke-linejoin="round" version="1.1" viewBox="0 0 2000 1001" role="img" aria-label="Map of the world containing countries I have been to"><defs id="defs4"/><path id="AF" fill-rule="evenodd" d="M1369.9 333.8h-5.4l-3.8-.5-2.5 2.9-2.1.7-1.5 1.3-2.6-2.1-1-5.4-1.6-.3v-2l-3.2-1.5-1.7 2.3.2 2.6-.6.9-3.2-.1-.9 3-2.1-1.3-3.3 2.1-1.8-.8-4.3-1.4h-2.9l-1.6-.2-2.9-1.7-.3 2.3-4.1 1.2.1 5.2-2.5 2-4 .9-.4 3-3.9.8-5.9-2.4-.5 8-.5 4.7 2.5.9-1.6 3.5 2.7 5.1 1.1 4 4.3 1.1 1.1 4-3.9 5.8 9.6 3.2 5.3-.9 3.3.8.9-1.4 3.8.5 6.6-2.6-.8-5.4 2.3-3.6h4l.2-1.7 4-.9 2.1.6 1.7-1.8-1.1-3.8 1.5-3.8 3-1.6-3-4.2 5.1.2.9-2.3-.8-2.5 2-2.7-1.4-3.2-1.9-2.8 2.4-2.8 5.3-1.3 5.8-.8 2.4-1.2 2.8-.7-1.4-1.9z" data-id="AF" data-name="Afghanistan"/><path id="AO" fill-rule="evenodd" d="M1068.3 609.6l-16.6-.1-1.9.7-1.7-.1-2.3.9-.5 1.2 2.8 4 1.1 4.3 1.6 6.1-1.7 2.6-.3 1.3 1.3 3.8 1.5 3.9 1.6 2.2.3 3.6-.7 4.8-1.8 2.8-3.3 4.2-1.3 2.6-1.9 5.7-.3 2.7-2 5.9-.9 5.5.5 4 2.7-1.2 3.3-1 3.6.1 3.2 2.9.9-.4 22.5-.3 3.7 3 13.4.9 10.3-2.5-3.5-4-3.6-5.2.8-20.3 11.6.1-.5-2.2.9-2.4-.9-3 .7-3-.5-2-2.6-.4-3.5 1-2.4-.2-1.4.6.5-7.6-1.9-2.3-.3-4 .9-3.8-1.2-2.4v-4h-6.8l.5-2.3h-2.9l-.3 1.1-3.4.3-1.5 3.7-.9 1.6-3-.9-1.9.9-3.7.5-2.1-3.3-1.3-2.1-1.6-3.8-1.3-4.7zm-21.8-1.3l.2-2.7.9-1.7 2-1.3-2-2.2-1.8 1.1-2.2 2.7 1.4 4.8 1.5-.7z" data-id="AO" data-name="Angola"/><path id="AL" fill-rule="evenodd" d="M1077.5 300.5l-2 3.1.5 1.9h0l1 1-.5 1.9-.1 4.3.7 3 3 2.1.2 1.4 1 .4 2.1-3 .1-2.1 1.6-.9V312l-2.3-1.6-.9-2.6.4-2.1h0l-.5-2.3-1.3-.6-1.3-1.6-1.3.5-.4-1.2z" data-id="AL" data-name="Albania"/><path id="AE" fill-rule="evenodd" d="M1283.9 408.6l-1.3-2.2-3 3.9-3.7 4.1-3.3 4.3-3.3-.2-4.6-.2-4.2 1-.3-1.7-1 .3.4 1.5 2.6 6.4 16.8 3.2 1-1.3-.1-2.6 1.4-2.6-.3-2.6 2.4-1.3-1.1-.8.1-4.2h2.8l-1.3-5z" data-id="AE" data-name="United Arab Emirates"/><path id="AR" fill-rule="evenodd" d="M669.8 920.7l.9-3-7.3-1.5-7.7-3.6-4.3-4.6-3-2.8 5.9 13.5h5l2.9.2 3.3 2.1 4.3-.3zm-50.4-208.1l-7.4-1.5-4 5.7.9 1.6-1.1 6.6-5.6 3.2 1.6 10.6-.9 2 2 2.5-3.2 4-2.6 5.9-.9 5.8 1.7 6.2-2.1 6.5 4.9 10.9 1.6 1.2 1.3 5.9-1.6 6.2 1.4 5.4-2.9 4.3 1.5 5.9 3.3 6.3-2.5 2.4.3 5.7.7 6.4 3.3 7.6-1.6 1.2 3.6 7.1 3.1 2.3-.8 2.6 2.8 1.3 1.3 2.3-1.8 1.1 1.8 3.7 1.1 8.2-.7 5.3 1.8 3.2-.1 3.9-2.7 2.7 3.1 6.6 2.6 2.2 3.1-.4 1.8 4.6 3.5 3.6 12 .8 4.8.9 2.2.4-4.7-3.6-4.1-6.3.9-2.9 3.5-2.5.5-7.2 4.7-3.5-.2-5.6-5.2-1.3-6.4-4.5-.1-4.7 2.9-3.1 4.7-.1.2-3.3-1.2-6.1 2.9-3.9 4.1-1.9-2.5-3.2-2.2 2-4-1.9-2.5-6.2 1.5-1.6 5.6 2.3 5-.9 2.5-2.2-1.8-3.1-.1-4.8-2-3.8 5.8.6 10.2-1.3 6.9-3.4 3.3-8.3-.3-3.2-3.9-2.8-.1-4.5-7.8-5.5-.3-3.3-.4-4.2.9-1.4-1.1-6.3.3-6.5.5-5.1 5.9-8.6 5.3-6.2 3.3-2.6 4.2-3.5-.5-5.1-3.1-3.7-2.6 1.2-.3 5.7-4.3 4.8-4.2 1.1-6.2-1-5.7-1.8 4.2-9.6-1.1-2.8-5.9-2.5-7.2-4.7-4.6-1-11.2-10.4-1-1.3-6.3-.3-1.6 5.1-3.7-4.6z" data-id="AR" data-name="Argentina"/><path id="AM" fill-rule="evenodd" d="M1219 325.1l-.9-4.4-2.5-1.1-2.5-1.7 1-2-3.1-2.2.7-1.5-2.2-1.1-1.4-1.7-6.9 1 1.3 2.2v3.1l4.2 1.5 2.4 1.9 1-.2 1.8 1.7h2.3l.2 1 2.8 3.7 1.8-.2z" data-id="AM" data-name="Armenia"/><path id="AU" fill-rule="evenodd" d="M1726.7 832l-3-.5-1.9 2.9-.6 5.4-2.1 4-.5 5.3 3 .2.8.3 6.6-4.3.6 1.7 4-4.9 3.2-2.2 4.5-7.3-2.8-.5-4.8 1.2-3.4.9-3.6-2.2zm50.1-172.3l.5-2.3.1-3.6-1.6-3.2.1-2.7-1.3-.8.1-3.9-1.2-3.2-2.3 2.4-.4 1.8-1.5 3.5-1.8 3.4.6 2.1-1.2 1.3-1.5 4.8.1 3.7-.7 1.8.3 3.1-2.6 5-1.3 3.5-1.7 2.9-1.7 3.4-4.1 2.1-4.9-2.1-.5-2-2.5-1.6h-1.6l-3.3-3.8-2.5-2.2-3.9-2-3.9-3.5-.1-1.8 2.5-3.1 2.1-3.2-.3-2.6 1.9-.2 2.5-2.5 2-3.4-2.2-3.2-1.5 1.2-2-.5-3.5 1.8-3.2-2-1.7.7-4.5-1.6-2.7-2.7-3.5-1.5-3.1.9 3.9 2.1-.3 3.2-4.8 1.2-2.8-.7-3.6 2.2-2.9 3.7.6 1.5-2.7 1.7-3.4 5.1.6 3.5-3.4-.6h-3.5l-2.5-3.8-3.7-2.9-2.8.8-2.6.9-.3 1.6-2.4-.7-.3 1.8-3 1.1-1.7 2.5-3.5 3.1-1.4 4.8-2.3-1.3-2.2 3.1 1.5 3-2.6 1.2-1.4-5.5-4.8 5.4-.8 3.5-.7 2.5-3.8 3.3-2 3.4-3.5 2.8-6.1 1.9-3.1-.2-1.5.6-1.1 1.4-3.5.7-4.7 2.4-1.4-.8-2.6.5-4.6 2.3-3.2 2.7-4.8 2.1-3.1 4.4.4-4.8-3.1 4.6-.1 3.7-1.3 3.2-1.5 1.5-1.3 3.7.9 1.9.1 2 1.6 5-.7 3.3-1-2.5-2.3-1.8.4 5.9-1.7-2.8.1 2.8 1.8 5-.6 5 1.7 2.5-.4 1.9.9 4.1-1.3 3.6-.3 3.6.7 6.5-.7 3.7-2.2 4.4-.6 2.3-1.5 1.5-2.9.8-1.5 3.7 2.4 1.2 4 4.1h3.6l3.8.3 3.3-2.1 3.4-1.8 1.4.3 4.5-3.4 3.8-.3 4.1-.7 4.2 1.2 3.6-.6 4.6-.2 3-2.6 2.3-3.3 5.2-1.5 6.9-3.2 5 .4 6.9-2.1 7.8-2.3 9.8-.6 4 3.1 3.7.2 5.3 3.8-1.6 1.5 1.8 2.4 1.3 4.6-1.6 3.4 2.9 2.6 4.3-5.1 4.3-2.1 6.7-5.5-1.6 4.7-3.4 3.2-2.5 3.7-4.4 3.5 5.2-1.2 4.7-4.4-.9 4.8-3.2 3.1 4.7.8 1.3 2.6-.4 3.3-1.5 4.9 1.4 4 4 1.9 2.8.4 2.4 1 3.5 1.8 7.2-4.7 3.5-1.2-2.7 3.4 2.6 1.1 2.7 2.8 4.7-2.7 3.8-2.5 6.3-2.7 6-.2 4.2-2.3.9-2 3-4.5 3.9-4.8 3.6-3.2 4.4-5.6 3.3-3.1 4.4-5 5.4-3.1 5-5.8 3.1-4.5 1.4-3.6 3.8-5.7 2.1-2.9 2.5-5.7-.7-5.4 1.7-3.9 1.1-3.7v-5.1l-2.8-5.1-1.9-2.5-2.9-3.9.7-6.7-1.5 1-1.6-2.8-2.5 1.4-.6-6.9-2.2-4 1-1.5-3.1-2.8-3.2-3-5.3-3.3-.9-4.3 1.3-3.3-.4-5.5-1.3-.7-.2-3.2-.2-5.5 1.1-2.8-2.3-2.5-1.4-2.7-3.9 2.4-1.2-5z" data-id="AU" data-name="Australia"/><path id="AT" fill-rule="evenodd" d="M1060.2 264l-2.3-1.2-2.3.3-4-1.9-1.7.5-2.6 2.5-3.8-2-1.5 2.9-1.7.8 1 4-.4 1.1-1.7-1.3-2.4-.2-3.4 1.2-4.4-.3-.6 1.6-2.6-1.7-1.5.3.2 1.1-.7 1.6 2.3 1.1 2.6.2 3.1.9.5-1.2 4.8-1.1 1.3 2.2 7.2 1.6 4.2.4 2.4-1.4 4.3-.1.9-1.1 1.3-4-1.1-1.3h2.8l.2-2.6-.7-2.1.3-.8z" data-id="AT" data-name="Austria"/><path id="AZ" fill-rule="evenodd" d="M1210.1 318.9l-1 .2 1.2 2.4 3.2 2.9 3.7.9-2.8-3.7-.2-1h-2.3l-1.8-1.7zm10.4-9.3l-4.3-3.8-1.5-.2-1.1.9 3.2 3.4-.6.7-2.8-.4-4.2-1.8-1.1 1 1.4 1.7 2.2 1.1-.7 1.5 3.1 2.2-1 2 2.5 1.7 2.5 1.1.9 4.4 5.3-4.7 1.9-.5 1.9 1.9-1.2 3.1 3.8 3.4 1.3-.3-.8-3.2 1.7-1.5.4-2.2-.1-5 4.2-.5-2-1.7-2.5-.2-3.5-4.5-3.4-3.2h0l-2.6 2.5-.5 1.5-2.4-.4z" data-id="AZ" data-name="Azerbaijan"/><path id="BI" fill-rule="evenodd" d="M1148.2 590l-.3-2.5h0l-3-.4-1.7 3.6-3.5-.5 1.4 2.9.1 1.1 2 6.1-.1.3.6-.1 2.1-2.3 2.2-3.3 1.4-1.4v-2l-1.2-1.5z" data-id="BI" data-name="Burundi"/><path id="BE" fill-rule="evenodd" d="M1000.7 246.2l-4.4 1.3-3.6-.5h0l-3.8 1.2.7 2.2 2.2.1 2.4 2.4 3.4 2.9 2.5-.4 4.4 2.8.4-3.5 1.3-.2.4-4.2-2.8-1.4-3.1-2.7z" data-id="BE" data-name="Belgium"/><path id="BJ" fill-rule="evenodd" d="M996.9 498l-4.3-3.7h-2l-1.9 1.9-1.2 1.9-2.7.6-1.2 2.8-1.9.7-.7 3.3 1.7 1.9 2 2.3.2 3.1 1.1 1.3-.2 14.6 1.4 4.4 4.6-.8.3-10.2-.1-4.1 1-4 1.7-1.9 2.7-4-.6-1.7 1.1-2.5-1.2-3.8.2-2.1z" data-id="BJ" data-name="Benin"/><path id="BF" fill-rule="evenodd" d="M978.8 477.2h-3.6l-1.4-1.2-3 .9-5.2 2.6-1.1 2-4.3 2.9-.8 1.6-2.3 1.3-2.7-.9-1.6 1.6-.8 4.4-4.5 5.2.2 2.2-1.6 2.7.4 3.7 2.5 1.4 1 2.1 2.5 1.3 1.9-1.6 2.7-.2 3.8 1.6-.8-4.8.2-3.6 9.7-.3 2.4.5 1.8-1 2.6.5 4.9.1 1.9-.7 1.2-2.8 2.7-.6 1.2-1.9.1-4.4-6.4-1.4-.2-3.1-3.1-4.1-.8-2.9.5-3.1z" data-id="BF" data-name="Burkina Faso"/><path id="BD" fill-rule="evenodd" d="M1486.5 431.9l-4.5-10.1-1.5.1-.2 4-3.5-3.3 1.1-3.6 2.4-.4 1.6-5.3-3.4-1.1-5 .1-5.4-.9-1.2-4.4-2.7-.4-4.8-2.7-1.2 4.3 4.6 3.4-3.1 2.4-.8 2.3 3.7 1.7-.4 3.8 2.6 4.8 1.6 5.2 2.2.6 1.7.7.6-1.2 2.5 1.3 1.3-3.5-.9-2.6 5.1.2 2.8 3.7 1.5 3.1.8 3.2 2 3.3-1.1-5.1 2.1 1-.5-4.6z" data-id="BD" data-name="Bangladesh"/><path id="BG" fill-rule="evenodd" d="M1121.6 294.3l-3-.7-4-2.2-5.8 1.4-2.3 1.6-7.5-.3-4-1-1.9.5-1.8-2.6-1.1 1.4.7 2.3 2.8 2.6-1.7 1.9-.7 2 .6.7-.7.9 2.8 2 .8 4.1 3.8.2 3.9-1.7 3.9 2.1 4.6-.6-.3-3 5-2 4.5.8-2.1-3.5 1.3-4.4 2.2-2.5z" data-id="BG" data-name="Bulgaria"/><path id="BA" fill-rule="evenodd" d="M1062.2 284.9l-2.3.1-1 1.3-1.9-1.4-.9 2.5 2.7 2.9 1.3 1.9 2.5 2.3 2 1.4 2.2 2.5 4.7 2.4.4-3.4 1.5-1.4.9-.6 1.2-.3.5-2.9-2.7-2.3 1-2.7h-1.8 0l-2.4-1.4-3.5.1-4.4-1z" data-id="BA" data-name="Bosnia and Herz."/><path id="BY" fill-rule="evenodd" d="M1112.8 219.4l-5.2-1.5-4.6 2.3-2.6 1 .9 2.6-3.5 2-.5 3.4-4.8 2.2h-4.6l.6 2.7 1.7 2.3.3 2.4-2.7 1.2 1.9 2.9.5 2.7 2.2-.3 2.4-1.6 3.7-.2 5 .5 5.6 1.5 3.8.1 2 .9 1.6-1.1 1.5 1.5 4.3-.3 2 .6-.2-3.1 1.2-1.4 4.1-.3h0l-2-3.9-1.5-2 .8-.6 3.9.2 1.6-1.3-1.7-1.6-3.4-1.1.1-1.1-2.2-1.1-3.7-3.9.6-1.6-1-2.9-4.8-1.4-2.3.7-1-1.4z" data-id="BY" data-name="Belarus"/><path id="BZ" fill-rule="evenodd" d="M482.5 471.1l1.4-2.2 1-.2 1.3-1.7 1-3.2-.3-.6.9-2.3-.4-1 1.3-2.7.3-1.8h-1.1l.1-.9h-1l-2.5 3.9-.9-.8-.7.3-.1 1-.7 5-1.2 7.2h1.6z" data-id="BZ" data-name="Belize"/><path id="BO" fill-rule="evenodd" d="M655.7 700.5l1.6-1.3-.8-3.6 1.3-2.8.5-5-1.6-4-3.2-1.7-.8-2.6.6-3.6-10.7-.3-2.7-7.4 1.6-.1-.3-2.8-1.2-1.8-.5-3.7-3.3-1.9-3.5.1-2.5-1.9-3.8-1.2-2.4-2.4-6.3-1-6.4-5.7.3-4.3-.9-2.5.4-4.7-7.3 1.1-2.8 2.3-4.8 2.6-1.1 1.9-2.9.2-4.2-.6 5.5 10.3-1.1 2.1.1 4.5.3 5.4-1.9 3.2 1.2 2.4-1.1 2.1 2.8 5.3-2.8 6.9 3.1 4.3 1.2 4.6 3.2 2.7-1.1 6.2 3.7 7.1 3.1 8.8 3.8-.9 4-5.7 7.4 1.5 3.7 4.6 1.6-5.1 6.3.3 1 1.3 1.5-7.6-.2-3.4 2.1-5.6 9.5-1.9 5.1.1 5.4 3.3.3 1.9z" data-id="BO" data-name="Bolivia"/><path id="BR" fill-rule="evenodd" d="M659 560.1l-1.4.2-3.1-.5-1.8 1.7-2.6 1.1-1.7.2-.7 1.3-2.7-.3-3.5-3-.3-2.9-1.4-3.3 1-5.4 1.6-2.2-1.2-3-1.9-.9.8-2.8-1.3-1.5-2.9.3.7 1.8-2.1 2.4-6.4 2.4-4 1-1.7 1.5-4.4-1.6-4.2-.8-1 .6 2.4 1.6-.3 4.3.7 4 4.8.5.3 1.4-4.1 1.8-.7 2.7-2.3 1-4.2 1.5-1.1 1.9-4.4.5-3-3.4-1.1.8-1-3.8-1.6-2-1.9 2.2-10.9-.1v3.9l3.3.7-.2 2.4-1.1-.6-3.2 1v4.6l2.5 2.4.9 3.6-.1 2.8-2.2 17.4-5.1-.3-.7 1-4.6 1.2-6.2 4.3-.4 3-1.3 2.2.7 3.4-3.3 1.9.1 2.7-1.5 1.1 2.6 5.8 3.3 3.8-1 2.8 3.7.3 2.3 3.4 4.9.2 4.4-3.8.2 9.7 2.6.7 3-1.1 4.2.6 2.9-.2 1.1-1.9 4.8-2.6 2.8-2.3 7.3-1.1-.4 4.7.9 2.5-.3 4.3 6.4 5.7 6.3 1 2.4 2.4 3.8 1.2 2.5 1.9 3.5-.1 3.3 1.9.5 3.7 1.2 1.8.3 2.8-1.6.1 2.7 7.4 10.7.3-.6 3.6.8 2.6 3.2 1.7 1.6 4-.5 5-1.3 2.8.8 3.6-1.6 1.3 1.9 3.6.4 8.6 6 1.2 2.1-1.2 3.9 1.7 1.2 1.9 1 5.8.9 2.5 2 .3 2-1.1 2.1 1.2.3 3.5-.3 3.8-.7 3.6 2.6-1.2 3.1 3.7.5 5.1-4.2 3.5-3.3 2.6-5.3 6.2-5.9 8.6 3.4-.7 6.2 4.9 1.9-.2 6.2 4.1 4.8 3.5 3.8 4.3-1.9 3 2.1 3.7 2.9-3.7 1.5-6 3.2-3 3.9-5 4.5-11.2 3.4-3.5.8-3.1.3-6.4-1.3-3.5.3-4.8 4.1-6.3 6-5.1 6-1.8 3.6-2.9 8.5-2.4h5.9l1.1-3.8 4.2-2.8.6-6.5 5.1-8.3.5-8.5 1.6-2.6.3-4.1 1.1-9.9-1-11.9 1.4-4.7 1.4-.1 3.9-5.5 3.3-7.2 7.7-8.8 2.7-4.2 2-10.5-1-3.9-2-8.1-2.1-2-4.8-.2-4.3-1.9-7.3-7.1-8.4-5.3-8.4.3-10.9-3.4-6.5 2 .8-3.5-2.7-3.8-9.4-3.8-7.1-2.3-4.2 4.1-.3-6.3-9.9-1-1.7-2 4.2-5.2-.1-4.4-3-1-3-11.2-1.3-3.5-1.9.3-3.5 5.8-1.8 4.7-2.1 2.4-2.7.5-.8-1.8-1.2-.3-1.8 1.8-2.4-1.3-3.2-1.4-2.7.7-2.3-.6-.5 1.8.9 1.3-.5 1.3-3.1-.5z" data-id="BR" data-name="Brazil"/><path id="BN" fill-rule="evenodd" d="M1617.8 543.4l2.7 3.3 1.1-2.2 2.7.2.1-4.1.1-3.1-4.6 3.5-2.1 2.4z" data-id="BN" data-name="Brunei"/><path id="BT" fill-rule="evenodd" d="M1474.7 395.5l-2.7-1.8-2.9-.1-4.2-1.5-2.6 1.6-2.6 4.8.3 1.2 5.5 2.5 3.2-1 4.7.4 4.4-.2-.4-3.9-2.7-2z" data-id="BT" data-name="Bhutan"/><path id="BW" fill-rule="evenodd" d="M1116.7 685l-1-.5-3.2 1.5h-1.6l-3.7 2.5-2-2.6-8.6 2.2-4.1.2-.9 22.7-5.4.2-.6 18.5 1.4 1 3 6.1-.7 3.8 1.1 2.3 4-.7 2.8-2.8 2.7-1.9 1.5-3.1 2.7-1.5 2.3.8 2.5 1.8 4.4.3 3.6-1.5.6-2 1.2-3 3-.5 1.7-2.4 2-4.3 5.2-4.7 8-4.7-3.4-2.9-4.2-.9-1.5-4.1.1-2.2-2.3-.7-6-7-1.6-3.7-1.1-1.1-1.9-5.1z" data-id="BW" data-name="Botswana"/><path id="CF" fill-rule="evenodd" d="M1110.5 517.3l-.5-.3-2-1.8-.3-2 .8-2.6V508l-3.3-4-.7-2.7-3.5 1.1-2.8 2.5-4 7-5.2 2.9-5.4-.4-1.6.6.6 2.3-2.9 2.2-2.3 2.5-7.1 2.4-1.4-1.4-.9-.2-1 1.7-4.7.4-2.7 6.5-1.4 1.1-.4 5 .6 2.7-.4 1.9 2.6 3.3.5 2.3 2.1 3.2 2.6 2.1.3 2.9.6 1.8 2.9-5.9 3.3-3.4 3.8 1.1 3.6.4.5-4.5 2.2-3.2 3-2 4.6 2.1 3.6 2.4 4.1.6 4.2 1.2 1.6-3.8.8-.5 2.6.6 6.2-3.1 2.2 1.3 1.8-.2.9-1.5 2-.6 4.3.7 3.6.1 1.8-.6-.9-2.1-4.2-2.5-1.5-3.8-2.4-2.7-3.8-3.4-.1-2-3.1-2.6-3.8-2.5z" data-id="CF" data-name="Central African Rep."/><path id="CA" fill-rule="evenodd" d="M659 276.7l-.7-3-2.5 1.9.5 2.1 5.6 2.6 1.9-.4 3.3-2.5-4.7.1-3.4-.8zm14.4-15.9l.2-1.1-4.1-2.6-5.9-1.6-1.9.6 3.5 2.9 5.7 1.9 2.5-.1zm-305.3 3.7l.2-3.4-3.2-2.6-.4-2.9-.1-2.1-4.1-.7-2.4-.9-4.1-1.4-1.4 1.5-.6 3.3 4.3 1.1-.4 1.8 2.9 2.2v2.2l6.3 2.8 3-.9zM704.2 251l3.9-3.8 1.4-1.7-2.1-.3-4.9 2.2-4.2 3.5-8.1 9.8-5.3 3.7 1.6 1.7-3.8 2.2.2 1.9 9.6.1 5.4-.3 4.4 1.5-4.4 2.9 2.9.2 7.3-5.4 1.2.8-2.5 5.1 3 1.2 2.3-.2 3.5-5.5-.5-3.9.3-3.3-3.7 1.1 2.8-4.6-4.3-1.9-2.7 1.5-3.9-1.7 2.4-2.1-2.9-1.3-3.8 2 4.9-5.4zm-356.8-21.2l-1.9 2-1.4 2.6.9 1.9-.6 2.8.7 2.8h1.9l-.2-4.9 7.1-6.9-4.9.5-1.6-.8zm280.9-47l-.4-1.2-1.7-.1-2.8 1.7-.4.4.1 1.7 1.7.5 3.5-3zm-9.6-3.2l.8-1.1-6-.1-4.9 2.7v1.5l3 .2 7.1-3.2zm-3.1-16.6l-2.7-.5-5 5.2-3.6 4.4-5.7 2.8 6.3-.6-.8 3.4 8.2-3 6.2-3 .8 2.6 5.9 1.3 4.9-1.8-1.9-1.8-3.4.4 1.3-2.7-3.7-1.7-3.4-1.9-1.5-1.5-2.8.9.9-2.5zm44.6-8.2l3.7-1.7 1-.7 1.4-2.3-2.3-1.5-4.2.7-3.8 3.1-.7 2.6 4.9-.2zm-73.8-10.7l-.8-2-.3-1-1.6-1-3-1.5-4.9 2.3-5 1.7 3.5 2.4 3.8-.6 4.1 1.6 4.2-1.9zm22.4-2.1l-6.6-1 5.7-2.6-.4-6-1.9-2.3-4.5-.8-8.1 3.8-5.5 5.8 2.9 2.1 1.6 3.3-6.3 5.5-3.2-.2-6.2 4.4 4.2-5.2-4.8-1.8-4.5.9-2.4 3.4-5.9-.1-7.2.8-5.1-2.4-5 .4-1.5-2.9-2.1-1.3-3.8.5-5.2.3-4.4 1.8 2 2.3-7 2.8-1.4-3.3-4.4 1-11.8.6-6.4-1.2 8.5-2.6-2.8-2.8-4.4.4-4.7-1-7.5-1.9-3.8-2.3-4.5-.3-3.3 1.6-5.9.9 3.9-4.1-9.4 3.6-1.4-4.7-2.1-.6-3.8 2.5-4.5 1.2-.2-2.2-8.2 1.4-8.8 2.3-5.2-.6-7 1.6-6.2 2.3-3.7-.5-3.3-2.6-5.9-1.3h0l-24.3 20.2-35.4 32.4 4.2.1 2.7 1.6.6 2.6.2 3.9 7.6-3.3 6.4-1.9-.5 3 .7 2.4 1.7 2.7-1.1 4.2-1.5 6.8 4.6 3.8-3.1 3.7-5.1 2.9h0l-2.5 3.1 2.1 4.4-3.1 4.9 4.1 2.6-3.6 3.7-1.3 5.5 6.9 2.5 1.6 2.7 5.4 6.1h136.6l1.3-2.4h1.6l-.8 3.4 1 1 3.2.4 4.6 1 3.8 1.9 4.4-.8 5.3 1.6h0l3.2-2.4 3.2-1 1.8-1.5 1.5-.8 4 1.2 3.3.2.8.8.1 3.5 5.2 1-1.7 1.7 1.2 1.9-1.9 2.3 1.8.8-1.9 2.1h0l1.2.2 1.3-.9.5 1.4 3.4.7 3.8.1 3.8.6 4 1.2.8 2 1.4 4.7-2.4 2-3.8-.8-1-3.8-.9 3.9-3.8 3.4-.8 2.9-1.1 1.7-4.1 2h0l-3.7 3.4-2 2.2 2.7.4 4.5-2 2.9-1.7 1.6-.3 2.6.6 1.7-.9 2.8-.8 4.7-.8h0l.3-1.8-.3.1-1.7.3-1.8-.6 2.3-2.1 1.9-.7 3.9-.9 4.6-.9 1.8 1.2 1.9-1.4 1.9-.8.9.4.1.1 6.7-4.2 2.7-1.2h17l1-1.6 1.7-.3 2.5-.9 2.7-2.8 3.2-4.9 5.5-4.7 1.1 1.7 3.7-1.1 1.5 1.8-2.8 8.5 2.1 3.5 5.9-.8 8.1-.2-10.4 5.1-1.5 5.2 3.7.5 7.1-4.5 5.8-2.4 12.2-3.7 7.5-4.1-2.6-2.2 1-4.5-7.1 7-8.6.8-5.5-3.1-.1-4.6.6-6.8 6.1-4.1-3.3-3.1-7.6.6-12.1 5.2-10.9 8.2-4.6 1 7.8-5.7 10.1-8.3 7.2-2.7 5.7-4.4 5.2-.5 7.3.1 10 1.3 8.6-1 7.8-5.1 8.7-2.2 4.2-2.1 4.2-2.3 2-6.8-1.1-2.3-3.4-.8v-5.1l-2.3-1.9-6.9-1.6-2.8-3.4-4.8-3.4 3.4-3.7-2-7.1-2.6-7.5-1-5.2-4.3 2.7-7.4 6.5-8.1 3.2-1.6-3.4-3.7-1 2.2-7.3 2.6-4.9-7.7-.5-.1-2.2-3.6-3.3-3-2-4.5 1.5-4.2-.5-6.6-1.6-3.9 1.3-3.8 9-1 5.3-8.8 6.1 3.1 4.5.5 5-1.7 4-4.7 4.1-7.5 4.2-9 2.8 1.7 3.2-2.2 9.6-5.6 6.3-4.6 1.9-4.4-5.8-.1-6.8 1.7-6 3.6-5.2-4.8-.6-7.5-.4-3.6-2.5-4.8-1.6-1.7-2.9-3.3-2.2-7-2.6-7.1 1.2.7-4.5 1.5-5.5-6-1 4.9-6.8 4.9-4.6 9.4-6.5 8.6-4.6 5.6-.7 2.9-3.7 5.1-2.4 6.4-.4 7.7-3.8 2.9-2.4 7.4-4.7 3.2-2.8 3.2 1.7 6.5-.9L637 155l2.3-2.7-.8-2.9 5-2.9 1.7-2.7-3.5-2.6-5.4-.8-5.5-.4-4.6 5.9-6.5 4.6-7.2 4-1.3-3.7 4.2-4-2.2-3.5-8.7 4.2 4.3-5.5zm-75.5-18.9l-2.8-1-14.1 3.2-5.1 2-7.8 3.9 5.4 1.4 6.2-.1-11.5 2.1v1.9l5.6.1 9-.4 6.5 1.2-6.2 1-5.5-.3-7.1.9-3.3.6.6 4.2 4.2-.6 4.1 1.5-.3 2.5 7.8-.5 11.2-.8 9.4-1.8 5-.4 5.7 1.5 6.7.8 3.1-1.9-.7-2.1 7-.4 2.6-2.4-5-2.5-4.2-2.6 2.4-3.6 2.7-5.1-2.2-2-3-.9-4.2.8-2.8 5.3-4.3 2.1 2.2-5.1-1.7-1.7-7.3 2.7-2.6-2.6-10.4 1.5 4.7-2.4zm39.1-1.5l-1.7-1.1-5.4.2-2.1.7 2.2 3.6 7-3.4zm107.7 1.6l-4.4-2.8-8.4-.5-2.1.3-1.7 1.8 2 2.8.9.3 4.8-.7 4.1.1 4.1.1.7-1.4zm-39.4-.3l5.7-3.2-11.2 1.3-5.8 2.1-7.1 4.6-3.3 5.2 5.6.1-6.1 2.3 1.8 1.9 5.9.8 7.3 1.5 13.8 1.2 7.9-.6 3.2-1.6 2 1.8 3.3.3 2 3.3-3.5 1.4 7.1 1.8 4.6 2.6.5 1.9-.4 2.4-8.6 5.4-3.2 2.7.2 2-9.2.7-8 .1-5.4 4.2 2.4 1.9 13-.9.9-1.6 4.7 2.7 4.7 2.9-2.4 1.6 3.8 2.8 7.6 3.3 10.7 2.3.3-2-2.8-3.5-3.5-4.9 8.5 4.6 4.7 1.5 3.6-4.1v-5.6l-1-1.5-4.4-2.5-2.7-3.3 2.3-3.2 5.8-.7 3.8 5.4 4 2.4 10.7-6.5 3.3-3.9-6.4-.3-3.2-5.1-5.9-1.2-7.7-3.5 9-2.5-.8-5-2.2-2.1-8.3-2.1-1.9-3.3-8.2 1.2 1.1-2.3-3.6-2.5-6.8-2.6-5.2 2.1-9 1.5 3.3-3.4-2.3-5.3-11.6 2.1-7.1 4.1-.3-3.2zm-50-3.4l-7.1 2.4.9 3.4-7.4-.7-1.7 1.7 5.8 3.9.9 2 3.4.5 8.4-2 5.1-4.7-3.8-2.2 6-2.4.5-1.5-7.5.6-3.5-1zm22.3 5.4l5.6-1 10-4.5-6.1-1.2-7.8-.2-5.2 1.4-4.2 2.1-2.5 2.6-1.8 4.5 4.3.2 7.7-3.9zm-114.7 7.2l2.6-2.3 9.1-3.6 13.8-3.6 6.4-1.3-1.6-2.1-1.9-1.5-9.4-.2-4.1-1.1-14 .8-.3 3.1-7.6 3.3-7.4 3.8-4.3 2.2 5.9 2.7-.6 2.3 13.4-2.5zm124.1-18.3l.3-1.6-1.4-1.7-6.9 1.3-4.4 2.2 3.2 1.3 5.1.4 4.1-1.9zm-8.7-8.6l-1.1.7-4.8-.3-7.6 1.6-3.8-.1-4.3 3.8 6.6-.4-3.4 2.9 3.2.8 6.8-.5 5.8-3.7 2.8-2.5-.2-2.3zm-39.1 2.5l1.8-2.3-3.1-.5-5.7 1.7-.7 4.7-6.1-.4-2.8-2.9-8.2-1.6-5.4 1.4-11.6 4.8 4.1.8 17.8-.5-10.6 2.2-1.5 1.6 5.9-.1 12.2-2.2 13.8-.8 5.1-2.3 2.3-2.4-3.7-.2-4.3.8.7-1.8zm55.2-4.3l-7.1-.3-3.8 2 2.6 1.5 7 .6 1.4 2.1-2.2 2.4-1.5 2.8 8.5 1.6 5.5.6 8-.1 11.6-.8 4.3.6 6.7-1 3.5-1.4 1-2-2.3-1.9-5.8-.3-8 .4-7 1.1-5.1-.4-4.8-.3-1.2-1.1-3.1-1.1 2.8-1.9-1.4-1.6-7.3.1-2.3-1.6zm-75-2.6l-6 .7-5.5-.1-12.1 3.1-11.6 3.7h0l3.6 1 7-.7 9.8-2.1 3.8-.3 5.2-1.6 5.8-3.7zm80.5.6l1-.5-1.5-.9-7.2-.1-.6 1.3 6.4.3 1.9-.1zm-58.4-.8l3.2-1.4-4.1-.8-5.9.5-5.1 1.5 3.3 1.5 8.6-1.3zm7.8-4.2l-3.3-.9-1.6-.2-5.7 1.3-1 .7h6l5.6-.9zm46.4 2.5l3-1.7-2.3-1.6-1.7-.3-4.4-.1-2.1 1.8-.7 1.8 1.6 1.1 6.6-1zm-13.7-1.2l.1-2.2-7.4-1.7-6.1-.6-2.1 1.7 2.8 1.1-5.3 1.4 7.7.2 4 1.5 5.2.5 1.1-1.9zm53.7-6.1l.6-2.8-4.7-.8-4.7-.9-1.6-2.2-8.2.2.3.9-3.9.3-4.1 1.3-4.9 1.9-.3 1.9 2 1.5h6.5l-4.3 1.2-2.1 1.6 1.6 1.9 6.7.6 6.8-.4 10.5-3.4 6.4-1.3-2.6-1.5zm78.5-13.8l-7-.2-6.9-.3-10.2.6-1.4-.4-10.3.2-6.4.4-5.1.6-5 2-2.3-1-3.9-.2-6.7 1.4-7.4.6-4.1.1-6 .8-1.1 1.3 2.5 1.2.8 1.6 4.4 1.5 12.4-.3 7.2.5-7.2 1.5-2.2-.4-9.3-.2-1.1 2.2 3 1.7-2.8 1.6-7.5 1.1-4.9 1.7 4.8.9 1.7 3-7.5-2-2.5.3-2 3.4-8 1.1-2 2.3 6.7.3 4.9.6 11.7-.8 8.4 1.4 12.6-3 1-1.1-6.4.2.5-1.1 6.5-1.4 3.6-1.9 6.8-1.3 5-1.6-.8-2.2 3.3-.8-4.3-.6 11.1-.4 3.2-.9 7.9-.8 9.3-3.5 6.8-1.1 10.3-2.5h-7.4l3.9-.9 9-.8 9.7-1.6 1.1-1.1-5.2-1-6.7-.4-8.5-.3z" data-id="CA" data-name="Canada"/><path id="CH" fill-rule="evenodd" d="M1024.3 270.6l-5.4-1.9-1 1.4h-4.2l-1.3 1-2.3-.6.2 1.6-3.5 3.5v2.8l2.4-.9 1.8 2.7 2.2 1.3 2.4-.3 2.7-2.1.9 1 2.4-.2.9-2.5 3.8.8 2.1-1.1.3-2.5-2.6-.2-2.3-1.1.7-1.6-.2-1.1z" data-id="CH" data-name="Switzerland"/><path id="CL" fill-rule="evenodd" d="M648.4 905.2l-3.7-.7-3.3 2.5.2 4.1-1.2 2.8-7.2-2.2-8.6-4-4.5-1.3 9.7 6.8 6.3 3.2 7.5 3.4 5.3.9 4.3 1.8 3 .5 2.3.1 3.2-1.8.5-2.4-2.9-.2h-5l-5.9-13.5zm-47.3-196.3l-3.7-7.1 1.1-6.2-3.2-2.7-1.2-4.6-3.1-4.3-1.2 3.3-2.7 1.6 2.1 9 1.5 10.4-.1 14.2v13.2l.9 12.3-1.9 7.8 2.1 7.8-.5 5.3 3.2 9.5-.1 9.5-1.2 10.2-.6 10.5-2.1.2 2.4 7.3 3.3 6.3-1.1 4.3 1.9 11.6 1.5 8.8 3.5.9-1.1-7.7 4 1.6 1.8 12.7-6.4-2.1 2 10.2-2.7 5.5 8.2 1.8-3.4 4.8.2 6 5 10.6 4.2 4.1.2 3.6 3.3 3.8 7.5 3.5h0l7.4 4.2 6.2 2 2-.1-1.8-5.7 3.4-2.2 1.7-1.5h4.2l-4.8-.9-12-.8-3.5-3.6-1.8-4.6-3.1.4-2.6-2.2-3.1-6.6 2.7-2.7.1-3.9-1.8-3.2.7-5.3-1.1-8.2-1.8-3.7 1.8-1.1-1.3-2.3-2.8-1.3.8-2.6-3.1-2.3-3.6-7.1 1.6-1.2-3.3-7.6-.7-6.4-.3-5.7 2.5-2.4-3.3-6.3-1.5-5.9 2.9-4.3-1.4-5.4 1.6-6.2-1.3-5.9-1.6-1.2-4.9-10.9 2.1-6.5-1.7-6.2.9-5.8 2.6-5.9 3.2-4-2-2.5.9-2-1.6-10.6 5.6-3.2 1.1-6.6-.9-1.6-3.8.9-3.1-8.8z" data-id="CL" data-name="Chile"/><path id="CN" fill-rule="evenodd" d="M1587.2 453.3l.6-3.6 2-2.8-1.6-2.5-3.2-.1-5.8 1.8-2.2 2.8 1 5.5 4.9 2 4.3-3.1zm13.2-196.5l-6.1-6.1-4.4-3.7-3.8-2.7-7.7-6.1-5.9-2.3-8.5-1.8-6.2.2-5.1 1.1-1.7 3 3.7 1.5 2.5 3.3-1.2 2 .1 6.5 1.9 2.7-4.4 3.9-7.3-2.3.6 4.6.3 6.2 2.7 2.6 2.4-.8 5.4 1 2.5-2.3 5.1 2 7.2 4.3.7 2.2-4.3-.7-6.8.8-2.4 1.8-1.4 4.1-6.3 2.4-3.1 3.3-5.9-1.3-3.2-.5-.4 4 2.9 2.3 1.9 2.1-2.5 2-1.9 3.3-4.9 2.2-7.5.2-7.2 2.2-4.4 3.3-3.2-2-6.2.1-9.3-3.8-5.5-.9-6.4.8-11.2-1.3-5.5.1-4.7-3.6-4.9-5.7-3.4-.7-7.9-3.8-7.2-.9-6.4-1-3-2.7-1.3-7.3-5.8-5-8.1-2.3-5.7-3.3-3.3-4.4-1.7.5-1.8 4.2-3.8.6 2.5 6.2-1.6 2.8-10.7-2 1 11.1-2 1.4-9 2.4 8.7 10.7-2.9 1.6 1.7 3.5-.2 1.4-6.8 3.4-1 2.4-6.4.8-.6 4-5.7-.9-3.2 1.2-4 3 1.1 1.5-1 1.5 3 5.9 1.6-.6 3.5 1.4.6 2.5 1.8 3.7 1.4 1.9 4.7 3 2.9 5 9.4 2.6 7.6 7.5.8 5.2 3 3.3.6 3.3-4.1-.9 3.2 7 6.2 4 8.5 4.4 1.9-1.5 4.7 2 6.4 4.1 3.2.9 2.5 3.1 4.5 1.2 5 2.8 6.4 1.5 6.5.6 3-1.4 1.5 5.1 2.6-4.8 2.6-1.6 4.2 1.5 2.9.1 2.7 1.8 4.2-.8 3.9-4.8 5.3-4 4.9 1.5 3.2-2.6 3.5 3.9-1.2 2.7 6.1.9 3-.4 2.7 3.7 2.7 1.5 1.3 4.9.8 5.3-4.1 5.3.7 7.5 5.6-1 2.3 5.8 3.7 1.3-.8 5.2 4.5 2.4 2.5 1.2 3.8-1.8.6 2.6.7 1.5 2.9.1-1.9-7.2 2.7-1 2.7-1.5h4.3l5.3-.7 4.1-3.4 3 2.4 5.2 1.1-.2 3.7 3 2.6 5.9 1.6 2.4-1 7.7 2-.9 2.5 2.2 4.6 3-.4.8-6.7 5.6-.9 7.2-3.2 2.5-3.2 2.3 2.1 2.8-2.9 6.1-.7 6.6-5.3 6.3-5.9 3.3-7.6 2.3-8.4 2.1-6.9 2.8-.5-.1-5.1-.8-5.1-3.8-2-2.5-3.4 2.8-1.7-1.6-4.7-5.4-4.9-5.4-5.8-4.6-6.3-7.1-3.5.9-4.6 3.8-3.2 1-3.5 6.7-1.8-2.4-3.4-3.4-.2-5.8-2.5-3.9 4.6-4.9-1.9-1.5-2.9-4.7-1-4.7-4.4 1.2-3 5-.3 1.2-4.1 3.6-4.4 3.4-2.2 4.4 3.3-1.9 4.2 2.3 2.5-1.4 3 4.8-1.8 2.4-2.9 6.3-1.9 2.1-4 3.8-3.4 1-4.4 3.6 2 4.6.2-2.7-3.3 6.3-2.6-.1-3.5 5.5 3.6h0l-1.9-3.1 2.5-.1-3.8-7.3-4.7-5.3 2.9-2.2 6.8 1.1-.6-6-2.8-6.8.4-2.3-1.3-5.6-6.9 1.8-2.6 2.5h-7.5l-6-5.8-8.9-4.5-9.9-1.9z" data-id="CN" data-name="China"/><path id="CI" fill-rule="evenodd" d="M946.5 506.2l-2.3.9-1.3.8-.9-2.7-1.6.7-1-.1-1 1.9-4.3-.1-1.6-1-.7.6-1.1.5-.5 2.2 1.3 2.6 1.3 5.1-2 .8-.6.9.4 1.2-.3 2.8h-.9l-.3 1.8.6 3.1-1.2 2.8 1.6 1.8 1.8.4 2.3 2.7.2 2.5-.5.8-.5 5.2 1.1.2 5.6-2.4 3.9-1.8 6.6-1.1 3.6-.1 3.9 1.3 2.6-.1.2-2.5-2.4-5.5 1.5-7.2 2.3-5.3-1.4-9.1-3.8-1.6-2.7.2-1.9 1.6-2.5-1.3-1-2.1-2.5-1.4z" data-id="CI" data-name="Côte d'Ivoire"/><path id="CM" fill-rule="evenodd" d="M1060.1 502.9l.2-4.3-.5-4.2-2.2-4.1-1.6.4-.2 2 2.3 2.6-.6 1.1-.3 2.1-4.6 5-1.5 4-.7 3.3-1.2 1.4-1.1 4.5-3 2.6-.8 3.2-1.2 2.6-.5 2.6-3.9 2.2-3.2-2.6-2.1.1-3.3 3.7-1.6.1-2.7 6.1-1.4 4.5v1.8l1.4.9 1.1 2.8 2.6 1.1 2.2 4.2-.8 5 9.2.2 2.6-.4 3.4.8 3.4-.8.7.3 7.1.3 4.5 1.7 4.5 1.5.4-3.5-.6-1.8-.3-2.9-2.6-2.1-2.1-3.2-.5-2.3-2.6-3.3.4-1.9-.6-2.7.4-5 1.4-1.1 2.7-6.5.9-1.7-1.8-4.4-.8-2.6-2.5-1.1-3.3-3.7 1.2-3 2.5.6 1.6-.4 3.1.1-3.1-5.8z" data-id="CM" data-name="Cameroon"/><path id="CD" fill-rule="evenodd" d="M1124.9 539.4l-4.3-.7-2 .6-.9 1.5-1.8.2-2.2-1.3-6.2 3.1-2.6-.6-.8.5-1.6 3.8-4.2-1.2-4.1-.6-3.6-2.4-4.6-2.1-3 2-2.2 3.2-.5 4.5-.3 3.8-1.6 3.4-1.1 4-.7 5.6.3 3.6-.9 2.2-.2 2.4-.6 2-3.7 3.1-2.6 3.2-2.5 6.2.2 5.3-1.4 2-3.3 3.1-3.4 4-2-1.1-.4-1.8-3.1-.1-1.9 2.4-1.5-.6-2 1.3-.9 1.7-.2 2.7-1.5.7.8 2 2.3-.9 1.7.1 1.9-.7 16.6.1 1.3 4.7 1.6 3.8 1.3 2.1 2.1 3.3 3.7-.5 1.9-.9 3 .9.9-1.6 1.5-3.7 3.4-.3.3-1.1h2.9l-.5 2.3h6.8v4l1.2 2.4-.9 3.8.3 4 1.9 2.3-.5 7.6 1.4-.6 2.4.2 3.5-1 2.6.4 1.9.1.3 2 2.6-.1 3.5.6 1.8 2.8 4.5.9 3.4-2 1.2 3.4 4.3.8 2 2.8 2.1 3.5h4.3l-.3-6.9-1.5 1.2-3.9-2.5-1.4-1.1.8-6.4 1.2-7.5-1.2-2.8 1.6-4.1 1.6-.7 7.5-1.1 1 .3.2-1.1-1.5-1.7-.7-3.5-3.4-3.5-1.8-4.5 1-2.7-1.5-3.6 1.1-10.2.1.1-.1-1.1-1.4-2.9.6-3.5.8-.4.2-3.8 1.6-1.8.1-4.8 1.3-2.4.3-5.1 1.2-3 2.1-3.3 2.2-1.7 1.8-2.3-2.3-.8.3-7.5h0l-5-4.2-1.4-2.7-3.1 1.3-2.6-.4-1.5 1.1-2.5-.8-3.5-5.2-1.8.6-3.6-.1z" data-id="CD" data-name="Dem. Rep. Congo"/><path id="CG" fill-rule="evenodd" d="M1080.3 549.9l-3.6-.4-3.8-1.1-3.3 3.4-2.9 5.9-.4 3.5-4.5-1.5-4.5-1.7-7.1-.3-.4 2.8 1.5 3.3 4.2-.5 1.4 1.2-2.4 7.4 2.7 3.8.6 4.9-.8 4.3-1.7 3-4.9-.3-3-3-.5 2.8-3.8.8-1.9 1.6 2.1 4.2-4.3 3.5 4.6 6.7 2.2-2.7 1.8-1.1 2 2.2 1.5.6 1.9-2.4 3.1.1.4 1.8 2 1.1 3.4-4 3.3-3.1 1.4-2-.2-5.3 2.5-6.2 2.6-3.2 3.7-3.1.6-2 .2-2.4.9-2.2-.3-3.6.7-5.6 1.1-4 1.6-3.4.3-3.8z" data-id="CG" data-name="Congo"/><path id="CO" fill-rule="evenodd" d="M578.3 497.2l1.2-2.1-1.3-1.7-2-.4-2.9 3.1-2.3 1.4-4.6 3.2-4.3-.5-.5 1.3-3.6.1-3.3 3-1.4 5.4-.1 2.1-2.4.7-4.4 4.4-2.9-.2-.7.9 1.1 3.8-1.1 1.9-1.8-.5-.9 3.1 2.2 3.4.6 5.4-1.2 1.6 1.1 5.9-1.2 3.7 2 1.5-2.2 3.3-2.5 4-2.8.4-1.4 2.3.2 3.2-2.1.5.8 2 5.6 3.6 1-.1 1.4 2.7 4.7.9 1.6-1 2.8 2.1 2.4 1.5 1.5-.6 3.7 3 1.8 3 2.7 1.7 3.4 6.7 4.2.8 3-1.7 2.1 1.1 3.3-.6 4.4 3-3.5 6.5 1.7.1 2.9 3.4 2.2-17.4.1-2.8-.9-3.6-2.5-2.4v-4.6l3.2-1 1.1.6.2-2.4-3.3-.7v-3.9l10.9.1 1.9-2.2 1.6 2 1 3.8 1.1-.8-1.7-6.4-1.4-2.2-2-1.4 2.9-3.1-.2-1.5-1.5-1.9-1-4.2.5-4.6 1.3-2.1 1.2-3.4-2-1.1-3.2.7-4-.3-2.3.7-3.8-5.5-3.2-.8-7.2.6-1.3-2.2-1.3-.6-.2-1.3.8-2.4-.4-2.5-1.1-1.4-.6-2.9-2.9-.5 1.8-3.7.9-4.5 1.8-2.4 2.2-1.8 1.6-3.2 3.7-1.1z" data-id="CO" data-name="Colombia"/><path id="CR" fill-rule="evenodd" d="M509.1 502.6l-1.4 1.3-1.7-.4-.8-1.3-1.7-.5-1.4.8-3.5-1.7-.9.8-1.4 1.2 1.5.9-.9 2-.1 2 .7 1.3 1.7.6 1.2 1.8 1.2-1.6-.3-1.8 1.4 1.1.3 1.9 1.9.8 2.1 1.3 1.5 1.5.1 1.4-.7 1.1 1.1 1.3 2.9 1.4.4-1.2.5-1.3-.1-1.2.8-.7-1.1-1 .1-2.5 2.2-.6-2.4-2.7-2-2.6-1.2-3.4z" data-id="CR" data-name="Costa Rica"/><path id="CU" fill-rule="evenodd" d="M539 427.3l-4.9-2.1-4.3-.1-4.7-.5-1.4.7-4.2.6-3 1.3-2.7 1.4-1.5 2.3-3.1 2 2.2.6 2.9-.7.9-1.6 2.3-.1 4.4-3.3 5.4.3-2.3 1.6 1.8 1.3 7 1 1.5 1.3 4.9 1.7 3.2-.2.8 3.6 1.7 1.8 3.5.4 2.1 1.7-4.1 3.5 7.9-.6 3.8.5 3.7-.3 3.8-.8.8-1.5-3.9-2.6-4-.3.6-1.7-3.1-1.3h-1.9l-3-2.8-4.2-4-1.8-1.5-5.2.8-1.9-2.4z" data-id="CU" data-name="Cuba"/><path id="CZ" fill-rule="evenodd" d="M1049.4 248.5l-2.1.6-1.4-.7-1.1 1.2-3.4 1.2-1.7 1.5-3.4 1.3 1 1.9.7 2.6 2.6 1.5 2.9 2.6 3.8 2 2.6-2.5 1.7-.5 4 1.9 2.3-.3 2.3 1.2.6-1.4 2.2.1 1.6-.6.1-.6.9-.3.2-1.4 1.1-.3.6-1.1h1.5l-2.6-3.1-3.6-.3-.7-2-3.4-.6-.6 1.5-2.7-1.2.1-1.7-3.7-.6-2.4-1.9z" data-id="CZ" data-name="Czech Rep."/><path id="DE" fill-rule="evenodd" d="M1043.6 232.3l-2.4-1.9-5.5-2.4-2.5 1.7-4.7 1.1-.1-2.1-4.9-1.4-.2-2.3-3 .9-3.6-.8.4 3.4 1.2 2.2-3 3-1-1.3-3.9.3-.9 1.3 1 2-1 5.6-1.1 2.3h-2.9l1.1 6.4-.4 4.2 1 1.4-.2 2.7 2.4 1.6 7.1 1.2-2.3 4.2-.5 4.5h4.2l1-1.4 5.4 1.9 1.5-.3 2.6 1.7.6-1.6 4.4.3 3.4-1.2 2.4.2 1.7 1.3.4-1.1-1-4 1.7-.8 1.5-2.9-2.9-2.6-2.6-1.5-.7-2.6-1-1.9 3.4-1.3 1.7-1.5 3.4-1.2 1.1-1.2 1.4.7 2.1-.6-2.3-3.9.1-2.1-1.4-3.3-2-2.2 1.2-1.6-1.4-3.1z" data-id="DE" data-name="Germany"/><path id="DJ" fill-rule="evenodd" d="M1217.8 499.2l-2.5-1.7 3.1-1.5.1-2.7-1.4-1.9-1.6 1.5-2.4-.5-1.9 2.8-1.8 3 .5 1.7.2 2 3.1.1 1.3-.5 1.3 1.1 2-3.4z" data-id="DJ" data-name="Djibouti"/><path id="DK" fill-rule="evenodd" d="M1035.9 221.2l-1.7-3-6.7 2 .9 2.5 5.1 3.4 2.4-4.9zm-8.6-5.1l-2.6-.9-.7-1.6 1.3-2-.1-3-3.6 1.6-1.5 1.7-4 .4-1.2 1.7-.7 1.6.4 6.1 2.1 3.4 3.6.8 3-.9-1.5-3 3.1-4.3 1.4.7 1-2.3z" data-id="DK" data-name="Denmark"/><path id="DO" fill-rule="evenodd" d="M579.6 457.4v1.8l1.4 1 2.6-4.4 2-.9.6 1.6 2.2-.4 1.1-1.2 1.8.3 2.6-.2 2.5 1.3 2.3-2.6-2.5-2.3-2.4-.2.3-1.9-3 .1-.8-2.2-1.4.1-3.1-1.6-4.4-.1-.8 1.1.2 3.5-.7 2.4-1.5 1.1 1.2 1.9-.2 1.8z" data-id="DO" data-name="Dominican Rep."/><path id="DZ" fill-rule="evenodd" d="M1021 336.9l-3.6.4-2.2-1.5h-5.6l-4.9 2.6-2.7-1-8.7.5-8.9 1.2-5 2-3.4 2.6-5.7 1.2-5.1 3.5 2 4.1.3 3.9 1.8 6.7 1.4 1.4-1 2.5-7 1-2.5 2.4-3.1.5-.3 4.7-6.3 2.5-2.1 3.2-4.4 1.7-5.4 1-8.9 4.7-.1 7.5v.4l-.1 1.2 20.3 15.5 18.4 13.9 18.6 13.8 1.3 3 3.4 1.8 2.6 1.1.1 4 6.1-.6 7.8-2.8 15.8-12.5 18.6-12.2-2.5-4-4.3-2.9-2.6 1.2-2-3.6-.2-2.7-3.4-4.7 2.1-2.6-.5-4 .6-3.5-.5-2.9.9-5.2-.4-3-1.9-5.6-2.6-11.3-3.4-2.6v-1.5l-4.5-3.8-.6-4.8 3.2-3.6 1.1-5.3-1-6.2 1-3.3z" data-id="DZ" data-name="Algeria"/><path id="EC" fill-rule="evenodd" d="M553.1 573.1l-2.4-1.5-2.8-2.1-1.6 1-4.7-.9-1.4-2.7-1 .1-5.6-3.6-3.9 2.5-3.1 1.4.4 2.6-2.2 4.1-1 3.9-1.9 1 1 5.8-1.1 1.8 3.4 2.7 2.1-2.9 1.3 2.8-2.9 4.7.7 2.7-1.5 1.5.2 2.3 2.3-.5 2.3.7 2.5 3.2 3.1-2.6.9-4.3 3.3-5.5 6.7-2.5 6-6.7 1.7-4.1-.8-4.9z" data-id="EC" data-name="Ecuador"/><path id="EG" fill-rule="evenodd" d="M1129.7 374.8l-5.5-1.9-5.3-1.7-7.1.2-1.8 3 1.1 2.7-1.2 3.9 2 5.1 1.3 22.7 1 23.4h65.3l-1-1.3-6.8-5.7-.4-4.2 1-1.1-5.3-7-2-3.6-2.3-3.5-4.8-9.9-3.9-6.4-2.8-6.7.5-.6 4.6 9.1 2.7 2.9 2 2 1.2-1.1 1.2-3.3.7-4.8 1.3-2.5-.7-1.7-3.9-9.2h0l-2.5 1.6-4.2-.4-4.4-1.5-1.1 2.1-1.7-3.2-3.9-.8-4.7.6-2.1 1.8-3.9 2-2.6-1z" data-id="EG" data-name="Egypt"/><path id="ER" fill-rule="evenodd" d="M1198.1 474l-3.2-3.1-1.8-5.9-3.7-7.3-2.6 3.6-4 1-1.6 2-.4 4.2-1.9 9.4.7 2.5 6.5 1.3 1.5-4.7 3.5 2.9 3.2-1.5 1.4 1.3 3.9.1 4.9 2.5 1.6 2.2 2.5 2.1 2.5 3.7 2 2.1 2.4.5 1.6-1.5-2.8-1.9-1.9-2.2-3.2-3.7-3.2-3.6-7.9-6z" data-id="ER" data-name="Eritrea"/><path id="EE" fill-rule="evenodd" d="M1093.2 197.5l-5.5.9-5.4 1.6.9 3.4 3.3 2.1 1.5-.8.1 3.5 3.7-1 2.1.7 4.4 2.2h3.8l1.6-1.9-2.5-5.5 2.6-3.4-.9-1h0l-4.6.2-5.1-1z" data-id="EE" data-name="Estonia"/><path id="ET" fill-rule="evenodd" d="M1187.6 477l-1.5 4.7-6.5-1.3-.7 5.5-2.1 6.2-3.2 3.2-2.3 4.8-.5 2.6-2.6 1.8-1.4 6.7v.7l.2 5-.8 2-3 .1-1.8 3.6 3.4.5 2.9 3.1 1 2.5 2.6 1.5 3.5 6.9 2.9 1.1v3.6l2 2.1h3.9l7.2 5.4h1.8l1.3-.1 1.2.7 3.8.5 1.6-2.7 5.1-2.6 2.3 2.1h3.8l1.5-2 3.6-.1 4.9-4.5 7.4-.3 15.4-19.1-4.8.1-18.5-7.6-2.2-2.2-2.1-3.1-2.2-3.5 1.1-2.3-1.3-1.1-1.3.5-3.1-.1-.2-2-.5-1.7 1.8-3 1.9-2.8-2-2.1-2.5-3.7-2.5-2.1-1.6-2.2-4.9-2.5-3.9-.1-1.4-1.3-3.2 1.5-3.5-2.9z" data-id="ET" data-name="Ethiopia"/><path id="FI" fill-rule="evenodd" d="M1093.4 144.4l.8-3.8-5.7-2.1-5.8 1.8-1.1 3.9-3.4 2.4-4.7-1.3-5.3.3-5.1-2.9-2.1 1.4 5.9 2.7 7.2 3.7 1.7 8.4 1.9 2.2 6.4 2.6.9 2.3-2.6 1.2-8.7 6.1-3.3 3.6-1.5 3.3 2.9 5.2-.1 5.7 4.7 1.9 3.1 3.1 7.1-1.2 7.5-2.1 8-.5h0l7.9-7.4 3.3-3.3.9-2.9-7.3-3.9.9-3.7-4.9-4.1 1.7-4.8-6.4-6.3 2.8-4.1-7.2-3.7-.4-3.7z" data-id="FI" data-name="Finland"/><path id="FJ" fill-rule="evenodd" d="M1976.7 674.4l-3.7 2-1.9.3-3.1 1.3.2 2.4 3.9-1.3 3.9-1.6.7-3.1zm-11 8.1l-1.6 1-2.3-.8-2.7 2.2-.2 2.8 2.9.8 3.6-.9 1.8-3.3-1.5-1.8z" data-id="FJ" data-name="Fiji"/><path id="GA" fill-rule="evenodd" d="M1050.2 557.7l-.7-.3-3.4.8-3.4-.8-2.6.4v7.6h-8.2l-1.9.3-1.1 4.8-1.3 4.6-1.3 2-.2 2.1 3.4 6.6 3.7 5.3 5.8 6.4 4.3-3.5-2.1-4.2 1.9-1.6 3.8-.8.5-2.8 3 3 4.9.3 1.7-3 .8-4.3-.6-4.9-2.7-3.8 2.4-7.4-1.4-1.2-4.2.5-1.5-3.3.4-2.8z" data-id="GA" data-name="Gabon"/><path id="GB" fill-rule="evenodd" d="M950 227.5l-4.9-3.7-3.9.3.8 3.2-1.1 3.2 2.9-.1 3.5 1.3 2.7-4.2zm13-24.3l-5.5.5-3.6-.4-3.7 4.8-1.9 6.1 2.2 3 .1 5.8 2.6-2.8 1.4 1.6-1.7 2.7 1 1.6 5.7 1.1h.1l3.1 3.8-.8 3.5h0l-7.1-.6-1 4 2.6 3.3-5.1 1.9 1.3 2.4 7.5 1h0l-4.3 1.3-7.3 6.5 2.5 1.2 3.5-2.3 4.5.7 3.3-2.9 2.2 1.2 8.3-1.7 6.5.1 4.3-3.3-1.9-3.1 2.4-1.8.5-3.9-5.8-1.2-1.3-2.3-2.9-6.9-3.2-1-4.1-7.1-.4-.6-4.8-.4 4.2-5.3 1.3-4.9h-5l-4.7.8 5-6.4z" data-id="GB" data-name="United Kingdom"/><path id="GE" fill-rule="evenodd" d="M1200 300.2l-7.5-2.9-7.7-1-4.5-1.1-.5.7 2.2 1.9 3 .7 3.4 2.3 2.1 4.2-.3 2.7 5.4-.3 5.6 3 6.9-1 1.1-1 4.2 1.8 2.8.4.6-.7-3.2-3.4 1.1-.9-3.5-1.4-2.1-2.5-5.1-1.3-2.9 1-1.1-1.2z" data-id="GE" data-name="Georgia"/><path id="GH" fill-rule="evenodd" d="M976.8 502.1l-2.6-.5-1.8 1-2.4-.5-9.7.3-.2 3.6.8 4.8 1.4 9.1-2.3 5.3-1.5 7.2 2.4 5.5-.2 2.5 5 1.8 5-1.9 3.2-2.1 8.7-3.8-1.2-2.2-1.5-4-.4-3.2 1.2-5.7-1.4-2.3-.6-5.1.1-4.6-2.4-3.3.4-1.9z" data-id="GH" data-name="Ghana"/><path id="GN" fill-rule="evenodd" d="M912.4 493l-.8.4-3-.5-.4.7-1.3.1-4-1.5-2.7-.1-.1 2.1-.6.7.4 2.1-.8.9h-1.3l-1.4 1-1.7-.1-2.6 3.1 1.6 1.1.8 1.4.7 2.8 1.3 1.2 1.5.9 2.1 2.5 2.4 3.7 3-2.8.7-1.7 1-1.4 1.5-.2 1.3-1.2h4.5l1.5 2.3 1.2 2.7-.2 1.8.9 1.7v2.3l1.5-.3 1.2-.2 1.5-.7 2.3 3.9-.4 2.6 1.1 1.3 1.6.1 1.1-2.6 1.6.2h.9l.3-2.8-.4-1.2.6-.9 2-.8-1.3-5.1-1.3-2.6.5-2.2 1.1-.5-1.7-1.8.3-1.9-.7-.7-1.2.6.2-2.1 1.2-1.6-2.3-2.7-.6-1.7-1.3-1.4-1.1-.2-1.3.9-1.8.8-1.6 1.4-2.4-.5-1.5-1.6-.9-.2-1.5.8h-.9l-.3-2.3z" data-id="GN" data-name="Guinea"/><path id="GM" fill-rule="evenodd" d="M882.8 488.5l5 .1 1.4-.9h1l2.1-1.5 2.4 1.4 2.4.1 2.4-1.5-1.1-1.8-1.8 1.1-1.8-.1-2.1-1.5-1.8.1-1.3 1.5-6.1.2-.7 2.8z" data-id="GM" data-name="Gambia"/><path id="GW" fill-rule="evenodd" d="M900.2 492.1l-10.3-.3-1.5.7-1.8-.2-3 1.1.3 1.3 1.7 1.4v.9l1.2 1.8 2.4.5 2.9 2.6 2.6-3.1 1.7.1 1.4-1h1.3l.8-.9-.4-2.1.6-.7.1-2.1z" data-id="GW" data-name="Guinea-Bissau"/><path id="GQ" fill-rule="evenodd" d="M1040.1 557.8l-9.2-.2-1.9 7.2 1 .9 1.9-.3h8.2v-7.6z" data-id="GQ" data-name="Eq. Guinea"/><path id="GR" fill-rule="evenodd" d="M1101.9 344.9l-.8 2.8 6.6 1.2v1.1l7.6-.6.5-1.9-2.8.8v-1.1l-3.9-.5-4.1.4-3.1-2.2zm11.5-37.4l-2.7-1.6.3 3-4.6.6-3.9-2.1-3.9 1.7-3.8-.2-1 .2-.7 1.1-2.8-.1-1.9 1.3-3.3.6v1.6l-1.6.9-.1 2.1-2.1 3 .5 1.9 2.9 3.6 2.3 3 1.3 4.3 2.3 5.1 4.6 2.9 3.4-.1-2.4-5.7 3.3-.7-1.9-3.3 5 1.7-.4-3.7-2.7-1.8-3.2-3 1.8-1.4-2.8-3-1.6-3.8.9-1.3 3 3.2h2.9l2.5-1-3.9-3.6 6.1-1.6 2.7.6 3.2.2 1.1-.7 1.2-3.9z" data-id="GR" data-name="Greece"/><path id="GL" fill-rule="evenodd" d="M887.4 76.3l-26-.4-11.8.3-5 1.3-11.5-.1-12.7 2.1-1.6 1.7 6.7 2.1-6.2-1.3-4.5-.3-7-1.4-10.6 2.1-2.7-1.2h-10.4l-10.9.6-8.9 1-.2 1.8-5.3.5-14.6 2.9-4.6 1.7 8.1 1.5-2.8 1.6L730 95l-15.5 2.2-2.2 1.7 6.4 2 14.5 1.2-7.5.2-10.9 1.5 3.8 3.1 3 1.5 9.4-.3 10.1-.2 7.6.3 8 2.9-1.4 2.1 3.6 1.9 1.4 5.3 1 3.6 1.4 1.9-7 4.8 2.6 1.3 4.4-.8 2.6 1.8 5.3 3.4-7.5-1.4h-3.8l-3 2.8-1.5 3.6 4.2 1.8 4-.8 2.6-.8 5.5-1.9-2.8 4.2-2.6 2.3-7.1 2-7 6.3 2 2-3.4 4 3.7 5.2-1.5 5 .7 3.7 4.8 7.1.8 5.6 3.1 3.2h8.9l5 4.7 6.5-.3 4.1-5.7 3.5-4.8-.3-4.4 8.6-4.6 3.3-3.7 1.4-3.9 4.7-3.5 6.5-1.3 6.1-1.4 3-.2 10.2-3.9 7.4-5.7 4.8-2.1 4.6-.1 12.5-1.8 12.1-4.3 11.9-4.6-5.5-.3-10.6-.2 5.3-2.8-.5-3.6 4.2 3 2.7 2.1 7.3-1-.6-4.3-4.5-3.1-5-1.3 2.4-1.4 7.2 2.1.5-2.3-4.1-3.4h5.4l5.6-.8 1.7-1.8-4-2.1 8.6-.3-4-4.3 4.1-.5.1-4.2-6.2-2.5 6.4-1.6 5.8-.1-3.6-3.2 1.1-5.1 3.6-2.9 4.9-3.2-8-.2 11.3-.7 2.2-1 14.6-2.9-1.6-1.7-10-.8-16.9 1.5-9.2 1.5 4.5-2.3-2.3-1.4-7 1.2-9.7-1.4-12.1.5-1.4-.7 18.3-.4 12.9-.2 6.6-1.4-19.7-2.9z" data-id="GL" data-name="Greenland"/><path id="GT" fill-rule="evenodd" d="M482.8 458.9l-5.1-.1h-5.2l-.4 3.6h-2.6l1.8 2.1 1.9 1.5.5 1.4.8.4-.4 2.1H467l-3.3 5.2.7 1.2-.8 1.5-.4 1.9 2.7 2.6 2.5 1.3 3.4.1 2.8 1.1.2-1 2.1-1.6 1.1-.7-.2-.7 1.4-.4 1.3-1.6-.3-1.3.5-1.2 2.8-1.8 2.8-2.4-1.5-.8-.6.9-1.7-1.1h-1.6l1.2-7.2.7-5z" data-id="GT" data-name="Guatemala"/><path id="GY" fill-rule="evenodd" d="M656.1 534.2l-2.1-2.3-2.9-3.1-2.1-.1-.1-3.3-3.3-4.1-3.6-2.4-4.6 3.8-.6 2.3 1.9 2.3-1.5 1.2-3.4 1.1v2.9l-1.6 1.8 3.7 4.8 2.9-.3 1.3 1.5-.8 2.8 1.9.9 1.2 3-1.6 2.2-1 5.4 1.4 3.3.3 2.9 3.5 3 2.7.3.7-1.3 1.7-.2 2.6-1.1 1.8-1.7 3.1.5 1.4-.2-3.3-5.6-.7-3.5-1.8-.1-2.4-4.6 1.1-3.3-.3-1.5 3.5-1.6 1-5.7z" data-id="GY" data-name="Guyana"/><path id="HN" fill-rule="evenodd" d="M514.1 476.8l-1.3-1.8-1.9-1-1.5-1.4-1.6-1.2-.8-.1-2.5-.9-1.1.5-1.5.2-1.3-.4-1.7-.4-.8.7-1.8.7-2.6.2-2.5-.6-.9.4-.5-.6-1.6.1-1.3 1.1-.6-.2-2.8 2.4-2.8 1.8-.5 1.2.3 1.3-1.3 1.6 1.5.5 1.1 1.3 1.6 1 .1.9 2.5-.8 1.1.5.7.7-.6 2.5 1.7.6.7 2 1.8-.3.8-1.5h.8l.2-3.1 1.3-.2h1.2l1.4-1.7 1.5 1.3.6-.8 1.1-.7 2.1-1.8.3-1.3.5.1.8-1.5.6-.2.9.9 1.1.3 1.3-.8h1.4l2-.8.9-.9 1.9.2z" data-id="HN" data-name="Honduras"/><path id="HR" fill-rule="evenodd" d="M1065 280.4l-4-2.6-1.6-.8-3.9 1.7-.3 2.5-1.7.6.2 1.7-2-.1-1.8-1-.8 1-3.5-.2-.2.1v2.2l1.7 2 1.3-2.6 3.3 1 .3 2 2.5 2.6-1 .5 4.6 4.5 4.8 1.8 3.1 2.2 5 2.3h0l.5-1-4.7-2.4-2.2-2.5-2-1.4-2.5-2.3-1.3-1.9-2.7-2.9.9-2.5 1.9 1.4 1-1.3 2.3-.1 4.4 1 3.5-.1 2.4 1.4h0l1.7-2.3-1.7-1.8-1.5-2.4h0l-1.8.9-4.2-1.2z" data-id="HR" data-name="Croatia"/><path id="HT" fill-rule="evenodd" d="M580.6 446.7l-4.6-1-3.4-.2-1.4 1.7 3.4 1-.3 2.4 2.2 2.8-2.1 1.4-4.2-.5-5-.9-.7 2.1 2.8 1.9 2.7-1.1 3.3.4 2.7-.4 3.6 1.1.2-1.8-1.2-1.9 1.5-1.1.7-2.4-.2-3.5z" data-id="HT" data-name="Haiti"/><path id="HU" fill-rule="evenodd" d="M1079.1 263.8l-1.6.4-1 1.5-2.2.7-.6-.4-2.3 1-1.9.2-.3 1.2-4.1.8-1.9-.7-2.6-1.6-.2 2.6h-2.8l1.1 1.3-1.3 4 .8.1 1.2 2.1 1.6.8 4 2.6 4.2 1.2 1.8-.9h0l3.7-1.6 3.2.2 3.8-1.1 2.6-4.3 1.9-4.2 2.9-1.3-.6-1.6-2.9-1.7-1 .6-5.5-1.9z" data-id="HU" data-name="Hungary"/><path id="ID" fill-rule="evenodd" d="M1651.9 637.3l.5-1.7-1.8-1.9-2.8-2-5.3 1.3 7 4.4 2.4-.1zm20.9-.6l4-4.8.1-1.9-.5-1.3-5.7 2.6-2.8 3.9-.7 2.1.6.8 5-1.4zm-35.6-13l-1.6 2.2-3.1.1-2.2 3.6 3 .1 3.9-.9 6.6-1.2-1.2-2.8-3.5.6-1.9-1.7zm28.1 0l-5.2 2.3-3.8.5-3.4-1.9-4.5 1.3-.2 2.3 7.4.8 8.6-1.8 1.1-3.5zm-79.5-8.4l-.7-2.3-2.3-.5-4.4-2.4-6.8-.4-4.1 6.1 5.1.4.8 2.8 10 2.6 2.4-.8 4.1.6 6.3 2.4 5.2 1.2 5.8.5 5.1-.2 5.9 2.5 6.6-2.4-6.6-3.8-8.3-1.1-1.8-4.1-10.3-3.1-1.3 2.6-10.7-.6zm146.6-3.6l.2-3-1.2-1.9-1.3 2.2-1.2 2.2.3 4.8 3.2-4.3zm-41-17.5l-1.4-2.1-5.7.3 1 2.7 3.9 1.2 2.2-2.1zm18.1-2.4l-6.1-1.8-6.9.3-1.5 3.5 3.9.2 3.2-.4 4.6.5 4.7 2.6-1.9-4.9zm21-12.3l-.8-2.4-9-2.6-2.9 2.1-7.6 1.5 2.3 3.2 5 1.2 2.1 3.7 8.3.1.4 1.6-4-.1-6.2 2.3 4.2 3.1-.1 2.8 1.2 2.3 2.1-.5 1.8-3.1 8.2 5.9 4.6.5 10.6 5.4 2.3 5.3 1 6.9-3.7 1.8-2.8 5.2 7.1-.2 1.6-1.8 5.5 1.3 4.6 5.2 1.5-20.8 1-20.7-6-1.2-4.1-2.3-4.7-2.2h-5l-6.6 3.8-4.9 6.8-5.7-3.8-1.3-10.3zm-50-16.4l-1-1.4-5.5 4.6-6.5.3-7.1-.9-4.4-1.9-4.7 4.8-1.2 2.6-2.9 9.6-.9 5-2.4 4.2 1.6 4.3 2.3.1.6 6.1-1.9 5.9 2.3 1.9 3.6-1 .3-9.1-.2-7.4 3.8-1.9-.7 6.2 3.9 3.7-.8 2.5 1.3 1.7 5.6-2.4-3 5.2 2.1 2.2 3.1-1.9.3-4.1-4.7-7.4 1.1-2.2-5.1-8.1 5-2.5 2.6-3.7 2.4.9.5-2.9-10.5 2.1-3.1 2.9-5-5.6.9-4.8 4.9-1 9.3-.3 5.4 1.3 4.3-1.3 4.4-6.3zm19.4 1.9l-.6-2.6-3.3-.6-.5-3.5-1.8 2.3-1 5.1 1.7 8.2 2.2 4 1.6-.8-2.3-3.3.9-3.9 2.9.6.2-5.5zm-60.9-4.5l.9-2.9-4.3-6 3-5.8-5-1h-6.4l-1.7 7.2-2 2.2-2.7 8.9-4.5 1.3-5.4-1.8-2.7.6-3.2 3.2-3.6-.4-3.6 1.2-3.9-3.5-1-4.3-3.3 4.2-.6 5.9.8 5.6 2.6 5.4 2.8 1.8.7 8.5 4.6.8 3.6-.4 2 3.1 6.7-2.3 2.8 2 4 .4 2 3.9 6.5-2.9.8 2.3 2.5-9.7.3-6.4 5.5-4.3-.2-5.8 1.8-4.3 6.7-.8-6.5-5.9zm-68.7 48.9l.7-9.8 1.7-8-2.6-4-4.1-.5-1.9-3.6-.9-4.4-2-.2-3.2-2.2 2.3-5.2-4.3-2.9-3.3-5.3-4.8-4.4-5.7-.1-5.5-6.8-3.2-2.7-4.5-4.3-5.2-6.2-8.8-1.2-3.6-.3.6 3.2 6.1 7 4.4 3.6 3.1 5.5 5.1 4 2.2 4.9 1.7 5.5 4.9 5.3 4.1 8.9 2.7 4.8 4.1 5.2 2.2 3.8 7 5.2 4.5 5.3 6.2-.1z" data-id="ID" data-name="Indonesia"/><path id="IN" fill-rule="evenodd" d="M1414.1 380.1l-8.5-4.4-6.2-4-3.2-7 4.1.9-.6-3.3-3-3.3-.8-5.2-7.6-7.5-3.7 5.4-5.7 1-8.5-1.6-1.9 2.8 3.2 5.6 2.9 4.3 5 3.1-3.7 3.7 1 4.5-3.9 6.3-2.1 6.5-4.5 6.7-6.4-.5-4.9 6.6 4 2.9 1.3 4.9 3.5 3.2 1.8 5.5h-12l-3.2 4.2 7.1 5.4 1.9 2.5-2.4 2.3 8 7.7 4 .8 7.6-3.8 1.7 5.9.8 7.8 2.5 8.1 3.6 12.3 5.8 8.8 1.3 3.9 2 8 3.4 6.1 2.2 3 2.5 6.4 3.1 8.9 5.5 6 2.2-1.8 1.7-4.4 5-1.8-1.8-2.1 2.2-4.8 2.9-.3-.7-10.8 1.9-6.1-.7-5.3-1.9-8.2 1.2-4.9 2.5-.3 4.8-2.3 2.6-1.6-.3-2.9 5-4.2 3.7-4 5.3-7.5 7.4-4.2 2.4-3.8-.9-4.8 6.6-1.3 3.7.1.5-2.4-1.6-5.2-2.6-4.8.4-3.8-3.7-1.7.8-2.3 3.1-2.4-4.6-3.4 1.2-4.3 4.8 2.7 2.7.4 1.2 4.4 5.4.9 5-.1 3.4 1.1-1.6 5.3-2.4.4-1.1 3.6 3.5 3.3.2-4 1.5-.1 4.5 10.1 2.4-1.5-.9-2.7.9-2.1-.9-6.6 4.6 1.4 1.5-5.2-.3-3.1 2.1-5.4-.9-3.6 6.1-4.4 4.1 1.1-1.3-3.9 1.6-1.2-.9-2.4-6.1-.9 1.2-2.7-3.5-3.9-3.2 2.6-4.9-1.5-5.3 4-3.9 4.8-4.2.8 2.7 2 .4 3.9-4.4.2-4.7-.4-3.2 1-5.5-2.5-.3-1.2-1.5-5.1-3 1.4.1 2.7 1.5 4.1-.1 2.5-4.6.1-6.8-1.5-4.3-.6-3.8-3.2-7.6-.9-7.7-3.5-5.8-3.1-5.7-2.5.9-5.9 2.8-2.9z" data-id="IN" data-name="India"/><path id="IE" fill-rule="evenodd" d="M947.3 231.7l-3.5-1.3-2.9.1 1.1-3.2-.8-3.2-3.7 2.8-6.7 4.7 2.1 6.1-4.2 6.4 6.7.9 8.7-3.6 3.9-5.4-.7-4.3z" data-id="IE" data-name="Ireland"/><path id="IR" fill-rule="evenodd" d="M1213.5 324.4l-3.2-2.9-1.2-2.4-3.3 1.8 2.9 7.3-.7 2 3.7 5.2h0l4.7 7.8 3.7 1.9 1 3.8-2.3 2.2-.5 5 4.6 6.1 7 3.4 3.5 4.9-.2 4.6h1.7l.5 3.3 3.4 3.4 1.7-2.5 3.7 2.1 2.8-1 5.1 8.4 4.3 6.1 5.5 1.8 6.1 4.9 6.9 2.1 5.1-3.1 4-1.1 2.8 1.1 3.2 7.8 6.3.8 6.1 1.5 10.5 1.9 1.2-7.4 7.4-3.3-.9-2.9-2.7-1-1-5.7-5.6-2.7-2.8-3.9-3.2-3.3 3.9-5.8-1.1-4-4.3-1.1-1.1-4-2.7-5.1 1.6-3.5-2.5-.9.5-4.7.5-8-1.6-5.5-3.9-.2-7.3-5.7-4.3-.7-6.5-3.3-3.8-.6-2.1 1.2-3.5-.2-3 3.7-4.4 1.2-.2 1.6-7.9 1.7-7.6-1.1-4.3-3.3-5.2-1.3-2.5-4.8-1.3.3-3.8-3.4 1.2-3.1-1.9-1.9-1.9.5-5.3 4.7-1.8.2-3.7-.9z" data-id="IR" data-name="Iran"/><path id="IQ" fill-rule="evenodd" d="M1207.3 334.9l-6.2-.9-2.1 1-2.1 4.1-2.7 1.6 1.2 4.7-.9 7.8-11 6.7 3.1 7.7 6.7 1.7 8.5 4.5 16.7 12.7 10.2.5 3.2-6.1 3.7.5 3.2.4-3.4-3.4-.5-3.3h-1.7l.2-4.6-3.5-4.9-7-3.4-4.6-6.1.5-5 2.3-2.2-1-3.8-3.7-1.9-4.7-7.8h0l-2.3 1.1-2.1-1.6z" data-id="IQ" data-name="Iraq"/><path id="IS" fill-rule="evenodd" d="M915.7 158.6l-6.9-.4-7.3 2.9-5.1-1.5-6.9 3-5.9-3.8-6.5.8-3.6 3.7 8.7 1.3-.1 1.6-7.8 1.1 8.8 2.7-4.6 2.5 11.7 1.8 5.6.8 3.9-1 12.9-3.9 6.1-4.2-4.4-3.8 1.4-3.6z" data-id="IS" data-name="Iceland"/><path id="IL" fill-rule="evenodd" d="M1167.8 360.5l-1.4.1-.4 1.1h-1.8l-.1.1-.6 1.6-.6 4.8-1.1 2.9.4.4-1.4 2.1h0l3.9 9.2.7 1.7 1.7-10.2-.4-2.4-2.4.8.1-1.7 1.2-.8-1.4-.7.7-4.3 2 .9.7-2h-.1l.6-1-.3-2.6z" data-id="IL" data-name="Israel"/><path id="IT" fill-rule="evenodd" d="M1057.8 328.6l-4 .5-5.2.7-6.2-.6-.6 3.4 7.5 3.3 2.7.7 4.2 2.4.9-3.3-.9-2 1.6-5.1zm-33.7-18.9l-2.5 1.9-2.8-.3 1.3 3.6.4 7.6 2.1 1.7 2-2.1 2.4.4.4-8.4-3.3-4.4zm14.3-34.3l-1.3-2.2-4.8 1.1-.5 1.2-3.1-.9-.3 2.5-2.1 1.1-3.8-.8-.9 2.5-2.4.2-.9-1-2.7 2.1-2.4.3-2.2-1.3-.2 1.7 1.6 2.4-1.7 1.8 1.5 4.8 2.7.8-.5 2.7 2.1-.5 2.8-2.8 2.3-.9 4.2 2.1 2.6.7 1.9 6 3.6 3.6 4.9 4 4.2 2.8 3.9.4 2.3 2.5 3.4 1.2 1.7 2.7 2.2.8 1.8 3.2 2.3 3.7-1.1 1.3-.8 3.5.1 2 2.1-.5 2.5-5.6 2.1-.4.4-3.3-3.9-2.3 1.9-4.1 4.5 1 3.1 3 .8-2.3-.6-1.2-4.7-3.2-3.9-1.9-4.8-2.3 1.4-1.2-1.4-1.4-4 .1-6-5-2.9-5.1-4.9-3.1-1.9-3.1.5-1.8-.4-3 3.9-2.2 4.1.9-1.4-2.7.3-3-7.2-1.6z" data-id="IT" data-name="Italy"/><path id="JM" fill-rule="evenodd" d="M550.7 458.5l3.9-.1-.8-1.8-2.7-1.5-3.7-.6-1.2-.2-2.4.4-.8 1.5 2.9 2.3 3 1 1.8-1z" data-id="JM" data-name="Jamaica"/><path id="JO" fill-rule="evenodd" d="M1186.6 367.6l-3.1-7.7-9.6 6.7-6.3-2.5-.7 2 .4 3.9-.6 1.9.4 2.4-1.7 10.2.3.9 6.1 1 2.1-2 1.1-2.3 4-.8.7-2.2 1.7-1-6.1-6.4 10.4-3.1.9-1z" data-id="JO" data-name="Jordan"/><path id="JP" fill-rule="evenodd" d="M1692.5 354.9l-4.5-1.3-1.1 2.7-3.3-.8-1.3 3.8 1.2 3 4.2 1.8-.1-3.7 2.1-1.5 3.1 2.1 1.3-3.9-1.6-2.2zm24.4-19.3l-3.6-6.7 1.3-6.4-2.8-5.2-8.1-8.7-4.8 1.2.2 3.9 5.1 7.1 1 7.9-1.7 2.5-4.5 6.5-5-3.1v11.5l-6.3-1.3-9.6 1.9-1.9 4.4-3.9 3.3-1.1 4-4.3 2 4 4.3 4.1 1.9.9 5.7 3.5 2.5 2.5-2.7-.8-10.8-7.3-4.7 6.1-.1 5-3 8.6-1.4 2.4 4.8 4.6 2.4 4.4-7.3 9.1-.4 5.4-3 .6-4.6-2.5-3.2-.6-5.2zm-11.8-44.2l-5.3-2.1-10.4-6.4 1.9 4.8 4.3 8.5-5.2.4.6 4.7 4.6 6.1h5.7l-1.6-6.8 10.8 4.2.4-6.1 6.4-1.7-6-6.9-1.7 2.6-4.5-1.3z" data-id="JP" data-name="Japan"/><path id="KZ" fill-rule="evenodd" d="M1308.8 223.8l-9-1.3-3.1 2.5-10.8 2.2-1.7 1.5-16.8 2.1-1.4 2.1 5 4.1-3.9 1.6 1.5 1.7-3.6 2.9 9.4 4.2-.2 3-6.9-.3-.8 1.8-7.3-3.2-7.6.2-4.3 2.5-6.6-2.4-11.9-4.3-7.5.2-8.1 6.6.7 4.6-6-3.6-2.1 6.8 1.7 1.2-1.7 4.7 5.3 4.3 3.6-.2 4.2 4.1.2 3.2 2.8 1 4.4-1.3 5-2.7 4.7 1.5 4.9-.3 1.9 3.9.6 6-4.6-.9-4 1 .9 4.5-5-.6.6 2 3.2 1.6 3.7 5.5 6.4 2.1 1.5 2.1-.7 2.6.7 1.5 1.8-2 5.5-1.3 3.8 1.7 4.9 4.9 2.5-.3-6.2-22.8 11.9-3.6 1.1.5 9.1 4.5 4.8 2.3 6.5 5.5 5.7-.9 8.6-.5 7.5 4.5 1.5 6.2 2.5.1 2.6 5 6.6.2 2.3 3h1.9l.9-4.5 5.4-4.3 2.5-1.2.3-2.7 3.1-.8 9.1 2.1-.5-3.6 2.5-1.3 8.1 2.6 1.6-.7 8.6.2 7.8.6 3.3 2.2 3.5.9-1.7-3.5 2.9-1.6-8.7-10.7 9-2.4 2-1.4-1-11.1 10.7 2 1.6-2.8-2.5-6.2 3.8-.6 1.8-4.2-4.3-3.8-6 .9-3.3-2.6-3.9-1.2-4.1-3.6-3.2-1.1-6.2 1.6-8.3-3.6-1.1 3.3-18.1-15.5-8.3-4.7.8-1.9-9.1 5.7-4.4.4-1.2-3.3-7-2.1-4.3 1.5-4.3-6.3z" data-id="KZ" data-name="Kazakhstan"/><path id="KE" fill-rule="evenodd" d="M1211.7 547.2h-3.8l-2.3-2.1-5.1 2.6-1.6 2.7-3.8-.5-1.2-.7-1.3.1h-1.8l-7.2-5.4h-3.9l-2-2.1v-3.6l-2.9-1.1-3.8 4.2-3.4 3.8 2.7 4.4.7 3.2 2.6 7.3-2.1 4.7-2.7 4.2-1.6 2.6v.3l1.4 2.4-.4 4.7 20.2 13 .4 3.7 8 6.3 2.2-2.1 1.2-4.2 1.8-2.6.9-4.5 2.1-.4 1.4-2.7 4-2.5-3.3-5.3-.2-23.2 4.8-7.2z" data-id="KE" data-name="Kenya"/><path id="KG" fill-rule="evenodd" d="M1387.2 302.6l-3.5-.9-3.3-2.2-7.8-.6-8.6-.2-1.6.7-8.1-2.6-2.5 1.3.5 3.6-9.1-2.1-3.1.8-.3 2.7 1.8.6-3.1 4.1 4.6 2.3 3.2-1.6 7.1 3.3-5.2 4.5-4.1-.6-1.4 2-5.9-1.1.6 3.7 5.4-.5 7.1 2 9.5-.9 1-1.5-1.1-1.5 4-3 3.2-1.2 5.7.9.6-4 6.4-.8 1-2.4 6.8-3.4.2-1.4z" data-id="KG" data-name="Kyrgyzstan"/><path id="KH" fill-rule="evenodd" d="M1574.8 481.8l-5.2-2.3-2 4.3-4.9-2.4-5.3-1-7.1 1.3-3 5.2 2.1 7.7 3.4 6.6 2.6 3.3 4.7.9 4.7-2.5 5.8-.5-2.8-3.8 8.9-4.9-.1-7.7-1.8-4.2z" data-id="KH" data-name="Cambodia"/><path id="KR" fill-rule="evenodd" d="M1637.3 331.7l6.2 5.5-3.4 1.1 5.2 6.8 1.1 4.8 2.1 3.5 4.5-.5 3.2-2.7 4.2-1.2.5-3.6-3.4-7.5-3.3-4.2-8.2-7.6.1 1.6-2.1.4-3.5.3-.7 2.9-2.4-.2-.1.6z" data-id="KR" data-name="Korea"/><path id="KW" fill-rule="evenodd" d="M1235.6 381.4l-3.7-.5-3.2 6.1 4.9.6 1.7 3.1 3.8-.2-2.4-4.8.3-1.5-1.4-2.8z" data-id="KW" data-name="Kuwait"/><path id="LA" fill-rule="evenodd" d="M1574.8 481.8l.2-6.4-2-4.5-4.8-4.4-4.3-5.6-5.7-7.5-7.3-3.8 1.3-2.3 3.3-1.7-3-5.5-6.8-.1-3.4-5.7-4-5.1-2.7 1 1.9 7.2-2.9-.1-.7-1.5-4.1 4.1-.8 2.4 2.6 1.9.9 3.8 3.8.3-.4 6.7 1 5.7 5.3-3.8 1.8 1.2 3.2-.2.8-2.2 4.3.4 4.9 5.2 1.3 6.3 5.2 5.5.5 5.4-1.5 2.9 4.9 2.4 2-4.3 5.2 2.3z" data-id="LA" data-name="Lao PDR"/><path id="LB" fill-rule="evenodd" d="M1167.8 360.5l.9-3.5 2.6-2.4-1.2-2.5-2.4-.3-.1.2-2.1 4.5-1.3 5.2h1.8l.4-1.1 1.4-.1z" data-id="LB" data-name="Lebanon"/><path id="LR" fill-rule="evenodd" d="M929.4 523.3l-1.6-.2-1.1 2.6-1.6-.1-1.1-1.3.4-2.6-2.3-3.9-1.5.7-1.2.2-2.6 3-2.6 3.4-.3 1.9-1.3 2 3.7 4.1 4.8 3.5 5.1 4.8 5.7 3.1 1.5-.1.5-5.2.5-.8-.2-2.5-2.3-2.7-1.8-.4-1.6-1.8 1.2-2.8-.6-3.1.3-1.8z" data-id="LR" data-name="Liberia"/><path id="LY" fill-rule="evenodd" d="M1111.8 371.4l-1.5-2.1-5.4-.8-1.8-1.1h-2l-2-2.8-7.3-1.3-3.6.8-3.7 3-1.5 3.1 1.5 4.8-2.4 3-2.5 1.6-5.9-3.1-7.7-2.7-4.9-1.2-2.8-5.7-7.2-2.8-4.5-1.1-2.2.6-6.4-2.2-.1 4.9-2.6 1.8-1.5 2-3.7 2.5.7 2.6-.4 2.7-2.6 1.4 1.9 5.6.4 3-.9 5.2.5 2.9-.6 3.5.5 4-2.1 2.6 3.4 4.7.2 2.7 2 3.6 2.6-1.2 4.3 2.9 2.5 4 8.8 2.8 3.1 3.5 3.9-2.4 5.4-3.5 22.3 12.2 22.4 12.2v-2.7h6.3l-.5-12.7-1-23.4-1.3-22.7-2-5.1 1.2-3.9-1.1-2.7 1.8-3z" data-id="LY" data-name="Libya"/><path id="LK" fill-rule="evenodd" d="M1432.2 532.7l2.3-1.8.6-6.6-3-6.6-2.9-4.5-4.1-3.5-1.9 10.3 1.4 9.1 2.8 5.1 4.8-1.5z" data-id="LK" data-name="Sri Lanka"/><path id="LS" fill-rule="evenodd" d="M1128.1 766.5l1.1-2 3.1-1 1.1-2.1 1.9-3.1-1.7-1.9-2.3-2-2.6 1.3-3.1 2.5-3.2 4 3.7 4.9 2-.6z" data-id="LS" data-name="Lesotho"/><path id="LT" fill-rule="evenodd" d="M1100.4 221.2l-5-2.9-2.5-.4-.9-1.3-4.4.6-7.9-.4-5 1.9 1.7 5 5 1.1 2.2.9-.2 1.7.6 1.5 2.5.6 1.4 1.9h4.6l4.8-2.2.5-3.4 3.5-2-.9-2.6z" data-id="LT" data-name="Lithuania"/><path id="LU" fill-rule="evenodd" d="M1007 258.6l.2-2.7-1-1.4-1.3.2-.4 3.5 1.1.5 1.4-.1z" data-id="LU" data-name="Luxembourg"/><path id="LV" fill-rule="evenodd" d="M1102.1 210.1h-3.8l-4.4-2.2-2.1-.7-3.7 1-.2 4.6-3.6.1-4.4-4.5-4 2.1-1.7 3.7.5 4.5 5-1.9 7.9.4 4.4-.6.9 1.3 2.5.4 5 2.9 2.6-1 4.6-2.3-2.1-3.6-1-2.8-2.4-1.4z" data-id="LV" data-name="Latvia"/><path id="MA" fill-rule="evenodd" d="M965.2 348.4l-2.3-.1-5.5-1.4-5 .4-3.1-2.7h-3.9l-1.8 3.9-3.7 6.7-4 2.6-5.4 2.9-3.5 4.3-.9 3.4-2.1 5.4 1.1 7.9-4.7 5.3-2.7 1.7-4.4 4.4-5.1.7-2.8 2.4-.1.1-3.6 6.5-3.7 2.3-2.1 4-.2 3.3-1.6 3.8-1.9 1-3.1 4-2 4.5.3 2.2-1.9 3.3-2.2 1.7-.3 3h.1l12.4-.5.7-2.3 2.3-2.9 2-8.8 7.8-6.8 2.8-8.1 1.7-.4 1.9-5 4.6-.7 1.9.9h2.5l1.8-1.5 3.4-.2-.1-3.4h.8l.1-7.5 8.9-4.7 5.4-1 4.4-1.7 2.1-3.2 6.3-2.5.3-4.7 3.1-.5 2.5-2.4 7-1 1-2.5-1.4-1.4-1.8-6.7-.3-3.9-2-4.1z" data-id="MA" data-name="Morocco"/><path id="MD" fill-rule="evenodd" d="M1118.5 283.3l1.2-.7.5-2.1 1.1-2-.5-1.1 1-.5.6.9 3 .2 1.2-.5-1-.6.2-1-2-1.5-1.1-2.6-1.9-1.1v-2.1l-2.5-1.6-2-.3-3.9-1.9-3.2.6-1.1.9 1.6.6 1.8 1.9 1.9 2.6 3.4 3.7.6 2.7-.2 2.7 1.3 2.8z" data-id="MD" data-name="Moldova"/><path id="MG" fill-rule="evenodd" d="M1255.7 658.4l-1.1-4.2-1.4-2.7-1.8-2.7-2 2.8-.3 3.8-3.3 4.5-2.3-.8.6 2.7-1.8 3.2-4.8 3.9-3.4 3.7h-2.4l-2.2 1.2-3.1 1.3-2.8.2-1 4.1-2.2 3.5.1 5.9.8 4 1.1 3-.8 4.1-2.9 4.8-.2 2.1-2.6 1.1-1.3 4.6.2 4.6 1.6 5-.1 5.7 1.2 3.3 4.2 2.3 3 1.7 5-2.7 4.6-1.5 3.1-7.4 2.8-8.9 4.3-12 3.3-8.8 2.7-7.4.8-5.4 1.6-1.5.7-2.7-.8-4.7 1.2-1.9 1.6 3.8 1.1-1.9.8-3.1-1.3-2.9-.5-7.7z" data-id="MG" data-name="Madagascar"/><path id="MX" fill-rule="evenodd" d="M444.4 407.8l-3.6-1.4-3.9-2-.8-3-.2-4.5-2.4-3.6-1-3.7-1.6-4.4-3.1-2.5-4.4.1-4.8 5-4-1.9-2.2-1.9-.4-3.5-.8-3.3-2.4-2.8-2.1-2-1.3-2.2h-9.3l-.8 2.6h-15l-10.7-4.4-7.1-3.1 1-1.3-7 .7-6.3.5.2 5.7.7 5.1.7 4.1.8 4 2.6 1.8 2.9 4.5-1 2.9-2.7 2.3-2.1-.3-.6.5 2.3 3.7 2.9 1.5 1 1.7.9-.9 3.1 2.9 2.1 2 .1 3.4-1.2 4.7 2.5 1.6 3.3 3.1 2.9 3.6.7 3.9h1l2.7-2.3.4-1.2-1.5-2.8-1.6-2.9-2.6-.2.4-3.4-.9-3-1-2.8-.5-5.9-2.6-3.2-.6-2.3-1.2-1.6v-4.1l-1 .1-.1-2.2-.7-.5-.4-1.4-2.7-4.4-1.1-2.6 1-4.8.1-3 1.8-2.6 2.4 1.7 1.9-.2 3.1 2.5-.9 2.4.4 4.9 1.5 4.7-.4 2 1.7 3.1 2.3 3.4 2.7.5.3 4.4 2.4 3.1 2.5 1.5-1.8 4 .7 1.5 4.1 2.6 1.9 4 4.5 4.9 3.8 6.4 1.3 3.2v2.5l1.4 2.9-.3 2.2-1.6 1.6.3 1.8-1.9.7.8 3.1 2.2 4 5.3 3.6 1.9 2.9 5.4 2 3 .4 1.2 1.7 4.2 3 5.9 3 4 .9 4.8 2.9 4 1.2 3.7 1.7 2.9-.7 4.8-2.4 3.1-.4 4.4 1.6 2.6 2.1 5.5 6.9.4-1.9.8-1.5-.7-1.2 3.3-5.2h7.1l.4-2.1-.8-.4-.5-1.4-1.9-1.5-1.8-2.1h2.6l.4-3.6h5.2l5.1.1.1-1 .7-.3.9.8 2.5-3.9h1l1.2-.1 1.2 1.6 2-5 1.2-2.7-.9-1.1 1.8-3.9 3.5-3.8.6-3.1-1.2-1.3-3.4.5-4.8-.2-6 1.5-4 1.7-1.2 1.8-1.2 5.4-1.8 3.7-3.9 2.6-3.6 1.1-4.3 1.1-4.3.6-5.1 1.8-1.9-2.6-5.6-1.7-1.8-3.2-.7-3.6-3-4.7-.4-5-1.2-3.1-.5-3.4 1.1-3.1 1.8-8.6 1.8-4.5 3.1-5.6-2.1.2z" data-id="MX" data-name="Mexico"/><path id="MK" fill-rule="evenodd" d="M1094 304.8l-2.8-2-2.4.1-1.7.4-1.1.2-2.9 1-.1 1.2h-.7 0l-.4 2.1.9 2.6 2.3 1.6 3.3-.6 1.9-1.3 2.8.1.7-1.1 1-.2-.8-4.1z" data-id="MK" data-name="Macedonia"/><path id="ML" fill-rule="evenodd" d="M1000.3 450.3l-6.1.6-.1-4-2.6-1.1-3.4-1.8-1.3-3-18.6-13.8-18.4-13.9-8.4.1 2.4 27.4 2.4 27.5 1 .8-1.3 4.4-22.3.1-.9 1.4-2.1-.4-3.2 1.3-3.8-1.8-1.8.2-1 3.7-1.9 1.2.2 3.9 1.1 3.7 2.1 1.8.4 2.4-.3 2 .3 2.3h.9l1.5-.8.9.2 1.5 1.6 2.4.5 1.6-1.4 1.8-.8 1.3-.9 1.1.2 1.3 1.4.6 1.7 2.3 2.7-1.2 1.6-.2 2.1 1.2-.6.7.7-.3 1.9 1.7 1.8.7-.6 1.6 1 4.3.1 1-1.9 1 .1 1.6-.7.9 2.7 1.3-.8 2.3-.9-.4-3.7 1.6-2.7-.2-2.2 4.5-5.2.8-4.4 1.6-1.6 2.7.9 2.3-1.3.8-1.6 4.3-2.9 1.1-2 5.2-2.6 3-.9 1.4 1.2h3.6l3.6-.3 2-2.2 7.6-.6 4.9-1 .5-3.9 3-4.3-.1-14.6z" data-id="ML" data-name="Mali"/><path id="MM" fill-rule="evenodd" d="M1533.9 435.8l-.6-2.6-3.8 1.8-2.5-1.2-4.5-2.4.8-5.2-3.7-1.3-2.3-5.8-5.6 1-.7-7.5 4.1-5.3-.8-5.3-1.3-4.9-2.7-1.5-2.7-3.7-3 .4.9 2.4-1.6 1.2 1.3 3.9-4.1-1.1-6.1 4.4.9 3.6-2.1 5.4.3 3.1-1.5 5.2-4.6-1.4.9 6.6-.9 2.1.9 2.7-2.4 1.5.5 4.6-2.1-1 1.1 5.1 4.6 5.2 3.4.9-.4 2.2 5.4 7.4 1.9 5.9-.9 7.9 3.6 1.5 3.2.6 5.8-4.6 3.2-3.1 3.1 5.2 2 8.1 2.6 7.6 2.6 3.3.2 6.9 2.2 3.8-1.3 4.8.9 4.8 2.2-6.6 2.6-5.9-2.8-5.8-.2-3-1-3.5-4.2-5.1-1.7-3.2 1.7-1.1 1.4-5.6-2.9-4.2-4.1-4.6-3.5-5.6 2.2-1.1 1.5-6.9 3.9-.3 2.8-2.8 3-1.4.8-2.4 4.1-4.1z" data-id="MM" data-name="Myanmar"/><path id="ME" fill-rule="evenodd" d="M1080 299.8l.4-.6-2-1.2-1.8-.7-.8-.8-1.5-1.1-.9.6-1.5 1.4-.4 3.4-.5 1h0l2.3 1.2 1.6 2.1 1.1.4h0l-.5-1.9 2-3.1.4 1.2 1.3-.5.8-1.4z" data-id="ME" data-name="Montenegro"/><path id="MN" fill-rule="evenodd" d="M1473.7 252.1l-3.7-4.6-6.6-1.5-4.8-.8-6.9-2.5-1.3 6.4 4 3.6-2.4 4.3-7.9-1.6-5-.2-4.7-2.9-5.1-.1-5.3-1.9-5.9 2.9-6.6 5.4-4.7 1 3.3 4.4 5.7 3.3 8.1 2.3 5.8 5 1.3 7.3 3 2.7 6.4 1 7.2.9 7.9 3.8 3.4.7 4.9 5.7 4.7 3.6 5.5-.1 11.2 1.3 6.4-.8 5.5.9 9.3 3.8 6.2-.1 3.2 2 4.4-3.3 7.2-2.2 7.5-.2 4.9-2.2 1.9-3.3 2.5-2-1.9-2.1-2.9-2.3.4-4 3.2.5 5.9 1.3 3.1-3.3 6.3-2.4 1.4-4.1 2.4-1.8 6.8-.8 4.3.7-.7-2.2-7.2-4.3-5.1-2-2.5 2.3-5.4-1-2.4.8-2.7-2.6-.3-6.2-.6-4.6-5.5.5-3.9-2.1-3.3-.7-4.5 4.4-5.8 1-3.6 1.6-6.7-1h-4.5l-4.9-3.1-6.5-3-5.4-.8-5.7.8-3.9 1.1-8.4-2.6z" data-id="MN" data-name="Mongolia"/><path id="MZ" fill-rule="evenodd" d="M1203 640.7l-.8-2.9h0l-4.6 3.7-6.2 2.5-3.3-.1-2.1 1.9-3.9.1-1.4.8-6.7-1.8-2.1.3-1.6 6 .7 7.3h.3l1.9 2 2.2 4.6.1 8.2-2.5 1.3-1.9 4.5-3.4-4-.2-4.5 1.3-2.9-.3-2.6-2.1-1.6-1.6.6-3-3-17.1 5.2.3 4.5.3 2.4 4.6-.1 2.6 1.3 1.1 1.6 2.6.5 2.8 2-.3 8.1-1.3 4.4-.5 4.7.8 1.9-.8 3.7-.9.6-1.6 4.6-6.2 7.2 2.2 9 1.1 4.5-1.4 7.1.4 2.3.6 2.9.3 2.8h4.1l.7-3.3-1.4-.5-.3-2.6 2.6-2.4 6.8-3.4 4.6-2.2 2.5-2.3.9-2.6-1.2-1.1 1.1-3 .5-6.2-1 .3v-1.9l-.8-3.7-2.4-4.8.7-4.6 2.3-1.4 4.1-4.6 2.2-1.1 6.7-6.8 6.4-3.1 5.2-2.5 3.7-3.9 2.4-4.4 1.9-4.6-.9-3.1.2-9.9-.4-5.6.4-6.3z" data-id="MZ" data-name="Mozambique"/><path id="MR" fill-rule="evenodd" d="M949.8 413.3l-20.3-15.5-.2 9.7-17.9-.3-.2 16.3-5.2.5-1.4 3.3.9 9.2-21.6-.1-1.2 2.2 2.8 2.7 1.4 3-.7 3.2.6 3.2.5 6.3-.8 5.9-1.7 3.2.4 3.4 2-2 2.7.5 2.8-1.4h3.1l2.6 1.8 3.7 1.7 3.2 4.7 3.6 4.4 1.9-1.2 1-3.7 1.8-.2 3.8 1.8 3.2-1.3 2.1.4.9-1.4 22.3-.1 1.3-4.4-1-.8-2.4-27.5-2.4-27.4 8.4-.1z" data-id="MR" data-name="Mauritania"/><path id="MW" fill-rule="evenodd" d="M1169.2 661.5l.1-2.3-1.2-1.9.1-2.8-1.5-4.7 1.7-3.5-.1-7.7-1.9-4.1.2-.7h0l-1.1-1.7-5.4-1.2 2.6 2.8 1.2 5.4-1 1.8-1.2 5.1.9 5.3-1.8 2.2-1.9 5.9 2.9 1.7 3 3 1.6-.6 2.1 1.6.3 2.6-1.3 2.9.2 4.5 3.4 4 1.9-4.5 2.5-1.3-.1-8.2-2.2-4.6-1.9-2h-.3v.8l1.1.3 1 3.4-.2.8-1.9-2.5-1 1.6-.8-1.4z" data-id="MW" data-name="Malawi"/><path id="MY" fill-rule="evenodd" d="M1543.6 532.7l-4.7-2.8-.9 1.1 1.4 2.7-.4 4.7 2.1 3.4 1 5.3 3.4 4.3.8 3.2 6.7 5 5.4 4.8 4-.5.1-2.1-2.3-5.6-2.1-1.8-.5-3.8-.6-2.1.5-2.9-.5-4.3-2.6-4.3-3.5-3.8-1.3-.6-1.7 2.6-3.7.8-.6-3.3zm99 11l-1.2-3.1 3.8-.4.3-2.4-4.8-2-3.8-1.7-.4-2.8-3.1-3.2h-2.3l-2.5 5-4.1 4.4-.1 3.1-.1 4.1-2.7-.2-1.1 2.2-2.7-3.3-2.6 4-3.8 5-6.7 1.4-2.4 1.2-.9 5.4-4.4 1.2-4.1-2.2 1 4.3 3.9 3.5 3.6-1.2 3.6.4 3.2-3.2 2.7-.6 5.4 1.8 4.5-1.3 2.7-8.9 2-2.2 1.7-7.2h6.4l5 1 4-2.1z" data-id="MY" data-name="Malaysia"/><path id="NA" fill-rule="evenodd" d="M1105.4 683.7l-10.3 2.5-13.4-.9-3.7-3-22.5.3-.9.4-3.2-2.9-3.6-.1-3.3 1-2.7 1.2.2 4.9 4.4 6.2 1.1 4 2.8 7.7 2.7 5.2 2.1 2.6.6 3.5v7.6l1.6 9.8 1.2 4.6 1 6.2 1.9 4.7 3.9 4.8 2.7-3.2 2.1 1.8.8 2.7 2.4.5 3.3 1.2 2.9-.5 5-3.2 1.1-23.6.6-18.5 5.4-.2.9-22.7 4.1-.2 8.6-2.2 2 2.6 3.7-2.5h1.6l3.2-1.5v-.5l-2.1-1.4-3.6-.4-4.6 1.5z" data-id="NA" data-name="Namibia"/><path id="NE" fill-rule="evenodd" d="M1051.3 425.6l-8.8-2.8-18.6 12.2-15.8 12.5-7.8 2.8.1 14.6-3 4.3-.5 3.9-4.9 1-7.6.6-2 2.2-3.6.3-.5 3.1.8 2.9 3.1 4.1.2 3.1 6.4 1.4-.1 4.4 1.9-1.9h2l4.3 3.7.3-5.7 1.6-2.6.8-3.6 1.4-1.4 6-.8 5.6 2.4 2.1 2.4 2.9.1 2.6-1.5 6.8 3.3 2.8-.2 3.3-2.7 3.3.2 1.6-.9 3 .4 4.3 1.8 4.3-3.5 1.3.2 3.9 7 1-.2.2-2 1.6-.4.5-2.9-3.6-.2v-4.1l-2.4-2.3 2.3-8.4 6.9-6 .2-8.3 1.8-12.9 1.1-2.7-2.3-2.2-.2-2.1-2-1.6-1.6-9.9-3.9 2.4-3.1-3.5z" data-id="NE" data-name="Niger"/><path id="NG" fill-rule="evenodd" d="M1055.8 492.7l-1 .2-3.9-7-1.3-.2-4.3 3.5-4.3-1.8-3-.4-1.6.9-3.3-.2-3.3 2.7-2.8.2-6.8-3.3-2.6 1.5-2.9-.1-2.1-2.4-5.6-2.4-6 .8-1.4 1.4-.8 3.6-1.6 2.6-.3 5.7-.2 2.1 1.2 3.8-1.1 2.5.6 1.7-2.7 4-1.7 1.9-1 4 .1 4.1-.3 10.2h9.2l3.9 4.2 1.9 4.6 3 3.9 4.5.2 2.2-1.4 2.1.3 5.8-2.3 1.4-4.5 2.7-6.1 1.6-.1 3.3-3.7 2.1-.1 3.2 2.6 3.9-2.2.5-2.6 1.2-2.6.8-3.2 3-2.6 1.1-4.5 1.2-1.4.7-3.3 1.5-4 4.6-5 .3-2.1.6-1.1-2.3-2.6z" data-id="NG" data-name="Nigeria"/><path id="NI" fill-rule="evenodd" d="M514.1 476.8l-1.9-.2-.9.9-2 .8h-1.4l-1.3.8-1.1-.3-.9-.9-.6.2-.8 1.5-.5-.1-.3 1.3-2.1 1.8-1.1.7-.6.8-1.5-1.3-1.4 1.7h-1.2l-1.3.2-.2 3.1h-.8l-.8 1.5-1.8.3-.4.4-.9-1-.7 1 2.6 2.9 2.2 2 1 2.1 2.5 2.6 1.8 2 .9-.8 3.5 1.7 1.4-.8 1.7.5.8 1.3 1.7.4 1.4-1.3-.8-1.1-.1-1.7 1.2-1.6-.2-1.7.7-2.7.9-.7.1-2.8-.2-1.7.4-2.8.9-2.5 1.4-2.2-.3-2.3.4-1.4.6-.6z" data-id="NI" data-name="Nicaragua"/><path id="NL" fill-rule="evenodd" d="M1005.5 243.9h2.9l1.1-2.3 1-5.6-1-2-3.9-.2-6.5 2.6-3.9 8.9-2.5 1.7h0l3.6.5 4.4-1.3 3.1 2.7 2.8 1.4-1.1-6.4z" data-id="NL" data-name="Netherlands"/><path id="NO" fill-rule="evenodd" d="M1088.8 133.1l-6.9 1.1-7.3-.3-5.1 4.4-6.7-.3-8.5 2.3-10.1 6.8-6.4 4-8.8 10.7-7.1 7.8-8.1 5.8-11.2 4.8-3.9 3.6 1.9 13.4 1.9 6.3 6.4 3 6-1.4 8.5-6.8 3.3 3.6 1.7-3.3 3.4-4 .9-6.9-3.1-2.9-1-7.6 2.3-5.3 4.3.1 1.3-2.2-1.8-1.9 5.7-7.9 3.4-6.1 2.2-3.9 4 .1.6-3.1 7.9.9v-3.5l2.5-.3 2.1-1.4 5.1 2.9 5.3-.3 4.7 1.3 3.4-2.4 1.1-3.9 5.8-1.8 5.7 2.1-.8 3.8 3.2-.5 6.4-2.2h0l-5.4-3.3 4.8-1.4-13.6-3.9zm-22.6-33.3l-5.6-1-1.9-1.7-7.2.9 2.6 1.5-2.2 1.2 6.7 1.1 7.6-2zm-25.4-8.3l-4.8-1.6-5.1.2-1 1.5h-5l-2.2-1.5-9.3 1.6 3.2 3.5 7.6 3.8 5.7 1.4-3 1.7 8.4 2.9 4.4-.2.9-3.9 3-.9 1.2-3.4 8.5-1.8-12.5-3.3zm24.2-3.1l-9.1-1-3.2 1.2-5.3-1-10.4 1.2 4.3 2h5.1l.9 1.3 10.6.7 10.1-.5 4.3-2.4-7.3-1.5z" data-id="NO" data-name="Norway"/><path id="NP" fill-rule="evenodd" d="M1455.2 394.8l-6.5-.6-6.4-1.5-5-2.8-4.5-1.2-2.5-3.1-3.2-.9-6.4-4.1-4.7-2-1.9 1.5-2.8 2.9-.9 5.9 5.7 2.5 5.8 3.1 7.7 3.5 7.6.9 3.8 3.2 4.3.6 6.8 1.5 4.6-.1.1-2.5-1.5-4.1-.1-2.7z" data-id="NP" data-name="Nepal"/><path id="NZ" fill-rule="evenodd" d="M1868.6 832.8l.9-2.6-5.8 2.9-3.4 3.4-3.2 1.6-5.9 4.6-5.6 3.2-7 3.2-5.5 2.4-4.3 1.1-11.3 6.1-6.4 4.6-1.1 2.3 5.1.4 1.5 2.1 4.5.1 4-1.8 6.3-2.8 8.1-6.2 4.7-4.1 6.2-2.3 4-.1.6-2.9 4.6-2.5 7-4.5 4.2-2.9 2.1-2.6.5-2.6-5.6 2.5.8-2.6zm28.8-30.5l1.9-5.7-3.1-1.7-.8-3.6-2.3.5-.4 4.6.8 5.7.9 2.7-.9 1.1-.6 4.4-2.4 4.1-4.2 5-5.3 2.2-1.7 2.4 3.7 2.5-.8 3.5-6.9 5.1 1.4.9-.4 1.6 5.9-2.5 5.9-4.2 4.5-3.4 1.6-1.2 1.5-2.7 2.8-2 3.8.2 4.2-3.8 5.1-5.7-2.1-.8-4.6 2.5-3.2-.5-2.9-2.1 2.3-4.9-1.2-1.8-2.9 4.4.4-6.8z" data-id="NZ" data-name="New Zealand"/><path id="OM" fill-rule="evenodd" d="M1301 437.8l2.1-2 .8-1.8 1.6-3.8-.1-1.4-2.1-.8-1.6-2.1-2.9-3.7-3.3-1.1-4.1-.9-3.3-2.3-2.9-4.3h-2.8l-.1 4.2 1.1.8-2.4 1.3.3 2.6-1.4 2.6.1 2.6 2.9 4.5-2.6 12.7-16.1 6.4 5.2 10.5 2.1 4.4 2.5-.3 3.6-2.2 3.1.6 2.5-1.8-.2-2.5 2.1-1.6h3.4l1.2-1.3.2-3.1 3.3-2.4h2.6l.4-.8-1-4.2.6-3.2 1-1.5 2.5.3 1.7-4.4zm-16.6-30.4l.2-2.6-.7-.6-1.3 2.2 1.3 2.2.5-1.2z" data-id="OM" data-name="Oman"/><path id="PK" fill-rule="evenodd" d="M1388.3 346.3l-9.4-2.6-2.9-5-4.7-3-2.8.7-2.4 1.2-5.8.8-5.3 1.3-2.4 2.8 1.9 2.8 1.4 3.2-2 2.7.8 2.5-.9 2.3-5.1-.2 3 4.2-3 1.6-1.5 3.8 1.1 3.8-1.7 1.8-2.1-.6-4 .9-.2 1.7h-4l-2.3 3.6.8 5.4-6.6 2.6-3.8-.5-.9 1.4-3.3-.8-5.3.9-9.6-3.2 3.2 3.3 2.8 3.9 5.6 2.7 1 5.7 2.7 1 .9 2.9-7.4 3.3-1.2 7.4 7.6-.9 8.9-.1 9.9-1.2 4.9 4.8 2.1 4.6 4.2 1.6 3.2-4.2h12l-1.8-5.5-3.5-3.2-1.3-4.9-4-2.9 4.9-6.6 6.4.5 4.5-6.7 2.1-6.5 3.9-6.3-1-4.5 3.7-3.7-5-3.1-2.9-4.3-3.2-5.6 1.9-2.8 8.5 1.6 5.7-1 3.7-5.4z" data-id="PK" data-name="Pakistan"/><path id="PA" fill-rule="evenodd" d="M543.5 517l-2-1.8-1.7-1.9-2.5-1.1-3.1-.2.3-.6-3.1-.4-2 1.9-3.5 1.3-2.5 1.6-2.7.5-1.5-1.6-.5.5-2.3-.3.2-1.3-1.9-2.3-2.2.6-.1 2.5 1.1 1-.8.7.1 1.2-.5 1.3-.4 1.2.6 1 .3-1.4h2.4l1.4.7 2.3.5 1 2.5 1.8.4.8-1.1.8 3.8 2.6-.3.9-.9 1.5-.9-2.5-3.4.6-1.3 1.3-.3 2.3-1.6 1.2-2.2 2.5-.4 2.7 1.8 1 2.1 1.4.4-1.5 1.7 1 3.5 1.8 1.8.9-3.1 1.8.5 1.1-1.9-1.1-3.8.7-.9z" data-id="PA" data-name="Panama"/><path id="PE" fill-rule="evenodd" d="M584.3 599.5l-2.9-3.4-1.7-.1 3.5-6.5-4.4-3-3.3.6-2.1-1.1-3 1.7-4.2-.8-3.4-6.7-2.7-1.7-1.8-3-3.7-3-1.5.6.8 4.9-1.7 4.1-6 6.7-6.7 2.5-3.3 5.5-.9 4.3-3.1 2.6-2.5-3.2-2.3-.7-2.3.5-.2-2.3 1.5-1.5-.7-2.7-4.4 4-1.6 4.5 3 6.1-1.7 2.8 4.1 2.6 4.5 4.1 2 4.7 2.4 2.9 6 12.7 6.2 11.7 5.4 8.4-.8 1.8 2.8 5.3 4.6 3.9 10.7 6.9 11.6 6.4.7 2.6 5.9 3.7 2.7-1.6 1.2-3.3 2.8-6.9-2.8-5.3 1.1-2.1-1.2-2.4 1.9-3.2-.3-5.4-.1-4.5 1.1-2.1-5.5-10.3-3 1.1-2.6-.7-.2-9.7-4.4 3.8-4.9-.2-2.3-3.4-3.7-.3 1-2.8-3.3-3.8-2.6-5.8 1.5-1.1-.1-2.7 3.3-1.9-.7-3.4 1.3-2.2.4-3 6.2-4.3 4.6-1.2.7-1 5.1.3z" data-id="PE" data-name="Peru"/><path id="PH" fill-rule="evenodd" d="M1684.6 518.6l-.6-2.3-.8-3.2-4.8-3 .8 4.9-3.9.2-.7 2.8-4.2 1.7-2.2-2.8-2.8 2.4-3.4 1.7-1.9 5.4 1.1 1.9 3.9-3.6 2.7.3 1.5-2.7 3.8 3-1.5 3.1 1.9 4.6 6.8 3.7 1.4-3-2.1-4.7 2.4-3.2 2.5 6.4 1.5-5.8-.6-3.5-.8-4.3zm-14.5-11.8v-6.1l-3.6 6.1.5-4.2-3 .3-.3 4-1.2 1.8-1 1.7 3.8 4.4 1.6-1.9 1.4-4 1.8-2.1zm-30.1 6.1l2.6-4.4 3.4-3.5-1.5-5.2-2.4 6.3-2.9 4.4-3.8 4-2.4 4.4 7-6zm17.4-16.4l1.2 3-.1 3.3.5 2.9 3.3-1.9 2.4-2.7-.2-2.6h-3.6l-3.5-2zm20-1.7l-1.8-2.4-5.4-.1 4 4.8.3 2.4-3.3-.5 1.2 3.9 1.7.3.7 4.5 2.5-1.4-1.7-4-.4-2.1 4.5 1.7-2.3-7.1zm-22.9-5.8l-2.2-2.3-4.8-.2 3.4 4.8 2.8 3.2.8-5.5zm-6.4-34.6h-3.3l-.9 5.8 1.1 9.9-2.6-2 1.2 6 1.2 2.8 3.3 3.7.4-2.3 1.8 1.4-1.5 1.7.1 2.6 2.9 1.4 5-.9 4 3.8 1.1-2.4 2.5 3.4 4.8 3.1.2-2.9-2-1.6.1-3.4-7.5-3.6-2.3.8-3.1-.7-2-5.1.1-5.1 3-2.1.6-5.3-2.7-4.6.4-2.6-.7-1.6-1.5 1.6-3.7-1.8z" data-id="PH" data-name="Philippines"/><path id="PG" fill-rule="evenodd" d="M1850.7 615.6l.9-1.8-2.4-2.2-2.5-4-1.6-1.5-.5-1.9-.8.7.9 4.8 2.2 4 2.2 2.5 1.6-.6zm-21.2-8.6l2.1-3.9.4-3.5-1.1-1-3.4.1.4 3.7-3.3 2.3-1.7 2.2-3.2.5-.4-3.4-.8.1-1 3.1-3.1.5-5-.9-.6 1.9 3.1 1.8 4.5 1.9h2.9l3-1.5 3.2-1.6 1-1.8 3-.5zm-27.8 12.2l-.9-4.3 5.2-.7-1.1-3.3-9.1-4-.6-3.7-2.9-3.2-3.7-3.3-10.2-3.6-9.6-4.4-1 20.7-1.5 20.8 5.7.2 3.1 1.1 4.6-2.2-.3-4.7 3.6-2.1 4.9-1.8 7 2.8 2.4 5.6 2.9 3.5 3.9 4 5.5 1 4.8.7 1.1 1.6 3.8-.4.8-1.8-5.6-2.7 1.8-1.2-4.2-1.1.5-2.8-3.2.2-3-6.8-4.7-4.1zm34.7-18.4l-.5-3.3-2-2.1-2.1-2.6-2.3-1.5-1.9-1.4-2.9-1.8-1.6 1.5 3.9 1.9 3.1 2.7 2.4 2.1 1.2 2.4.8 3.8 1.9-1.7z" data-id="PG" data-name="Papua New Guinea"/><path id="PL" fill-rule="evenodd" d="M1069.4 228.3l-4.6-.1-.5-1.4-4.8-1.1-5.7 2.1-7.1 2.8-3.1 1.7 1.4 3.1-1.2 1.6 2 2.2 1.4 3.3-.1 2.1 2.3 3.9 2.4 1.9 3.7.6-.1 1.7 2.7 1.2.6-1.5 3.4.6.7 2 3.6.3 2.6 3.1.3.4 1.9-.9 2.7 2.2 2.8-1.3 2.4.6 3.4-.8 4.9 2.3 1.1.4-1.6-2.8 3.8-5.1 2.3-.7.3-1.8-3.1-5.3-.5-2.7-1.9-2.9 2.7-1.2-.3-2.4-1.7-2.3-.6-2.7-1.4-1.9-2.5-.6-8.7.1-5.9-.7z" data-id="PL" data-name="Poland"/><path id="KP" fill-rule="evenodd" d="M1644.7 302.3h0l-5.5-3.6.1 3.5-6.3 2.6 2.7 3.3-4.6-.2-3.6-2-1 4.4-3.8 3.4-2.1 4 3.3 1.7 3.4.7.8 1 .4 3.5 1.1 1.2-.9.7-.1 2.9 1.9 1 1.6.6.8 1.2 1.3-.5v-1.3l3.1 1.3.1-.6 2.4.2.7-2.9 3.5-.3 2.1-.4-.1-1.6-4.3-2.8-2.6-1 .2-.7-1.2-2.8 1.3-1.7 2.9-1 1-1.9.3-1.1 1.9-1.4-2.8-4.5.3-2.1.9-2 2.2.3h0l-1.4-1.1z" data-id="KP" data-name="Dem. Rep. Korea"/><path id="PT" fill-rule="evenodd" d="M937.6 335.9l-.4-2.1 2-2.5.8-1.7-1.8-1.9 1.6-4.3-2-3.8 2.2-.5.3-3 .9-.9.2-4.9 2.4-1.7-1.3-3.1-3-.2-.9.8h-3l-1.2-3.1-2.1.9-1.9 1.6.1 2.1.9 2.2.1 2.7-1.3 3.8-.4 2.5-2.2 2.3-.6 4.2 1.2 2.4 2.3.6.4 4-1 5.1 2.8-.7 2.7.9 2.2-1.7z" data-id="PT" data-name="Portugal"/><path id="PY" fill-rule="evenodd" d="M655.7 700.5l-.3-1.9-5.4-3.3-5.1-.1-9.5 1.9-2.1 5.6.2 3.4-1.5 7.6 11.2 10.4 4.6 1 7.2 4.7 5.9 2.5 1.1 2.8-4.2 9.6 5.7 1.8 6.2 1 4.2-1.1 4.3-4.8.3-5.7.7-3.6.3-3.8-.3-3.5-2.1-1.2-2 1.1-2-.3-.9-2.5-1-5.8-1.2-1.9-3.9-1.7-2.1 1.2-6-1.2-.4-8.6-1.9-3.6z" data-id="PY" data-name="Paraguay"/><path id="PS" fill-rule="evenodd" d="M1166.9 366.1l-2-.9-.7 4.3 1.4.7-1.2.8-.1 1.7 2.4-.8.6-1.9-.4-3.9z" data-id="PS" data-name="Palestine"/><path id="QA" fill-rule="evenodd" d="M1258 415.5l.8-3.8-.5-3.7-1.9-2-1.4.7-1.1 3.3.8 4.7 1.8 1.2 1.5-.4z" data-id="QA" data-name="Qatar"/><path id="RO" fill-rule="evenodd" d="M1108.1 266.3h-2.1l-1 1.5-3.6.6-1.6.9-2.4-1.5h-3.2l-3.2-.7-1.9 1.3-2.9 1.3-1.9 4.2-2.6 4.3-3.8 1.1 2.9 2.5.8 1.9 3.2 1.5.7 2.5 3.1 1.8 1.4-1.3 1.4.7-1.1 1.1 1 1 1.8 2.6 1.9-.5 4 1 7.5.3 2.3-1.6 5.8-1.4 4 2.2 3 .7.4-7.4 1.6.5 2.3-1.3-.4-1.6-2.4-1.1-2.2 1-2.4-1.1-1.3-2.8.2-2.7-.6-2.7-3.4-3.7-1.9-2.6-1.8-1.9-1.6-.6z" data-id="RO" data-name="Romania"/><path id="RU" fill-rule="evenodd" d="M1332.3 95.1l-4.5-4-13.6-4.1-9.4-2.1-6.2.9-5.3 2.9 5.8.8 6.6 3.2 8 1.7 11.5 1.3 7.1-.6zm-178.7-7.3l.9-.6-5.7-.9-2.8.7-1.3 1-1.5-1.2-5.2.1-6.2.8 7.7.1-1.1 1.3 4.4 1 3.6-.7.1-.7 2.9-.3 4.2-.6zm200.5 9.9l-1.5-1.8-12.5-2.6-3-.3-2.2.5 1.2 6 18-1.8zm15.2 6.3l-9.2-.7 3.4-1.2-8.2-1.5-6.1 1.9-1 2 1.5 2.1-6.9-.1-5.3 2.6-4.3-1.1-9.3.5.3 1.3-9.2.7-4.9 2.4-4.2.2-1.2 3.3 5.5 2.6-7.7.7-9.5-.3-5.8 1.1 4.8 5.4 6.9 4.3-9.6-3-7.9.3-5.1 2 4.5 3.8-4.9-1-2.1-5-4.2-2.8-1.8.1 3.6 3.7-4.6 3.5 8.1 4.2.4 5.4 2.9 2.9 4.7.5.4 3.5 4.4 3.1-1.9 2.6.5 2.7-3.7 1.4-.5 2-5.3-.8 3.5-7.8-.5-3.6-6.7-3.3-3.8-7.3-3.7-3.7-3.6-1.6.8-4.2-2.9-2.9-11.3-1.4-2.1 1 .5 4.7-4.3 4.7 1.2 1.7 4.7 4.1.1 2.6 5.3.5.8 1.1 5.8 2.9-1 2.8-18.5-6.1-6.6-1.7-12.8-1.6-1.2 1.7 5.9 3.1-2.7 3.6-6.4-3.2-5 2.2-7.6.1-2.1 1.9-5.3-.6 2.5-3.3-3.2-.2-12.3 4.6-7.6 2.6.4 3.5-6 1.2-4-1.9-1.2-3 5-.7-3.6-3-12.2-1.8 4.3 3.4-.8 3.2 4.7 3.3-1.1 3.8-4.6-1.9-4-.3-8 5.4 4.2 4.1-3.2 1.4-11.4-3.5-2.1 2.1 3.3 2.4.2 2.7-3.8-1.4-6-1.7-1.9-5.8-1-2.6-8-4 2.9-.7 20.1 4.2 6.4-1.5 3.7-2.9-1.6-3.6-4-2.6-17.6-6.1-11.6-1.3-7.6-3.2-3.6 1.8h0l-6.4 2.2-3.2.5.4 3.7 7.2 3.7-2.8 4.1 6.4 6.3-1.7 4.8 4.9 4.1-.9 3.7 7.3 3.9-.9 2.9-3.3 3.3-7.9 7.4h0l5.3 2.8-4.5 3.2h0l.9 1-2.6 3.4 2.5 5.5-1.6 1.9 2.4 1.4 1 2.8 2.1 3.6 5.2 1.5 1 1.4 2.3-.7 4.8 1.4 1 2.9-.6 1.6 3.7 3.9 2.2 1.1-.1 1.1 3.4 1.1 1.7 1.6-1.6 1.3-3.9-.2-.8.6 1.5 2 2 3.9h0l1.8.2 1-1.4 1.5.3 4.8-.5 3.8 3.4-.9 1.3.7 1.9 4 .2 2.2 2.7.2 1.2 6.6 2.2 3.5-1 3.6 2.9 2.9-.1 7.6 2 .4 1.9-1.3 3.2 1.8 3.4-.3 2.1-4.7.5-2.2 1.7.4 2.8 4.2-1 .4 1.3-6.8 2.6 3.2 2.4-3.2 5.2-3.4 1 5 3.6 6.2 2.4 7.4 5.1.5-.7 4.5 1.1 7.7 1 7.5 2.9 1.1 1.2 2.9-1 5.1 1.3 2.1 2.5 3.5 1.4 1.5.2 4.3 3.8 2.4.4.5-1.5 2.6-2.5h0l-7.3-7.3-.4-4.1-5.9-5.9 3.5-6.3 4.6-1.1 1.4-3.7-2.8-1-.2-3.2-4.2-4.1-3.6.2-5.3-4.3 1.7-4.7-1.7-1.2 2.1-6.8 6 3.6-.7-4.6 8.1-6.6 7.5-.2 11.9 4.3 6.6 2.4 4.3-2.5 7.6-.2 7.3 3.2.8-1.8 6.9.3.2-3-9.4-4.2 3.6-2.9-1.5-1.7 3.9-1.6-5-4.1 1.4-2.1 16.8-2.1 1.7-1.5 10.8-2.2 3.1-2.5 9 1.3 4.3 6.3 4.3-1.5 7 2.1 1.2 3.3 4.4-.4 9.1-5.7-.8 1.9 8.3 4.7 18.1 15.5 1.1-3.3 8.3 3.6 6.2-1.6 3.2 1.1 4.1 3.6 3.9 1.2 3.3 2.6 6-.9 4.3 3.8 1.7-.5 4.7-1 6.6-5.4 5.9-2.9 5.3 1.9 5.1.1 4.7 2.9 5 .2 7.9 1.6 2.4-4.3-4-3.6 1.3-6.4 6.9 2.5 4.8.8 6.6 1.5 3.7 4.6 8.4 2.6 3.9-1.1 5.7-.8 5.4.8 6.5 3 4.9 3.1h4.5l6.7 1 3.6-1.6 5.8-1 4.5-4.4 3.3.7 3.9 2.1 5.5-.5 7.3 2.3 4.4-3.9-1.9-2.7-.1-6.5 1.2-2-2.5-3.3-3.7-1.5 1.7-3 5.1-1.1 6.2-.2 8.5 1.8 5.9 2.3 7.7 6.1 3.8 2.7 4.4 3.7 6.1 6.1 9.9 1.9 8.9 4.5 6 5.8h7.5l2.6-2.5 6.9-1.8 1.3 5.6-.4 2.3 2.8 6.8.6 6-6.8-1.1-2.9 2.2 4.7 5.3 3.8 7.3-2.5.1 1.9 3.1h0l1.4 1.1h0l-.4-2 4-4.5 5.1 3 3.2-.1 4.4-3.6 1-3.7 2.1-7.1 1.9-7.2-1.3-4.3 1-9-5.2-9.9-5.5-7.3-1.3-6.2-4.7-5.1-12.7-6.7-5.6-.4-.3 3-5.8-1.3-5.7-3.8-8-.7 4.9-14.1 3.5-11.5 13.1-1.8 14.9 1 2.5-2.8 7.9.8 4.3 4.3 6.4-.6 8.4-1.6-7.7-3.5v-9.8l9.1-1.9 12.1 7.1 3.6-6.4-3.2-4.7 4.7-.5 6.5 8.1-2.4 4.6-.8 6 .3 7.5-5.7 1.3 2.8 2.7-.1 3.6 6.4 8.3 16 13.4 10.5 8.8 5.7 4.3 1.6-5.7-4.5-6.2 5.7-1.5-5.4-6.9 5-3.1-4.7-2.6-3.4-5 4.1-.2-9-8.6-6.7-1.4-2.9-2.4-1.1-5.6-3.1-3.9 7 .8 1.3-2.5 4.7 2.2 6.1-4.6 11.4 4-1.7-2.6 2-3.6 1.5-4 3.1-.7 6.5-4.3 9.8 1.2-.9-1.5-3.8-2.3-4.1-1.6-9.1-4.6-8.1-3 6.1.4 2-2.5h0l-32.9-21.9-9.4-2.3-15.7-2.6-7.9.3-15.2-1.4 1.8 2.3 8.5 3.4-2.5 1.8-14.2-4.8-6.8.6-9.2-1.1-7 .2-3.9 1.1-7.2-1.6-5.1-3.8-6.5-2.2-9.2-.9-14.7 1-16.1-4-7.8-3-40.1-3.4-2.1 2.2 9.3 4.8-7.5-.7-1 1.5-9.7-1.6-5 1.4-9.3-2.4 3 5.5-8.9-2.1-10-4.1-.4-2.2-6-3.3-9.8-2.6h-6.1l-9.3-.9 4.7 3.9-17.2-.8-3.9-2.3-13.3-.9-5.3.8-.1 1.3-5.8-3.2-2.3.9-7.2-1.2-5.6-.7 1.1-1.5 6.6-2.8 2.3-1.5-2.4-2.5-5.5-1.9-11.5-2.3-10.8-.1-1.9 1.2-4.1-2.4zm-162.2 31.6l-9.9-4.3-3.1-4.3 3.3-4.9 2.8-5 8.6-4.7 9.8-2.4 11.3-2.4 1.3-1.5-4.2-1.9-6.6.6-4.9 1.8-11.7.9-10.1 3.1-6.8 2.7 2.5 2.2-6.6 4.4 3.9.7-5.4 4.3 1.6 2.8-3.4 1.1 1.9 2.8 7.9 1.4 2.2 2.3 13.4.7 2.2-.4zm314-24.7l-17.9-2.6-10.2-.2-3.4.9 3.4 3.4 12.4 3.2 4.5-1.2 14.2.2-3-3.7zm25.2 2.3l-11.7-1.3-8.2-.7 1.7 1.6 10.3 2 6.8.4 1.1-2zm-12.5 9.5l-2.5-1.4-8.3-1.9-4.1.5-.8 2 1.1.2 8.8.6h5.8zm162.6 12.3l-6-3.6-1.4 2.2 3.5 1.6 3.9-.2zM1084 228.9l-.6-1.5.2-1.7-2.2-.9-5-1.1-6.3 2-.7 2.6 5.9.7 8.7-.1zm589.7 21.8l-7.2-6.2-5.1-6-6.8-5.8-4.9-4-1.3.8 4.4 2.8-1.9 2.8 6.8 8.3 7.8 6 6.4 8.3 2.4 4.6 5.5 6.8 3.8 6 4.6 5.2-.1-4.8 6.5 3.8-3-4.4-9.5-6.3-3.7-9 8.9 2-13.6-10.9z" data-id="RU" data-name="Russia"/><path id="RW" fill-rule="evenodd" d="M1147.6 579.4l-3.3 1.9-1.4-.6-1.6 1.8-.2 3.8-.8.4-.6 3.5 3.5.5 1.7-3.6 3 .4h0l1.6-.8.4-3.7-2.3-3.6z" data-id="RW" data-name="Rwanda"/><path id="EH" fill-rule="evenodd" d="M929.6 396.2h-.8 0l.1 3.4-3.4.2-1.8 1.5h-2.5l-1.9-.9-4.6.7-1.9 5-1.7.4-2.8 8.1-7.8 6.8-2 8.8-2.3 2.9-.7 2.3-12.4.5h-.1l-.3 2.7 1.2-2.2 21.6.1-.9-9.2 1.4-3.3 5.2-.5.2-16.3 17.9.3.2-9.7.1-1.2v-.4z" data-id="EH" data-name="W. Sahara"/><path id="SA" fill-rule="evenodd" d="M1228.7 387l-10.2-.5-16.7-12.7-8.5-4.5-6.7-1.7-.9 1-10.4 3.1 6.1 6.4-1.7 1-.7 2.2-4 .8-1.1 2.3-2.1 2-6.1-1-.5 2.5v2.2l-.6 3.5h2.7l3.2 4.4 3.7 5.1 2.5 4.7 1.7 1.5 1.7 3.3-.2 1.4 2.1 3.7 3 1.3 2.8 2.5 3.6 7v3.8l.9 4.4 4 6.1 2.5 1 4.1 4.4 1.9 5.2 3.2 5.3 3 2.3.6 2.5 1.8 1.9.9 2.8 2.3-2.1-.7-2.7 1.2-3.1 2.4 1.7 1.5-.6 6.4-.2 1 .7 5.4.6 2.1-.3 1.6 2.1 2.5-1 3.5-6.7 5-2.9 15.7-2.4 16.1-6.4 2.6-12.7-2.9-4.5-1 1.3-16.8-3.2-2.6-6.4-.4-1.5-1.2-2.4-1.5.4-1.8-1.2-1-1.6-.9-2.1-1.7-1.8-1-2.1.4-2.1-.6-2.7-4-2.6-1.2-2.3-2.9-1.4-2.7-5.5-3.8.2-1.7-3.1-4.9-.6z" data-id="SA" data-name="Saudi Arabia"/><path id="SD" fill-rule="evenodd" d="M1180.8 468.5l.4-4.2 1.6-2 4-1 2.6-3.6-3.1-2.4-2.2-1.6-2.5-7.6-1.1-6.5 1.1-1.2-2.1-6.2H1114.2l.5 12.7h-6.3v2.7l1.1 25.2-4.8-.4-2.4 4.7-1.4 3.9 1.2 1.5-1.8 1.9.7 2.7-1.4 2.6-.5 2.4 2-.4 1.2 2.5.1 3.7 2.1 1.8v1.6l.7 2.7 3.3 4v2.6l-.8 2.6.3 2 2 1.8.5.3 1.7-.7 1.9-1.2 1.3-5.7 1.5-2.9 4-.9 1 1.8 3 3.7 1.5.5 2-1.1 4.1.3.8 1.3h5.5l.2-1.3 2.9-1.2.5-1.9 2.1-1.3 4.8 3.7 2.8-.7 2.7-4.5 3-3.5-.6-3.9-1.4-1.8 3.4-.3.3-1.5 2.6.5-.5 4.7.8 4.6 2.9 2.5.7 2.2v3.1l.8.1v-.7l1.4-6.7 2.6-1.8.5-2.6 2.3-4.8 3.2-3.2 2.1-6.2.7-5.5-.7-2.5 1.9-9.4z" data-id="SD" data-name="Sudan"/><path id="SS" fill-rule="evenodd" d="M1166 508.7l-.7-2.2-2.9-2.5-.8-4.6.5-4.7-2.6-.5-.3 1.5-3.4.3 1.4 1.8.6 3.9-3 3.5-2.7 4.5-2.8.7-4.8-3.7-2.1 1.3-.5 1.9-2.9 1.2-.2 1.3h-5.5l-.8-1.3-4.1-.3-2 1.1-1.5-.5-3-3.7-1-1.8-4 .9-1.5 2.9-1.3 5.7-1.9 1.2-1.7.7 3.8 2.5 3.1 2.6.1 2 3.8 3.4 2.4 2.7 1.5 3.8 4.2 2.5.9 2.1 3.5 5.2 2.5.8 1.5-1.1 2.6.4 3.1-1.3 1.4 2.7 5 4.2h0l2.3-1.7 3.5 1.4 4.5-1.5 4 .1 3.4-3 3.4-3.8 3.8-4.2-3.5-6.9-2.6-1.5-1-2.5-2.9-3.1-3.4-.5 1.8-3.6 3-.1.8-2-.2-5-.8-.1v-3.1z" data-id="SS" data-name="S. Sudan"/><path id="SN" fill-rule="evenodd" d="M908.9 479.2l-3.6-4.4-3.2-4.7-3.7-1.7-2.6-1.8h-3.1l-2.8 1.4-2.7-.5-2 2-1.3 3.3-2.8 4.4-2.5 1.2 2.7 2.3 2.2 5 6.1-.2 1.3-1.5 1.8-.1 2.1 1.5 1.8.1 1.8-1.1 1.1 1.8-2.4 1.5-2.4-.1-2.4-1.4-2.1 1.5h-1l-1.4.9-5-.1.8 4.9 3-1.1 1.8.2 1.5-.7 10.3.3 2.7.1 4 1.5 1.3-.1.4-.7 3 .5.8-.4.3-2-.4-2.4-2.1-1.8-1.1-3.7-.2-3.9z" data-id="SN" data-name="Senegal"/><path id="SL" fill-rule="evenodd" d="M919.4 518.7l-1.5.3v-2.3l-.9-1.7.2-1.8-1.2-2.7-1.5-2.3H910l-1.3 1.2-1.5.2-1 1.4-.7 1.7-3 2.8.7 4.7.9 2.3 2.9 3.5 4.1 2.5 1.5.5 1.3-2 .3-1.9 2.6-3.4 2.6-3z" data-id="SL" data-name="Sierra Leone"/><path id="SV" fill-rule="evenodd" d="M487.2 487l.6-2.5-.7-.7-1.1-.5-2.5.8-.1-.9-1.6-1-1.1-1.3-1.5-.5-1.4.4.2.7-1.1.7-2.1 1.6-.2 1 1.4 1.3 3.1.4 2.2 1.3 1.9.6 3.3.1.7-1.5z" data-id="SV" data-name="El Salvador"/><path id="RS" fill-rule="evenodd" d="M1084.8 285.2l-3.2-1.5-.8-1.9-2.9-2.5-3.2-.2-3.7 1.6h0l1.5 2.4 1.7 1.8-1.7 2.3h1.8l-1 2.7 2.7 2.3-.5 2.9-1.2.3 1.5 1.1.8.8 1.8.7 2 1.2-.4.6 1.2-.5.5-2 .9-.4.8.9 1 .4.8 1 .8.3 1.1 1.1h.8l-.5 1.5-.5.7.2.5 1.7-.4 2.4-.1.7-.9-.6-.7.7-2 1.7-1.9-2.8-2.6-.7-2.3 1.1-1.4-1-1 1.1-1.1-1.4-.7-1.4 1.3-3.1-1.8-.7-2.5z" data-id="RS" data-name="Serbia"/><path id="SR" fill-rule="evenodd" d="M668 533.8l-4.6.5-.6 1.1-6.7-1.2-1 5.7-3.5 1.6.3 1.5-1.1 3.3 2.4 4.6 1.8.1.7 3.5 3.3 5.6 3.1.5.5-1.3-.9-1.3.5-1.8 2.3.6 2.7-.7 3.2 1.4 1.4-2.7.6-2.9 1-2.8-2.1-3.7-.4-4.4 3.1-5.5-6-1.7z" data-id="SR" data-name="Suriname"/><path id="SK" fill-rule="evenodd" d="M1087.4 260.9l-4.9-2.3-3.4.8-2.4-.6-2.8 1.3-2.7-2.2-1.9.9-.3-.4h-1.5l-.6 1.1-1.1.3-.2 1.4-.9.3-.1.6-1.6.6-2.2-.1-.6 1.4-.3.8.7 2.1 2.6 1.6 1.9.7 4.1-.8.3-1.2 1.9-.2 2.3-1 .6.4 2.2-.7 1-1.5 1.6-.4 5.5 1.9 1-.6.7-2.5 1.1-1.7z" data-id="SK" data-name="Slovakia"/><path id="SI" fill-rule="evenodd" d="M1059.4 277l-1.2-2.1-.8-.1-.9 1.1-4.3.1-2.4 1.4-4.2-.4-.3 3 1.4 2.7-1.1.5 3.5.2.8-1 1.8 1 2 .1-.2-1.7 1.7-.6.3-2.5 3.9-1.7z" data-id="SI" data-name="Slovenia"/><path id="SE" fill-rule="evenodd" d="M1077.7 161.1l-1.9-2.2-1.7-8.4-7.2-3.7-5.9-2.7-2.5.3v3.5l-7.9-.9-.6 3.1-4-.1-2.2 3.9-3.4 6.1-5.7 7.9 1.8 1.9-1.3 2.2-4.3-.1-2.3 5.3 1 7.6 3.1 2.9-.9 6.9-3.4 4-1.7 3.3 4.2 8.4 4.4 6.7 2 5.7 5.3-.3 2.2-4.7 5.7.5 2-5.5.6-10 4.6-1.3 3.3-6.6-4.8-3.3-3.6-4 2.1-8.1 7.7-4.9 6.1-4.5-1.2-3.5 3.4-3.9 7-1.5z" data-id="SE" data-name="Sweden"/><path id="SZ" fill-rule="evenodd" d="M1150.5 736.6l-2.7-1.2-1.6.5-.7 1.8-1.6 2.4-.1 2.2 3 3.5 3.3-.7 1.3-2.8-.3-2.8-.6-2.9z" data-id="SZ" data-name="Swaziland"/><path id="SY" fill-rule="evenodd" d="M1183.5 359.9l11-6.7.9-7.8-1.2-4.7 2.7-1.6 2.1-4.1-5.9 1.1-2.8-.2-5.7 2.5h-4.3l-3-1.2-5.5 1.8-1.9-1.3.1 3.6-1.2 1.5-1.2 1.4-1 2.6 1.1 5 2.4.3 1.2 2.5-2.6 2.4-.9 3.5.3 2.6-.6 1h.1l6.3 2.5 9.6-6.7z" data-id="SY" data-name="Syria"/><path id="TD" fill-rule="evenodd" d="M1108.4 447.6l-22.4-12.2-22.3-12.2-5.4 3.5 1.6 9.9 2 1.6.2 2.1 2.3 2.2-1.1 2.7-1.8 12.9-.2 8.3-6.9 6-2.3 8.4 2.4 2.3v4.1l3.6.2-.5 2.9 2.2 4.1.5 4.2-.2 4.3 3.1 5.8-3.1-.1-1.6.4-2.5-.6-1.2 3 3.3 3.7 2.5 1.1.8 2.6 1.8 4.4-.9 1.7 4.7-.4 1-1.7.9.2 1.4 1.4 7.1-2.4 2.3-2.5 2.9-2.2-.6-2.3 1.6-.6 5.4.4 5.2-2.9 4-7 2.8-2.5 3.5-1.1v-1.6l-2.1-1.8-.1-3.7-1.2-2.5-2 .4.5-2.4 1.4-2.6-.7-2.7 1.8-1.9-1.2-1.5 1.4-3.9 2.4-4.7 4.8.4-1.1-25.2z" data-id="TD" data-name="Chad"/><path id="TG" fill-rule="evenodd" d="M981.7 502.2l-4.9-.1-.4 1.9 2.4 3.3-.1 4.6.6 5.1 1.4 2.3-1.2 5.7.4 3.2 1.5 4 1.2 2.2 4.6-1.3-1.4-4.4.2-14.6-1.1-1.3-.2-3.1-2-2.3-1.7-1.9.7-3.3z" data-id="TG" data-name="Togo"/><path id="TH" fill-rule="evenodd" d="M1562.7 481.4l1.5-2.9-.5-5.4-5.2-5.5-1.3-6.3-4.9-5.2-4.3-.4-.8 2.2-3.2.2-1.8-1.2-5.3 3.8-1-5.7.4-6.7-3.8-.3-.9-3.8-2.6-1.9-3 1.4-2.8 2.8-3.9.3-1.5 6.9-2.2 1.1 3.5 5.6 4.1 4.6 2.9 4.2-1.4 5.6-1.7 1.1 1.7 3.2 4.2 5.1 1 3.5.2 3 2.8 5.8-2.6 5.9-2.2 6.6-1.3 6.1-.3 3.9 1.2 3.6.7-3.8 2.9 3.1 3.2 3.5 1.1 3.2 2.4 2.4.9-1.1 4.7 2.8.6 3.3 3.7-.8 1.7-2.6-3.1-3.3-3.4-.8-3.3-3.6-1.4-5.5-2.6-5.8-3.7-.2-.7-4.6 1.4-5.6 2.2-9.3-.2-7 4.9-.1-.3 5 4.7-.1 5.3 2.9-2.1-7.7 3-5.2 7.1-1.3 5.3 1z" data-id="TH" data-name="Thailand"/><path id="TJ" fill-rule="evenodd" d="M1344.1 315.7l-2.1.2-1.3-1.8.2-2.9-6.4 1.5-.5 4-1.5 3.5-4.4-.3-.6 2.8 4.2 1.6 2.4 4.7-1.3 6.6 1.8.8 3.3-2.1 2.1 1.3.9-3 3.2.1.6-.9-.2-2.6 1.7-2.3 3.2 1.5v2l1.6.3 1 5.4 2.6 2.1 1.5-1.3 2.1-.7 2.5-2.9 3.8.5h5.4l-1.8-3.7-.6-2.5-3.5-1.4-1.6.6-3-5.9-9.5.9-7.1-2-5.4.5-.6-3.7 5.9 1.1 1.4-2z" data-id="TJ" data-name="Tajikistan"/><path id="TM" fill-rule="evenodd" d="M1325.6 334.2l-.8-4-7.7-2.7-6.2-3.2-4.2-3-7-4.4-4.3-6.4-2-1.2-5.5.3-2.3-1.3-1.9-4.9-7.8-3.3-3.3 3.6-3.8 2.2 1.6 3.1-5.8.1-2.5.3-4.9-4.9-3.8-1.7-5.5 1.3-1.8 2 2.5 4-.5-4.5 3.7-1.6 2.4 3.6 4.6 3.7-4 2-5.3-1.5.1 5.2 3.5.4-.4 4.4 4.5 2.1.7 6.8 1.8 4.5 4.4-1.2 3-3.7 3.5.2 2.1-1.2 3.8.6 6.5 3.3 4.3.7 7.3 5.7 3.9.2 1.6 5.5 5.9 2.4 3.9-.8.4-3 4-.9 2.5-2-.1-5.2 4.1-1.2.3-2.3 2.9 1.7 1.6.2z" data-id="TM" data-name="Turkmenistan"/><path id="TL" fill-rule="evenodd" d="M1676.8 631.9l4.9-1.8 6-2.8 2.2-1.7-2-.8-1.8.8-4 .2-4.9 1.4-.8 1.5.5 1.3-.1 1.9z" data-id="TL" data-name="Timor-Leste"/><path id="TN" fill-rule="evenodd" d="M1038 361.4l-2-1-1.5-3-2.8-.1-1.1-3.5 3.4-3.2.5-5.6-1.9-1.6-.1-3 2.5-3.2-.4-1.3-4.4 2.4.1-3.3-3.7-.7-5.6 2.6-1 3.3 1 6.2-1.1 5.3-3.2 3.6.6 4.8 4.5 3.8v1.5l3.4 2.6 2.6 11.3 2.6-1.4.4-2.7-.7-2.6 3.7-2.5 1.5-2 2.6-1.8.1-4.9z" data-id="TN" data-name="Tunisia"/><path id="TR" fill-rule="evenodd" d="M1166.6 308.9l-9.7-4.4-8.5.2-5.7 1.7-5.6 4-9.9-.8-1.6 4.8-7.9.2-5.1 6.1 3.6 3-2 5 4.2 3.6 3.7 6.4 5.8-.1 5.4 3.5 3.6-.8.9-2.7 5.7.2 4.6 3.5 8-.7 3.1-3.7 4.6 1.5 3.2-.6-1.7 2.4 2.3 3 1.2-1.4 1.2-1.5-.1-3.6 1.9 1.3 5.5-1.8 3 1.2h4.3l5.7-2.5 2.8.2 5.9-1.1 2.1-1 6.2.9 2.1 1.6 2.3-1.1h0l-3.7-5.2.7-2-2.9-7.3 3.3-1.8-2.4-1.9-4.2-1.5v-3.1l-1.3-2.2-5.6-3-5.4.3-5.5 3.2-4.5-.6-5.8 1-7.8-2.4zm-49.6 4l2-1.9 6.1-.4.7-1.5-4.7-2-.9-2.4-4.5-.8-5 2 2.7 1.6-1.2 3.9-1.1.7.1 1.3 1.9 2.9 3.9-3.4z" data-id="TR" data-name="Turkey"/><path id="TW" fill-rule="evenodd" d="M1642.3 427.2l1.2-10.2.1-3.9-2.9-1.9-3.3 4.8-1.9 6.3 1.5 4.7 4 5.4 1.3-5.2z" data-id="TW" data-name="Taiwan"/><path id="TZ" fill-rule="evenodd" d="M1149.6 578.6l-2 .8 2.3 3.6-.4 3.7-1.6.8h0l.3 2.5 1.2 1.5v2l-1.4 1.4-2.2 3.3-2.1 2.3-.6.1-.3 2.7 1.1.9-.2 2.7 1 2.6-1.3 2.4 4.5 4.3.3 3.9 2.7 6.5h0l.3.2 2.2 1.1 3.5 1.1 3.2 1.9 5.4 1.2 1.1 1.7h0l.4-1.2 2.8 3.4.3 6.7 1.8 2.4v.1l2.1-.3 6.7 1.8 1.4-.8 3.9-.1 2.1-1.9 3.3.1 6.2-2.5 4.6-3.7h0l-2-1.4-2.2-6.3-1.8-3.9.4-3.1-.3-1.9 1.7-3.9-.2-1.6-3.5-2.3-.3-3.6 2.8-7.9-8-6.3-.4-3.7-20.2-13h0l-2.8 2.8-1.9 2.9 2.2 2.2-3.2 1.6-.7-.8-3.2.4-2.5 1.4-1.6-2.4 1.1-4.5.2-3.8h0l-6.2-.1z" data-id="TZ" data-name="Tanzania"/><path id="UG" fill-rule="evenodd" d="M1167.6 545.1l-3.4 3-4-.1-4.5 1.5-3.5-1.4-2.3 1.7h0l-.3 7.5 2.3.8-1.8 2.3-2.2 1.7-2.1 3.3-1.2 3-.3 5.1-1.3 2.4-.1 4.8 1.4.6 3.3-1.9 2-.8 6.2.1h0l-.3-2.5 2.6-3.7 3.5-.9 2.4-1.5 2.9 1.2.3.5v-.3l1.6-2.6 2.7-4.2 2.1-4.7-2.6-7.3-.7-3.2-2.7-4.4z" data-id="UG" data-name="Uganda"/><path id="UA" fill-rule="evenodd" d="M1138.5 241l-4.8.5-1.5-.3-1 1.4-1.8-.2h0l-4.1.3-1.2 1.4.2 3.1-2-.6-4.3.3-1.5-1.5-1.6 1.1-2-.9-3.8-.1-5.6-1.5-5-.5-3.7.2-2.4 1.6-2.2.3 3.1 5.3-.3 1.8-2.3.7-3.8 5.1 1.6 2.8-1.1-.4-1.1 1.7-.7 2.5 2.9 1.7.6 1.6 1.9-1.3 3.2.7h3.2l2.4 1.5 1.6-.9 3.6-.6 1-1.5h2.1l1.1-.9 3.2-.6 3.9 1.9 2 .3 2.5 1.6v2.1l1.9 1.1 1.1 2.6 2 1.5-.2 1 1 .6-1.2.5-3-.2-.6-.9-1 .5.5 1.1-1.1 2-.5 2.1-1.2.7 2.4 1.1 2.2-1 2.4 1.1 3.3-4.6 1.3-3.4 4.5-.8.7 2.4 8 1.5 1.7 1.4-4.5 2.1-.7 1.2 5.8 1.8-.6 2.9 3 1.3 6.3-3.6 5.3-1.1.6-2.2-5.1.4-2.7-1.5-1-3.9 3.9-2.3 4.6-.3 3-2 3.9-.5-.4-2.8 2.2-1.7 4.7-.5.3-2.1-1.8-3.4 1.3-3.2-.4-1.9-7.6-2-2.9.1-3.6-2.9-3.5 1-6.6-2.2-.2-1.2-2.2-2.7-4-.2-.7-1.9.9-1.3-3.8-3.4z" data-id="UA" data-name="Ukraine"/><path id="UY" fill-rule="evenodd" d="M692.5 787l-2.1-3.7 1.9-3-3.8-4.3-4.8-3.5-6.2-4.1-1.9.2-6.2-4.9-3.4.7-.5 5.1-.3 6.5 1.1 6.3-.9 1.4.4 4.2 3.9 3.5 3.6-.2 5.4 2.7 2.7-.6 4.2 1.2 5.3-3.5 1.6-4z" data-id="UY" data-name="Uruguay"/><path id="US" fill-rule="evenodd" d="M116.7 450.7l2-.9 2.5-1.4.2-.4-.9-2.2-.7-.8-.8-.6-1.9-1.1-.4-.1-.4.6v1.3l-1.2 1-.4.7.4 2.3-.6 1.8 1.2.9 1-1.1zm-.6-9.9l.6-.7-1.2-1-1.8-.6-.7.5v.4l.5.5.6 1.4 2-.5zm-3-3.4l-2.6-.2-.6.7 2.9.2.3-.7zm-4.7-.9l-1.1-2.1-.3-.4-1.7.9.1.2.4 1.5 1.8.2.4.1.4-.4zm-8.3-4.2l.3-1.5-1.3-.1-1 .6-.4.5 1.6 1.1.8-.6zm412.1-173.2h-1.6l-1.3 2.4H373.4l-1.6 5.1-2.4 5.1-2.3 1.6 1.1-5.9-5.8-2.1-1.4 1.2-.4 2.9-1.8 5.4-4.2 8.3-4 5.6-4 5.6-5.4 5.8-1.1 4.7-2.8 5.3-3.9 5.2 1 3.4-1.9 5.2 1.5 5.4 1.3 2.2-.8 1.5.4 9 2.5 6.5-.8 3.5 1 1 4.6.7 1.3 1.7 2.8.3-.1 1.9 2.2.7 2.1 3.7-.3 3.2 6.3-.5 7-.7-1 1.3 7.1 3.1 10.7 4.4h15l.8-2.6h9.3l1.3 2.2 2.1 2 2.4 2.8.8 3.3.4 3.5 2.2 1.9 4 1.9 4.8-5 4.4-.1 3.1 2.5 1.6 4.4 1 3.7 2.4 3.6.2 4.5.8 3 3.9 2 3.6 1.4 2.1-.2-.6-2.2.4-3.1 1-4.4 1.9-2.8 3.7-3.1 6-2.7 6.1-4.7 4.9-1.5 3.5-.4 3.5 1.4 4.9-.8 3.3 3.4 3.8.2 2.4-1.2 1.7.9 1.3-.8-.9-1.3.7-2.5-.5-1.7 2.4-1 4.2-.4 4.7.7 6.2-.8 3 1.5 2 3 .9.3 6.1-2.9 1.9 1 3 5.3.8 3.5-2 4.2.4 2.5 1.6 4.9 2 5.5 1.8 1.4.4 2.8 2.6.8 1.7-.8 2-3.9.7-2.5.9-4.3-1.2-7.4.5-2.7-1.5-4.5-.7-5.4.1-4.4 1.8-4.5 3.5-3.8 3.7-3 6.9-4.1 1.3-2.2 3.3-2.3 2.8-.4 4.4-3.8 6-1.9 4.6-4.8.9-6.5.1-2.2-1.4-.4 1.5-6.2-3-2.1 3.2 1v-4.1l1.9-2.7-1 5.3 2 2.5-2.9 4.4.4.2 4.4-5.1 2.4-2.5.6-2.5-.9-1.1-.1-3.5 1.2 1.6 1.1.4-.1 1.6 5.2-4.9 2.5-4.5-1.4-.3 2.1-1.8-.4.8h3.3l7.8-1.9-1.1-1.2-7.9 1.2 4.8-1.8 3.1-.3 2.4-.3 4.1-1.1 2.4.1 3.8-1 1-1.7-1.1-1.4-.2 2.2-2.1-.1-.6-3.3 1.1-3.3 1.4-1.3 3.9-3.7 5.9-1.8 6-2.1 6.3-3-.2-2-2.1-3.5 2.8-8.5-1.5-1.8-3.7 1.1-1.1-1.7-5.5 4.7-3.2 4.9-2.7 2.8-2.5.9-1.7.3-1 1.6h-17l-2.7 1.2-6.7 4.2.2.9-.6 2.4-4.6 2-3.9-.5-4-.2-2.6.7-.3 1.8h0l-.1.6-5.8 3.7-4.5 1.8-2.9.8-3.7 1.7-4 .9-2.5-.3-2.7-1.3 2.7-2.4h0l2-2.2 3.7-3.4h0l.7-2.5.5-3.5-1.6-.7-4.3 2.8-.9-.1.3-1.5 3.8-2.5 1.6-2.8.7-2.8-2.7-2.4-3.7-1.3-1.7 2.4-1.4.6-2.2 3.1.4-2.1-2.6 1.5-2.1 2-2.6 3.1-1.3 2.6.1 3.8-1.8 4-3.3 3-1.4.9-1.6.7h-1.8l-.3-.4-.1-3.3.7-1.6.7-1.5.6-3 2.5-3.5 2.9-4.3 4.6-4.7h-.7l-5.4 4-.4-.7 2.9-2.3 4.7-4 3.7-.5 4.4-1.3 3.7.7h.1l4.7-.5-1.5-2.5h0l-1.2-.2h0l-1.4-.3-.4-1.7-5.1.5-5 1.4-2.5-2.3-2.5-.8 3.1-3.3-5.3 2-4.9 2.1-4.6 1.5-2.1-2.1-5.5 1.3.4-.9 4.6-2.6 4.7-2.5 5.9-2.1h0l-5.3-1.6-4.4.8-3.8-1.9-4.6-1-3.2-.4-1-1 .8-3.4zm-240.6-46.9l6.9-2.8v-1.8l-2.6-.4-3.4.9-6.4 2.1-2.2 2.7.7 1.6 7-2.3zm-38.7-16.4l2.3-2.3-2.9-.5-5.7 1 .8 1.6 1.6 1.1 3.9-.9zm1.2-22.3l-3.1 2.2.4.5 4.2-.4.3 1.1 1.7 1.2 4.9-1.2 1.2-.6-3.3-.8-1.6-1.5-3.4.6-1.3-1.1zM359 133.3l-4.4-1.1-10.2 2.8-3.2-.3-11 2.3-4.8.6-7.8 2.5-4.8 2.6-8.6 2.5-7.6.1-6.3 2.9 3.2 1.7.7 2.3-.8 2.7 2.3 2.1-1.2 3.5-9.2.2 4.3-2.8h-3.4l-13.1 2.7-9.1 2.3 1 3.3-1.2 2.2 4.5 1.4 6.9-.7 1.8 1.3 2.9-1.3 6.1-1.2h2.7l-5.9 2.1 1.1 1-2.5 2.6-5.5 1.8-2.5-.5-7 2.7-1.8-.9-4.1.4-5.3 3-7.6 3.1-5.8 3.4.3 2.4-4 3.3 1.4 1.4.5 2.7 7.2-1.1.4 2.1-3.3 2.1-3.6 3.5h2.8l7.2-2.3-1.6 2.9 3.6-2.1-.4 3 4.8-2.2.4 1.1 7.2-1.8-6.2 3.4-5.7 4.5-5.7 2.1-2.3 1.2-10.3 3.6-4.9 2.4-6.5.7-8.5 3.3-6.6 1.8-8.1 2.8-.4 1 10-1.7 6-2 6.9-2 6.1-1.7 2.8.5 8.1-2.6 4.5-2.8 10.5-3.1 3.9-2.6 6.6-1.8 7.6-2.5 8.9-4.2-.2-2.9 11.1-4.1 7.4-3.9 9.2-3.2-.4 1.4-6.7 1.8-8.3 5.7-3.2 3.5 6.4-1.3 6.1-1.9 6.5-1.3 2.9-.3 3.5-4.1 6.3-1.2 2.6 2.5 6 2.7 6.7-.5 5.7 2 3.2 1.1 3.3 6.1 3.7 1.7 7.1.2 4.1.4-2.7 5.5 1.6 4.9-3.3 5.2 2.5 1.9.6 2.2h0l5.1-2.9 3.1-3.7-4.6-3.8 1.5-6.8 1.1-4.2-1.7-2.7-.7-2.4.5-3-6.4 1.9-7.6 3.3-.2-3.9-.6-2.6-2.7-1.6-4.2-.1 35.4-32.4 24.3-20.2h0l-3.5-.7-4.1-1.6-6.5.8-2.2-.7-7.1-.5-6.2-1.6-4.8.5-4.9-.9 2-1.2-6.3-.3-3.3 1 .5-2.4z" data-id="US" data-name="United States"/><path id="UZ" fill-rule="evenodd" d="M1339.8 303.1l-2.5 1.2-5.4 4.3-.9 4.5h-1.9l-2.3-3-6.6-.2-2.6-5-2.5-.1-1.5-6.2-7.5-4.5-8.6.5-5.7.9-6.5-5.5-4.8-2.3-9.1-4.5-1.1-.5-11.9 3.6 6.2 22.8 5.8-.1-1.6-3.1 3.8-2.2 3.3-3.6 7.8 3.3 1.9 4.9 2.3 1.3 5.5-.3 2 1.2 4.3 6.4 7 4.4 4.2 3 6.2 3.2 7.7 2.7.8 4h2.9l4.3 1.4 1.3-6.6-2.4-4.7-4.2-1.6.6-2.8 4.4.3 1.5-3.5.5-4 6.4-1.5-.2 2.9 1.3 1.8 2.1-.2 4.1.6 5.2-4.5-7.1-3.3-3.2 1.6-4.6-2.3 3.1-4.1-1.8-.6z" data-id="UZ" data-name="Uzbekistan"/><path id="VE" fill-rule="evenodd" d="M642 518.9l-2.2-1.5-2.9.2-.7-5.1-4.1-3.2-4.4-.4-1.8-3 4.8-1.9-6.7.1-6.9.4-.2 1.6-3.2 1.9-4.2-.7-3.1-2.9-6 .7-5-.1-.1-2.1-3.5-3.5-3.9-.1-1.7-4.5-2.1 2 .6 3-7.1 2.6v4.8l1.6 2.2-1.5 4.6-2.4.4-1.9-5 2.7-3.7.3-3.3-1.7-2.9 3.3-.8.3-1.5-3.7 1.1-1.6 3.2-2.2 1.8-1.8 2.4-.9 4.5-1.8 3.7 2.9.5.6 2.9 1.1 1.4.4 2.5-.8 2.4.2 1.3 1.3.6 1.3 2.2 7.2-.6 3.2.8 3.8 5.5 2.3-.7 4 .3 3.2-.7 2 1.1-1.2 3.4-1.3 2.1-.5 4.6 1 4.2 1.5 1.9.2 1.5-2.9 3.1 2 1.4 1.4 2.2 1.7 6.4 3 3.4 4.4-.5 1.1-1.9 4.2-1.5 2.3-1 .7-2.7 4.1-1.8-.3-1.4-4.8-.5-.7-4 .3-4.3-2.4-1.6 1-.6 4.2.8 4.4 1.6 1.7-1.5 4-1 6.4-2.4 2.1-2.4-.7-1.8-3.7-4.8 1.6-1.8v-2.9l3.4-1.1 1.5-1.2-1.9-2.3.6-2.3 4.6-3.8z" data-id="VE" data-name="Venezuela"/><path id="VN" fill-rule="evenodd" d="M1571.6 435l-5.9-1.6-3-2.6.2-3.7-5.2-1.1-3-2.4-4.1 3.4-5.3.7h-4.3l-2.7 1.5 4 5.1 3.4 5.7 6.8.1 3 5.5-3.3 1.7-1.3 2.3 7.3 3.8 5.7 7.5 4.3 5.6 4.8 4.4 2 4.5-.2 6.4 1.8 4.2.1 7.7-8.9 4.9 2.8 3.8-5.8.5-4.7 2.5 4.5 3.7-1.3 4.3 2.3 4 6.6-5.9 4.1-5.3 6.1-4.1 4.3-4.2-.4-11.2-4-11.7-4.1-5.1-5.6-4-6.4-8.3-5.3-6.7.5-4.4 3.7-6 6.5-5.5z" data-id="VN" data-name="Vietnam"/><path id="VU" fill-rule="evenodd" d="M1908.6 676.9l-2.7-3.6-.6 1.7 1.3 2.8 2-.9zm-2-9.7l-2.3-2-.9 4.9.5 1.8 1.2-.4 1.3.8.2-5.1z" data-id="VU" data-name="Vanuatu"/><path id="YE" fill-rule="evenodd" d="M1271.5 466.2l-2.1-4.4-5.2-10.5-15.7 2.4-5 2.9-3.5 6.7-2.5 1-1.6-2.1-2.1.3-5.4-.6-1-.7-6.4.2-1.5.6-2.4-1.7-1.2 3.1.7 2.7-2.3 2.1.4 2.7-.6 1.3.7 2.9-1.1.3 1.7 2.6 1.3 4.7 1 1.9v3.4l1.6 3.8 3.9.3 1.8-.9 2.7.2.8-1.7 1.5-.4 1.1-1.7 1.4-.4 4.7-.3 3.5-1.2 3.1-2.7 1.7.4 2.4-.3 4.7-4.5 8.8-3 5.3-2.7v-2.1l.9-2.9 3.9-1.7z" data-id="YE" data-name="Yemen"/><path id="ZA" fill-rule="evenodd" d="M1148.2 713.7l-2.9-.6-1.9.8-2.6-1.1-2.2-.1-8 4.7-5.2 4.7-2 4.3-1.7 2.4-3 .5-1.2 3-.6 2-3.6 1.5-4.4-.3-2.5-1.8-2.3-.8-2.7 1.5-1.5 3.1-2.7 1.9-2.8 2.8-4 .7-1.1-2.3.7-3.8-3-6.1-1.4-1-1.1 23.6-5 3.2-2.9.5-3.3-1.2-2.4-.5-.8-2.7-2.1-1.8-2.7 3.2 3.5 8.2v.1l2.5 5.3 3.2 6-.2 4.8-1.7 1.2 1.4 4.2-.2 3.8.6 1.7.3-.9 2.1 2.9 1.8.1 2.1 2.3 2.4-.2 3.5-2.4 4.6-1 5.6-2.5 2.2.3 3.3-.8 5.7 1.2 2.7-1.2 3.2 1 .8-1.8 2.7-.3 5.8-2.5 4.3-2.9 4.1-3.8 6.7-6.5 3.4-4.6 1.8-3.2 2.5-3.3 1.2-.9 3.9-3.2 1.6-2.9 1.1-5.2 1.7-4.7h-4.1l-1.3 2.8-3.3.7-3-3.5.1-2.2 1.6-2.4.7-1.8 1.6-.5 2.7 1.2-.4-2.3 1.4-7.1-1.1-4.5-2.2-9zm-20.1 52.8l-2 .6-3.7-4.9 3.2-4 3.1-2.5 2.6-1.3 2.3 2 1.7 1.9-1.9 3.1-1.1 2.1-3.1 1-1.1 2z" data-id="ZA" data-name="South Africa"/><path id="ZM" fill-rule="evenodd" d="M1149.2 626.7l-1.9-.5.4-1.3-1-.3-7.5 1.1-1.6.7-1.6 4.1 1.2 2.8-1.2 7.5-.8 6.4 1.4 1.1 3.9 2.5 1.5-1.2.3 6.9h-4.3l-2.1-3.5-2-2.8-4.3-.8-1.2-3.4-3.4 2-4.5-.9-1.8-2.8-3.5-.6-2.6.1-.3-2-1.9-.1.5 2-.7 3 .9 3-.9 2.4.5 2.2-11.6-.1-.8 20.3 3.6 5.2 3.5 4 4.6-1.5 3.6.4 2.1 1.4v.5l1 .5 6.2.7 1.7.7 1.9-.1 3.2-4.1 5.1-5.3 2-.5.7-2.2 3.3-2.5 4.2-.9-.3-4.5 17.1-5.2-2.9-1.7 1.9-5.9 1.8-2.2-.9-5.3 1.2-5.1 1-1.8-1.2-5.4-2.6-2.8-3.2-1.9-3.5-1.1-2.2-1.1-.3-.2h0l.5 1.1-1 .4-1.2-1.4z" data-id="ZM" data-name="Zambia"/><path id="ZW" fill-rule="evenodd" d="M1148.2 713.7l6.2-7.2 1.6-4.6.9-.6.8-3.7-.8-1.9.5-4.7 1.3-4.4.3-8.1-2.8-2-2.6-.5-1.1-1.6-2.6-1.3-4.6.1-.3-2.4-4.2.9-3.3 2.5-.7 2.2-2 .5-5.1 5.3-3.2 4.1-1.9.1-1.7-.7-6.2-.7 1.9 5.1 1.1 1.1 1.6 3.7 6 7 2.3.7-.1 2.2 1.5 4.1 4.2.9 3.4 2.9 2.2.1 2.6 1.1 1.9-.8 2.9.6z" data-id="ZW" data-name="Zimbabwe"/><path id="SO" fill-rule="evenodd" d="M1223.4 505.7l-2.6-2.7-1.2-2.6-1.8-1.2-2 3.4-1.1 2.3 2.2 3.5 2.1 3.1 2.2 2.2 18.5 7.6 4.8-.1-15.4 19.1-7.4.3-4.9 4.5-3.6.1-1.5 2-4.8 7.2.2 23.2 3.3 5.3 1.3-1.5 1.3-3.4 6.1-7.7 5.3-4.8 8.3-6.4 5.6-5.1 6.4-8.7 4.7-7.1 4.6-9.3 3.2-8.2 2.5-7.1 1.3-6.8 1.1-2.3-.2-3.4.4-3.7-.2-1.7h-2.1l-2.6 2.2-2.9.6-2.5.9-1.8.2h0l-3.2.2-1.9 1.1-2.8.5-4.8 1.9-6.1.8-5.2 1.6h-2.8z" data-id="SO" data-name="Somalia"/><path id="GF" fill-rule="evenodd" d="M681.4 556.2l1.8-4.7 3.5-5.8-.9-2.6-5.8-5.4-4.1-1.5-1.9-.7-3.1 5.5.4 4.4 2.1 3.7-1 2.7-.6 2.9-1.4 2.8 2.4 1.3 1.8-1.8 1.2.3.8 1.8 2.7-.5 2.1-2.4z" data-id="GF" data-name="French Guiana"/><path id="FR" fill-rule="evenodd" d="M1025.7 303.8l-1.1-5.2-3.2 2.3-1 2.3 1.4 4.2 2.4 1.2 1.5-4.8zm-31.5-50.9l-2.4-2.4-2.2-.1-.7-2.2-4.3 1.2-1.4 5.1-11.3 4.8-4.6-2.6 1.4 7-8.2-1.6-6.4 1.3.4 4.6 7.5 2.4 3.6 3.1 5.1 6.5-1 12.3-2.7 3.7 2 2.4 9.4 2.8 1.9-1.3 5.7 2.8 6-.8.5-3.7 7.4-2 10 1.6 4.5-3.4.5-2.7-2.7-.8-1.5-4.8 1.7-1.8-1.6-2.4.2-1.7-1.8-2.7-2.4.9v-2.8l3.5-3.5-.2-1.6 2.3.6 1.3-1 .5-4.5 2.3-4.2-7.1-1.2-2.4-1.6-1.4.1-1.1-.5-4.4-2.8-2.5.4-3.4-2.9z" data-id="FR" data-name="France"/><path id="ES" fill-rule="evenodd" d="M985 325.7v-.2h-.5l-.3-.4-.1.2-.1.2v.2h.5l.4.1.1-.1zm-.8-1.6h.3l.6-.7v-.3l-.3-.2-1.1.2-.2.3v.3l-.3.1-.1.4.1.2.8.1.2-.4zM967 296l-8.2-.2-4.2.3-5.4-1h-6.8l-6.2-1.1-7.4 4.5 2 2.6-.4 4.4 1.9-1.6 2.1-.9 1.2 3.1h3l.9-.8 3 .2 1.3 3.1-2.4 1.7-.2 4.9-.9.9-.3 3-2.2.5 2 3.8-1.6 4.3 1.8 1.9-.8 1.7-2 2.5.4 2.1 4.8 1 1.4 3.7 2 2.2 2.5.6 2.1-2.5 3.3-2.3 5 .1h6.7l3.8-5 3.9-1.3 1.2-4.2 3-2.9-2-3.7 2-5.1 3.1-3.5.5-2.1 6.6-1.3 4.8-4.2-.3-3.5-6 .8-5.7-2.8-1.9 1.3-9.4-2.8-2-2.4zm26 22.6l.1-.3.1-.2.1-.1-.2-.2v-.1l.2-.2-.2-.1-1.3.4-.7.4-2.1 1.5v.3l.1.2h.4l.2.4.4-.4.3-.1.3.1.3.2.1.6.1.2.6.1.9.4.4-.2.5-.3.2-.6.3-.5.3-.5.3-.4-.1-.4-.3-.1-.3-.1-.5.2-.5-.2zm6-.3l.1-.4v-.1l-.5-.7-.9-.3-1 .1-.1.1v.4l.1.1.6.1 1.6.7h.1z" data-id="ES" data-name="Spain"/><path id="AW" fill-rule="evenodd" d="M586.6 492.9l-.1-.1-.3-.6-.3-.3-.1.1-.1.3.3.3.3.4.3.1v-.2z" data-id="AW" data-name="Aruba"/><path id="AI" fill-rule="evenodd" d="M627.9 456.2l.1-.2-.2-.1-.8.5v.1l.9-.3z" data-id="AI" data-name="Anguilla"/><path id="AD" fill-rule="evenodd" d="M985.4 301.7l.1-.2.1-.2v-.1l-.2-.1-.7-.2-.3-.1-.2.1-.2.2-.1.3.1.1v.4l.1.2h.4l.3-.1.5-.3h.1z" data-id="AD" data-name="Andorra"/><path id="AG" fill-rule="evenodd" d="M634.3 463.8l.2-.1V463.4l-.1-.1-.1-.2-.4-.2-.5.5v.2l.1.3.6.1.2-.2zm.2-3.5v-.5l-.1-.2h-.3l-.1-.1h-.1l-.1.1.1.6.5.3.1-.2z" data-id="AG" data-name="Antigua and Barb."/><path id="BS" fill-rule="evenodd" d="M574.4 437.3l.2-.6-.3-.1-.5.7-.6.3h-.3l-.7-.3h-.5l-.4.5-.6.1.1.1v.2l-.2.3v.2l.1.3 1.5-.1 1.3-.2.7-.9.2-.5zm.8-2l-.4-.3-.4.3.1.3.7-.3zm0-5.8l-.4-.2-.3.5.3.1.7-.1.5.1.5.4.3-.2-.1-.1-.4-.3-.6-.1h-.2l-.3-.1zm-6.6 1.3l.7-.6.7-.3.9-1.1-.1-.9.2-.4-.6.1-.1.3-.1.3.3.4v.2l-.2.4-.3.1-.1.2-.3.1-.4.5-.8.6-.2.3.4-.2zm1.2-3.2l-.6-.2-.2-.4-.4-.1-.1.2v.2l.1.4.2-.1.8.4.4-.3-.2-.1zm-4.1-1.1v-.7l-.4-.5-.6-.4-.1-1.2-.3-.7-.2-.6-.4-.8v.5l.1.1.1.6.4.9.1.4-.1.4-.4.1-.1.2.5.3.8.3.5 1.3.1-.2zm-4.1-3.5l-.5-.3-.2-.3-.7-.7-.3-.1-.2.4.4.1.9.7.4.2h.2zm7.3-4l-.1-.3h-.1l-.3.1-.3.9h.3l.5-.7zm-17.6-1.1l-.2-.3-.3.2h-.5l-.2.1h-.4l-.3.2.4.8.3.3.1 1 .2.1-.1.7 1.1.1.4-.8V418.6l-.3-.5-.4.6-.4-.3.6-.4v-.1zm12.9.3l-1-1.4v-.2l-.5-1.5-.3-.1-.1.1-.1.2.4.4v.4l.3.2.4 1.1.4.4-.1.3-.4.3-.1.2h.1l.6-.1h.4v-.3zm-10.5-5.2l.5-.2h0l-.3-.2h-.7l-.4.1-.2.2.1.1.4.1.6-.1zm-2.4 2l-.5-.6-.3-.9-.2-.4.1-.5-.3-.4-.6-.4-.3.1.1 1.1-.2.6-.8 1.1.1.4h0l.1.2-.5.4v-.3l-.6.1.3.5.6.4.3.1.3-.2v.5l.3.4.1.4.3-.3.6-.2.2-.2.7-.4v-.2l.1-.6.1-.7zm6.7-5l-.3-.5-.1.1-.1.4-.3.4.5-.1.4.1.6.5.7.2.3.6.6.6v.6l-.4.6-.1.7-.6.1.1.1.3.3.1.4.2.2v-.7l.3-.8.4-1.3-.1-.3-.3-.3-.7-.9-.7-.3-.8-.7zm-8.8-7.9l-.5-.4-.2.4v.1l-.1.3-.5.4-.5.1-.7-.6-.2-.1.8 1.1.3.1h.4l.9-.3 1.6-.5 1.7-.2.1-.2-.1-.3-.8.2-1-.1-.2.2h-.4l-.6-.2zm6.1 5.2l.2-.3.4-1.8.8-.6.1-1.2-.5-.5-.4-.2-.1-.2.1-.2-.2-.1-.3-.2-.4-.6-.4-.4-.7-.1-.6-.1-.4-.1-.5.3h.8l1.5.3.7 1.5.5.4.1.4-.2.4v.4l-.3.5-.1.8-.3.4-.7.5.4.2.3.6.2-.1z" data-id="BS" data-name="Bahamas"/><path id="BM" fill-rule="evenodd" d="M630.2 366.8l.4-.6h-.1l-.5.5-.6.2.1.1h.1l.6-.2z" data-id="BM" data-name="Bermuda"/><path id="BB" fill-rule="evenodd" d="M644.9 488.9l.4-.4-.3-.3-.6-.8-.3.1v1l.1.3.5.3.2-.2z" data-id="BB" data-name="Barbados"/><path id="KM" fill-rule="evenodd" d="M1221.1 650.5l-.4-.4h-.4v.2l.1.4 1.1.2-.4-.4zm3.9-1.5h-.1l-.2.1-.1.2-.1.3h-.9l.8.5.5.5.2.2.1-.2.1-.7-.3-.9zm-5.6-1.1l.2-.3-.2-.7-.4-.8.1-1.4-.2-.2h-.3l-.1.1-.1.3-.3 2 .4.6.3.1.5.4.1-.1z" data-id="KM" data-name="Comoros"/><path id="CV" fill-rule="evenodd" d="M841.4 477.6l.1-.4-.2-.6-.3-.1-.6.4-.1.3.1.3.3.3.3.1.4-.3zm6.3-1.7l.4-.2v-.7l-.1-.3h-.4l-.2.4v.5l.2.3h.1zm-1.4.8l-.5-.9-.3-.1-.6-.7v-.3l-.3-.1V475.2l-.2.5v.5l.4.8.4.2.7.1.4-.6zm3.1-7.8v.5l-.3.7.5.3.3.1.6-.4.2-.5-.1-.3-.3-.3-.3-.1-.1.1-.5-.1zm-6.4-2.5l-1-.1-.6-.2h-.1v.3l.4.8.2-.5.2-.1.8.2.4-.1-.1-.1-.2-.2zm6.7-.2l-.1-.5v-.7h-.2l-.3.2.1.7.1.1.2.5.2-.3zm-11.1-1v-.2l-.3-.5-.3.1-.4.2-.1.3.4.2h.2l.5-.1zm-1.5-.9l.8-.6.2-.3-.2-.5-.5-.1-1.2.6-.1.2.1.3.1.5.2.1.6-.2z" data-id="CV" data-name="Cape Verde"/><path id="KY" fill-rule="evenodd" d="M527 449.1l-.1-.3-.1.1v.6h.7l.3-.2h.6l-.1-.2-.8-.1-.1.1-.2.1-.2-.1zm8-2.3h0l-.1-.1h-.1l-.3.1h-.2l-.1.1-.1.1h.2l.4-.2H535zm.8-.1l.5-.2h0l-.1-.1h-.1l-.1.1h-.1l-.5.3h.2l.2-.1z" data-id="KY" data-name="Cayman Is."/><path id="DM" fill-rule="evenodd" d="M635.8 475.1l.3-.7-.1-1-.2-.4-.8-.3v.2l-.1.5.3.8.1 1.1.5-.2z" data-id="DM" data-name="Dominica"/><path id="FK" fill-rule="evenodd" d="M690.3 902.7l-.1-.3-.4-.2-.2-.1.1.2.1.3.1.2.2.1.2-.2zm5.5-1.3l-.1-.1h-.2l-.1.2.2.3.4.1-.2-.5zm-12.9-1.4l-.1.2-.4.1.2.3.6.4h.4l.1-.3-.1-.6h-.3l-.4-.1zm2.8-2l-.9-.3-.4-.3h-.3l.4.4.1.2.1.2.6.3.6.3.4.3-.1.1-.8.3h-.3l-.2.1.4.2.6-.1.2-.1h.2l.3.1v.2l-.1.2-.2.2-.4.3-.6.4h-.8l-.7.7.9.5.7.3h.9v-.1l.2-.1h.3l.1-.1.2-.4v-.6h.2l.3.1.7-.1.3-.1.6-.9.4-.8.2-.4.3-.2.1-.2.1-.3.3-.2v-.3l-.4-.2-.3-.2-.3.3-.2-.1-.9.3h-.4l-.3-.2-.4-.1-.4.1-.5.5-.8-.2zm.7-.4l.1-.3-.1-.2-.5-.2h-.5l.2.5.2.2h.6zm5.9-.7h-.4l.4.5-.8.8.2.6.3.4.1.2-.1.1-.4.1-.3.1-.2.3-.9.9.2.2-.3.7.2.3.8.7.8.4v-.7l.4-.1.4.2.4-.2-.9-1h.3l2.5.5-.1-.4-.1-.2-.3-.4 1.5-.4.5-.3.2-.3.6-.1.8-.3-.1-.1.1-.3-.4-.2-.5-.1.1-.3.5-.1-.8-.7-.3-.1-1 .1-.3.1v.2l.1.3.3.3.1.2-.2-.1-1.1-.4-.2-.1-.2-.4.2-.1.3.1.1-.3-.4-.3-.4-.1-.9.1-.8-.3z" data-id="FK" data-name="Falkland Is."/><path id="FO" fill-rule="evenodd" d="M947 186.9v-.3l-.1-.3v-.2h-.1l-.5-.1-.1-.2h-.1v.2l.1.4.5.4.3.2h.1l-.1-.1zm.5-2.1v-.1l-.2-.2-.5-.2-.2-.1-.2.1v.2l.1.1.4.1.4.3h.1l.1-.2zm-2.4-1.9l-.2-.1-.5.1h-.3l.1.3.6.2h.6l.2-.1-.1-.2-.4-.2zm2.5-.5l-.8-.2-.6-.3-1 .1.7 1.1.8.7.4.2V183.7l-.4-.5-.1-.1v-.1l.1-.1h.2l.3.2h.2l.2-.7zm1-.2l-.3-.2-.4-.4v.9h.1l.3.1.3-.4z" data-id="FO" data-name="Faeroe Is."/><path id="GD" fill-rule="evenodd" d="M632.1 495.7l.5-.2.2-1.1-.3-.1-.3.3-.3.5v.4l-.2.3.4-.1z" data-id="GD" data-name="Grenada"/><path id="HK" fill-rule="evenodd" d="M1604.9 430.9v-.4l-.4-.2h-.3l.1.2.4.5.2-.1zm-1.3 0l-.1-.5.2-.3-.9.3-.1.3v.1l.2.1h.7zm1.6-1.2l-.1-.3-.2-.1-.1-.3-.1-.2h0l-.3-.1-.2-.1h-.4l-.1.1h-.2l-.2.2h0v.2l-.5.4v.2l.3.2.5-.1.6.2.8.3v-.5l.2-.1z" data-id="HK" data-name="Hong Kong"/><path id="KN" fill-rule="evenodd" d="M629.9 463.2v-.3l-.2-.2h-.3v.5l.2.2.3-.2zm-.5-.7l-.1-.2-.1-.1-.2-.4-.4-.4-.2.1-.1.2v.1h0l.3.3.4.1.2.4.2-.1z" data-id="KN" data-name="St. Kitts and Nevis"/><path id="LC" fill-rule="evenodd" d="M637.4 484.2l.1-1.2-.1-.5-.2.1-.3.4-.4.6-.1.3v.6l.6.4.4-.7z" data-id="LC" data-name="Saint Lucia"/><path id="LI" fill-rule="evenodd" d="M1024.4 273.6v-.2l.1-.2-.1-.1-.1-.2-.1-.1v-.2l-.1-.1v-.2l-.1-.1-.2.6v.5l.1.2h.1l.4.1z" data-id="LI" data-name="Liechtenstein"/><path id="MV" fill-rule="evenodd" d="M1389.1 551.6l.1-.1v-.2l-.1-.1h-.1l-.1.2v.2h.2zm.3-5.9l.1-.2v-.4l-.1.1-.1.2v.1l-.1.1v.1h.2z" data-id="MV" data-name="Maldives"/><path id="MT" fill-rule="evenodd" d="M1053.6 344l-.2-.2-.5-.5-.5-.1.1.6.4.4h.5l.2-.2zm-1.4-1.2h0v-.2l-.3-.1-.4.1.1.1.3.2.3-.1z" data-id="MT" data-name="Malta"/><path id="MS" fill-rule="evenodd" d="M631.8 465.7l-.1-.5h-.1l-.2.4v.3l.3.1.1-.3z" data-id="MS" data-name="Montserrat"/><path id="MU" fill-rule="evenodd" d="M1294.7 702.5l.3-.3.2-.4.3-.3.1-.7-.2-.8-.4-.7-.5.1-.3.4-.2.5-.5.3-.1.3-.2.7-.1.4-.2.1v.2l.3.3.8.1.7-.2z" data-id="MU" data-name="Mauritius"/><path id="NC" fill-rule="evenodd" d="M1897.3 716.1v-.3l-.4-.2-.2.5v.1l.2.1h.2l.2-.2zm4.6-7.6l-.1-.1v-.3l.1-.2-.4.2-.6.2.1.8-.1.4.3.1.1.3h.2l.7-.2.3-1.1h-.4l-.2-.1zm-3-1.7l.3-.5.1-.2-.2-.7-.3-.3.3-1-.1-.2-.4-.2-.9.3-.1.2.5.1.2.2-.5.7-.5.1.1.5.2.4.7.2.3.4h.3zm-3.9-2.9l.3-.3.3-.4-.1-.1v-.3l.2-.4.3-.1-.2-.2-.2-.1v.3l-.3.7-.1.3-.5.6h.3zm-12.3-2.9l-.6-.7-.1.2-.1.4v.3l.3.2.1.2-.1.5v.4l.6.9.1.7.3.6.5.5.4.5.8 1.4.2.5.4.3 1 1.2.4.4.4.2.9.7.6.3.3.5.6.3.8.4.1.2v.3l.1.3.5.4.6.3.1.2.1.2.3-.1.3.1.9.7.4-.1h.3l.5-.2.3-.4-.1-1.1-.5-.5-.7-.4-.4-.5-.4-.5-.8-1-1.1-1-.5-.2-.3-.4-.3-.1-.2-.3-.5-.3-.3-.6-.6-.6-.1-.3.1-.3-.1-.3-.4-.3-.2-.5-.2-.3-.4-.2-.7-.4-1.6-1.9-.7-.6-.7.2-.6-.4zm-22-6l.2-.4.1-.8-.2.4-.2 1 .1-.2z" data-id="NC" data-name="New Caledonia"/><path id="NR" fill-rule="evenodd" d="M1915 575.5v-.2h-.2l-.1.2.1.1.1.1.1-.2z" data-id="NR" data-name="Nauru"/><path id="PN" fill-rule="evenodd" d="M274.2 727.4v-.2l-.1-.2-.2-.1-.1.1.1.2.2.2.1.1v-.1z" data-id="PN" data-name="Pitcairn Is."/><path id="PR" fill-rule="evenodd" d="M600.8 457.3v-.1h.1v-.1l.1-.1h0v-.1h-.1 0-.4v.2l.2.1h0v.1h.1zm13.6-.3l.7-.2v-.1l-.4-.1h-.6l-.5.2.1.2h.7zm-3.7-2.2l-.1-.2h-.2l-3.5-.1-1.3-.2-.3.1-.3.1-.1.4-.2.2-.3.2.1.3.1.2.2.4-.1.5-.2 1 .3.2.7-.1.3.1.3.1.4-.1.4-.2.9.1.5-.1.6.3.4-.1.2.1H610.4l.9-.2.8-.5.3-.5.4-.3.6-.4v-.9l-.7-.1-.6-.3-1.1-.1h-.1l.1.2h-.1l-.2-.1z" data-id="PR" data-name="Puerto Rico"/><path id="PF" fill-rule="evenodd" d="M213.2 704.9l-.1-.3-.2-.3-.1.1.1.1.2.3v.2l.1-.1zm9.3-14.7l-.2-.2-.4-.2-.2-.1-.2-.1-.1.1.1.1h.1l.3.2.3.1.2.1v.1l.1-.1zm-24.5-1.1l-.6-.3.1.2.4.2.2.1-.1-.2zm20.5-.2l-.4-.5h-.3l.7.6v-.1zm-21.6-1l-.4-.4-.2-.3-.3-.1.1.1.4.4.3.4.2.1-.1-.2zm-.3-2.1l-.1-.1h0v-.3l.2-.3.6-.4v-.1h0l-.2.1-.4.2-.2.2-.1.2-.1.3.1.2.1.1h.2l-.1-.1zm-47.4-1.1l-.2-.6-.3-.5-.8-.1-.5.2-.1.2.1.4.5.7.5.1.8-.1.4.6.2.1.4.1.1-.3-.2-.5-.9-.3zm-2.9-.9l.1-.4-.2-.1h-.5v.2l.1.2.1.1.3.2.1-.2zm-9.7-4.3h.2l-.4-.6-.3-.2V679.5l.3.1.2-.1zm43.9-1.6h-.6l.5.1.4.2-.3-.3zm-.7.1l-.3-.1-.3-.2h-.3l.7.3h.2zm-43.8.1l.1-.2-.1-.1-.4-.2.1.3v.2l.2.1.1-.1zm32.8-2l-.3-.4-.2-.3-.2-.4-.4-.5.1.3.1.2.2.2.2.4.1.2.3.4h.1v-.1zm16.2-1.5l.1-.5h-.2v.5h.1zm-14.4-1.6l-.6-.6h-.1l.1.2.5.5.1.2v-.3zm30.8-33.9l.1-.2v-.2l-.1-.1-.3-.1.1.7.2-.1zm-2.7-3.7l-.1-.2h-.2l-.1.1v.5l.4-.4zm.1-1.6l-.8.5.2.4.4.1.2-.2.8-.1.3-.4-.3.1-.8-.4zm-6.1-1.7l.2-.5-.2-.1-.4.2v.2l.3.4.1-.2zm2.6-3.1l.3-.1v-.1l-.2-.2-.3-.1-.1.1-.1.2.1.3.3-.1zm-2.9-.1l.1-.3v-.2l-.1-.2-.9-.2-.1.1v.4l.2.5h.3l.5-.1z" data-id="PF" data-name="Fr. Polynesia"/><path id="SG" fill-rule="evenodd" d="M1561 563.7l.1-.2-.2-.2-.3-.1-.5-.2-.6.1-.3.6.9.4.9-.4z" data-id="SG" data-name="Singapore"/><path id="SB" fill-rule="evenodd" d="M1909.1 646.4l-.2-.2-.1-.4h-.3l-.3.1.2.6h.2l.5-.1zm-35.6.8l-.1-.2-.5-.4-1.9-1.3-.4-.1-.1.1-.1.3.1.2.5.1v.1l.3.2.7.2.4.3.1.5.3.1.3.1.4-.2zm32-6.6v-.1l.2-.3-.2-.1-.5-.1-.7.1-.3.2-.2.3h-.2v.2l.1.4.2-.1.2.1.5-.5h.4l.5-.1zm-24.4-2.3l-.1-.2-.2-.1-.9-.7-.5-.2h-.5l-.1.5v.3h.6l.4.2v.6l.2.2v.5l1.2.9.7.4.7.1.4.2.5-.1.5.2.4-.1-.4-.3v-.4l-.5-1.3-.3-.3-.5.1-.5-.2h-.4l-.7-.3zm-.4-4.9l-.6-1.6-.2-.1.1.6.1.4-.1.5-.1.6.2.2.2-.2.4.5V633.4zm-9.8-2.2l-.3-.1-.4.3-.1.3-.1.7v.4l.3.7.3.5.3.3.2.2.9.1 1.7.1.9.4.9.2.4-.1.5-.2.1-.1-.1-.6-.2-.3-.4-.2-.2-.6-.5-.4-.9-.7h-1.6l-.6.1-1.1-1zm2.6-1.8l-.5.2v.3l.4.1.4.2.1.3h0l.2-.1.4.2.2-.3-.4-.5-.4-.3h-.1l-.3-.1zm-5.6.8l.3-.2v-.4h-.3l-.1-.2h-.2l-.3.2-.2.3.1.2h.4l.2.1h.1zm-8.4-2.3l-.1-.2-.3-.2h-.2l-.5.1.1.1.6.3.3.1.1-.2zm3.1.4l.3-.2-.1-.2-.1-.5-.4.7.1.2h.2zm-.5-.9v-.4l-.2-.1.4-.3-.1-.1-.6-.2-.2.2-.2.1-.1.1-.1.1-.1.5.2.4.4.2.6-.5zm-4 .2l-.3-.4.1-.5.2-.1.2-.5-.1-.4-.2.1-.7.6-.1.3.6.8.3.2v-.1zm13-1.3l-.2-.4v-.2l-.3-.2-.2.1-.1.3.1.2.4.3.3-.1zm6-1.2h-.2l-.1.1h-.5l-.1.2.6 1.1-.3.5.4 2.2.4 1.2.8.8v.2l.8.5.6 1.3.2.1.1-.2v-.6l-.5-1.1.1-.8-.2-.3v-.3l-.2-.8-.6-.7-.3-.1-.2-.3.2-.6.2-.2.1-.3-1.3-1.9zm-16.6-.5l-.6-.2-.2-.3v-1l-.6-.3-.3.2-.6.7-.2.4-.5.3-.1.3v.4l.4.1.3-.4.9-.1.3.1v.4l.1.7.3.3.5.2.4.6.1-.3h.2l.2-.4-.3-1.2-.3-.5zm-6.5-.4l.1-.5-.1-.9-.2.1v.2l-.1.4.2.8.1-.1zm3.2-.4l.2-.2v-.9l-.2-.4-.2-.2-.5.1-.4.5v.5l.4.6h.7zm-2.6-1.2l.2-.3.5-.7.1-.3-.5-.2-.4-.5-.4-.2-.3.4v.4l.5.6-.1.4.2.1.1.4.1-.1zm17.5 3.9l-.1-.5-.3-.4.4-.5-2.2-1.9-.3-.2-.4-.1-.5-.4-.5-.1-.5-.4-.2-.3-.6-.4-.6-.8-1.5-.3.1.2.4.4.1.7.5.4.5.6.2.1.2.2.4.5.8.4.8.6.3.1.3.3 1.5.7.5.7.7.5v-.1zm-21.8-9.2l.2-.3-.7-.5-.2.3-.2.5.4.2.5-.2zm9.1 1.5l-.1-.1h-.3l-.4-.2-.7-.8-.2-.3-.2-1-.4-.4-1.4-.8-.8-.8-.7-.2-.2.2v.5l.2.3 1 .9 1.1 1.7 1 1 .8.1h.4v.1l.1.2.5.2.5-.4-.2-.2z" data-id="SB" data-name="Solomon Is."/><path id="ST" fill-rule="evenodd" d="M1014.1 571.4l.5-.8v-.5l-.3-.5h-.4l-.5.4-.3.4v.3l.1.7.1.3.3.2.5-.5zm4.3-9.2l.2-.4v-.2l-.1-.1-.1-.1-.2.1-.3.5.1.2.2.2.2-.2z" data-id="ST" data-name="São Tomé and Principe"/><path id="SX" fill-rule="evenodd" d="M627.1 457.2h0l.2.2.3.1.1-.1v-.2h-.6z" data-id="SX" data-name="Sint Maarten"/><path id="SC" fill-rule="evenodd" d="M1288.5 602l-.5-.8-.4.3.2.3.3.2.1.4.3.2v-.6z" data-id="SC" data-name="Seychelles"/><path id="TC" fill-rule="evenodd" d="M578.7 433.1l-.1.4v.2l.2.1.6-.1.1-.1.2-.1v-.1l-.4.1-.6-.4zm3.6.6l.2-.2-.2-.2-.7-.2-.2.1v.3h.6l.3.3v-.1zm-1.1-.5l-.1-.1-.1-.6h-.5v.2l.1.2h.1l.1.2.3.2.1-.1z" data-id="TC" data-name="Turks and Caicos Is."/><path id="TO" fill-rule="evenodd" d="M13.3 707.7h0l-.2.3v.2l.4.4-.2-.9zm-1.6-.9h-.2l.2-.1-.4-.2h-.4l-.2-.1v-.2l-.2.3.2.3.9.4.3.2.2-.6v-.2l-.3.1v.1h-.1zm2.5-16l.1-.2v-.2l-.3-.1h-.1l-.3.5.1.1.3.2h.1l.1-.3z" data-id="TO" data-name="Tonga"/><path id="TT" fill-rule="evenodd" d="M635.4 507.7l.1-.2v-.6l.2-.4-.2-.4-.1-.6.1-.5v-.7l.2-.3.5-.8h-.9l-.6.2-1.1.1-.5.2-.7.1-.4.2.1.1.5.2.2.2.1.2.1.4-.3 1.7-.1.1-.6.1-.2.3-1.4.8.8-.1.9.1 2.4-.1.9-.3zm1.8-6.7l1.2-.5.1-.4h-.2l-.8.3-.6.5v.2l.3-.1z" data-id="TT" data-name="Trinidad and Tobago"/><path id="VC" fill-rule="evenodd" d="M634.5 491.4h0v-.1h.1v-.1h0v-.1h-.1v.1h0v.1h-.1v.1h.1zm.7-1.9l.1-.2.1-.1h0l-.1-.1h0v.1l-.2.1h0v.1h0v.1h-.2.1l.1.1h0l.1-.1zm.3-1.1l.3-.2.1-.6-.1-.4h-.2l-.3.1-.2.3-.1.5.4.4.1-.1z" data-id="VC" data-name="St. Vin. and Gren."/><path id="VG" fill-rule="evenodd" d="M619.2 455.1l.3-.2-.2-.1h-.4l-.3.2.1.1h.5zm1.1-.4l.4-.4-.5.1-.2.2.1.1h.2zm.8-1.8h-.7 0l.1.1h.3l.3.1h0v-.2z" data-id="VG" data-name="British Virgin Is."/><path id="VI" fill-rule="evenodd" d="M617.9 458.9l-.7.2-.1.4h1.1l.7-.3h-.6l-.4-.3zm.9-3.5l-.5-.1-.2.2h0l.3.1.4-.2zm-1.1.1l-.2-.2-.3-.1-.4.1.5.3.4-.1z" data-id="VI" data-name="U.S. Virgin Is."/><path id="CY" fill-rule="evenodd" d="M1149.9 348.4l-.3-.1-.5.2-.4.4-.4.3-.5-.3.2.9.6 1.1.2.3.3.2 1.1.3H1151.1l.2.1.2.4h.4v-.4l.2-.2.3-.2h.3l.6-.1.6-.2.5-.4.9-1h1.2l.6-.1-.2-.4-.1-.1-.4-.5-.2-.4.1-.6 2.5-1.9.5-.5-.8.2-.6.4-.4.2-.7.4-2.3.8-.8.1h-.8l-1-.1-.9-.2v.7l-.2.6-.6.2-.3-.1z" data-id="CY" data-name="Cyprus"/><path id="RE" fill-rule="evenodd" d="M1284 707.9l.2-.4.1-.8-.4-.8-.4-.7-.4-.2-.8-.1-.7.3-.4.6-.2.3.4 1.1.2.3 1.1.6h.5l.8-.2z" data-id="RE" data-name="Reunion"/><path id="YT" fill-rule="evenodd" d="M1228.7 654.7v-.3l.2-.5v-.1l.1-.5-.3-.3h-.2l-.2-.3-.3.3.3.5-.1.3-.1.4.1.4.2.2.3-.1z" data-id="YT" data-name="Mayotte"/><path id="MQ" fill-rule="evenodd" d="M638 479.9l-.2-.7-.1-.2-.2-.3.1-.3v-.1h-.2l-.3-.5-.6-.3h-.3l-.2.2v.3l.3.9.2.2.5.2-.4.4v.1l.1.3h.9l.2.3.1-.1.1-.4z" data-id="MQ" data-name="Martinique"/><path id="GP" fill-rule="evenodd" d="M636.4 471.1l.2-.2v-.3l-.2-.3-.2.1-.2.3v.3l.1.1h.3zm-1.9-.8l.2-.2v-1.2l.1-.3-.2-.1-.2-.2-.6-.2-.1.1-.2.3.1 1.5.2.5.2.1.5-.3zm1.6-1.4l.8-.2-.9-.6-.2-.4v-.3l-.4-.3-.2.2-.1.3.1.5-.3.4.1.4.4.1.7-.1z" data-id="GP" data-name="Guadeloupe"/><path id="CW" fill-rule="evenodd" d="M595.9 494.9v-.6l-.9-.4v.3l.1.2.3.1.1.2-.1.6.2.3.3-.7z" data-id="CW" data-name="Curaco"/><path id="IC" fill-rule="evenodd" d="M879.6 395.2l-.2-.2-.7.5h-.6l.1.2.1.2.7.4.6-1.1zm13.5-2.1v-.1h-.1l-.1.1-1.3-.1-.2.6-.5.4v.7l.5.7.3.1.5.1.7-.4.2-.4.1-.8-.1-.4v-.5zm-9.7.8l.5-.4v-.2l-.1-.3-.5-.3h-.2l-.2.2-.2.4.3.5.2.1h.2zm4.7-2.3l1.2-1v-.3l-1 .1-1.1 1-.3.1-1 .1h-.5l-.4.2.2.3.4 1 .7.9.6-.2.3-.2.4-.6.5-1.4zm11.6 1.3l1.5-.5.3-1 .3-1.1v-.7l-.2-.3h-.5l-.3.2-.1.6-.7 1.3-.5 1.2-.7.6-.7.2.1.1.7.1.8-.7zm-19.7-2l.5-.5.1-.3-.1-.5.2-.2-.1-.4-.3-.4h-.7l-.4.6.6 1.2.1.5h.1zm22.4-2.7l.9-.3.5-.3.1-.9.2-.3-.2-.3-.2.2-.2.4-.6.2-.8.4-.2.3-.2.9.4.1.3-.4z" data-id="IC" data-name="Canary Islands"/></svg>