<svg xmlns="http://www.w3.org/2000/svg"
  xmlns:xlink="http://www.w3.org/1999/xlink">
  <symbol id="icon-exit" xmlns="http://www.w3.org/2000/svg" xml:space="preserve" fill="none"
    version="1.1" viewBox="0 0 512 512">
    <path fill="currentColor" d="M355.022 115.897c22.422 0 40.603-18.19 40.603-40.616 0-22.427-18.181-40.608-40.603-40.608-22.434 0-40.616 18.182-40.616 40.608s18.182 40.616 40.616 40.616zM509.402 232.445l-26.925-40.501a75.261 75.261 0 0 0-25.33-23.155l-52.81-29.574c-9.676-4.524-16.996-7.402-26.189-6.159l-25.268 3.436a37.608 37.608 0 0 0-24.037 13.429l-48.096 51.183-44.055 16.244c-8.346 3.075-12.825 12.137-10.186 20.627l.204.654c2.593 8.358 11.196 13.29 19.715 11.327l35.901-8.284a75.09 75.09 0 0 0 25.072-10.894l24.97-16.783 8.816 67.033a22.57 22.57 0 0 1-2.822 14.214L263.604 425.09c-5.333 9.242-2.176 21.068 7.05 26.45l.642.376c8.735 5.087 19.908 2.633 25.69-5.643l83.558-119.534 25.322 50.537a37.487 37.487 0 0 0 7.336 10.044l56.164 54.92c7.091 6.928 18.305 7.23 25.747.712l.9-.786a18.956 18.956 0 0 0 6.436-13.135 18.95 18.95 0 0 0-4.826-13.806l-47.421-52.818-25.762-93.247-.09.082-7.394-72.947 26.115 11.753 41.752 43.945c5.251 5.537 13.757 6.429 20.038 2.094l.426-.295c6.969-4.793 8.809-14.297 4.115-21.347z" />
    <path fill="currentColor" d="M129.123 101.06 43.287 42.435H262.74V8.934H0V444.44h43.287l85.836 58.626V444.44H233.8v-33.5H129.123z"/>
  </symbol>
  <symbol id="icon-menu" xmlns="http://www.w3.org/2000/svg" fill="none" viewBox="0 0 24 24">
    <path stroke="currentColor" stroke-linecap="round" stroke-linejoin="round" stroke-width="2"
      d="M4 6h16M4 12h16M4 18h16" />
  </symbol>
  <symbol id="icon-json-feed"
    xmlns="http://www.w3.org/2000/svg" viewBox="-10 0 1034 1024">
    <path
      d="M854 175q-27 0-46 19t-19 45.5 18.5 45 45 18.5 45.5-18.5 19-45-18.5-45.5-44.5-19zm-649 17-34 34q-83 83-88 154t68 144l82 82q45 46 48.5 78T248 753q-16 19-15.5 44.5T251 841t43.5 18.5T339 844l1 1q25-25 47-32t45.5 4.5T486 859l95 96q75 74 147.5 70T884 938l33-34-71-72-18 18q-47 47-84 47.5T662 853L550 741q-86-86-169-17l-11-11q35-42 31.5-83T356 548L256 447q-31-31-40.5-56.5t1-51.5 42.5-59l17-17zm498 134q-28 0-46.5 19T638 390.5t18.5 45.5 45 19 45.5-19 19-45.5-18.5-45T703 326zM551 477q-27 0-46 19t-19 45.5 19 45.5 45.5 19 45.5-19 19-45.5-19-45-45-19.5z" />
  </symbol>
  <symbol id="icon-palette" xmlns="http://www.w3.org/2000/svg" fill="none" viewBox="0 0 24 24">
    <path stroke="currentColor" stroke-linecap="round" stroke-linejoin="round" stroke-width="2"
      d="M15.5 8.5h.01m-5.01-1h.01m-3.01 4h.01M12 21a9 9 0 1 1 9-9 3 3 0 0 1-3 3h-.6c-.372 0-.557 0-.713.025a2 2 0 0 0-1.662 1.662c-.025.156-.025.341-.025.713v.6a3 3 0 0 1-3 3Zm4-12.5a.5.5 0 1 1-1 0 .5.5 0 0 1 1 0Zm-5-1a.5.5 0 1 1-1 0 .5.5 0 0 1 1 0Zm-3 4a.5.5 0 1 1-1 0 .5.5 0 0 1 1 0Z" />
  </symbol>
  <symbol id="icon-rss-feed"
    xmlns="http://www.w3.org/2000/svg" xml:space="preserve" viewBox="0 0 512 512">
    <path d="M108.56 342.78a60.34 60.34 0 1 0 60.56 60.44 60.63 60.63 0 0 0-60.56-60.44Z"/>
    <path d="M48 186.67v86.55c52 0 101.94 15.39 138.67 52.11s52 86.56 52 138.67h86.66c0-151.56-125.66-277.33-277.33-277.33Z"/>
    <path d="M48 48v86.56c185.25 0 329.22 144.08 329.22 329.44H464C464 234.66 277.67 48 48 48Z"/>
  </symbol>
</svg>