<svg xmlns="http://www.w3.org/2000/svg"
  xmlns:xlink="http://www.w3.org/1999/xlink">
  <symbol id="icon-check" xmlns="http://www.w3.org/2000/svg" fill="none" viewBox="0 0 24 24">
    <path stroke="currentColor" stroke-linecap="round" stroke-linejoin="round" stroke-width="2"
      d="m6 12 4.243 4.243 8.484-8.486" />
  </symbol>
  <symbol id="icon-close" xmlns="http://www.w3.org/2000/svg" fill="none" viewBox="0 0 24 24">
    <path stroke="currentColor" stroke-linecap="round" stroke-linejoin="round" stroke-width="2"
      d="m18 18-6-6m0 0L6 6m6 6 6-6m-6 6-6 6" />
  </symbol>
  <symbol id="icon-copy" xmlns="http://www.w3.org/2000/svg" fill="none" viewBox="0 0 24 24">
    <path stroke="currentColor" stroke-linejoin="round" stroke-width="2"
      d="M15 3v3.4c0 .56 0 .84.109 1.054a1 1 0 0 0 .437.437C15.76 8 16.04 8 16.6 8H20M10 8H6a2 2 0 0 0-2 2v9a2 2 0 0 0 2 2h6a2 2 0 0 0 2-2v-3m2-13h-2.8c-1.12 0-1.68 0-2.108.218a2 2 0 0 0-.874.874C10 4.52 10 5.08 10 6.2v6.6c0 1.12 0 1.68.218 2.108a2 2 0 0 0 .874.874C11.52 16 12.08 16 13.2 16h3.6c1.12 0 1.68 0 2.108-.218a2 2 0 0 0 .874-.874C20 14.48 20 13.92 20 12.8V7l-4-4Z" />
  </symbol>
  <symbol id="icon-download" xmlns="http://www.w3.org/2000/svg" fill="none" viewBox="0 0 24 24">
    <path stroke="currentColor" stroke-linecap="round" stroke-linejoin="round" stroke-width="2"
      d="M17 17h.01m.39-3h.6c.932 0 1.398 0 1.765.152a2 2 0 0 1 1.083 1.083C21 15.602 21 16.068 21 17c0 .932 0 1.398-.152 1.765a2 2 0 0 1-1.083 1.083C19.398 20 18.932 20 18 20H6c-.932 0-1.398 0-1.765-.152a2 2 0 0 1-1.083-1.083C3 18.398 3 17.932 3 17c0-.932 0-1.398.152-1.765a2 2 0 0 1 1.083-1.083C4.602 14 5.068 14 6 14h.6m5.4 1V4m0 11-3-3m3 3 3-3" />
  </symbol>
  <symbol id="icon-menu" xmlns="http://www.w3.org/2000/svg" fill="none" viewBox="0 0 24 24">
    <path stroke="currentColor" stroke-linecap="round" stroke-linejoin="round" stroke-width="2"
      d="M4 6h16M4 12h16M4 18h16" />
  </symbol>
  <symbol id="icon-json-feed"
    xmlns="http://www.w3.org/2000/svg" viewBox="-10 0 1034 1024">
    <path
      d="M854 175q-27 0-46 19t-19 45.5 18.5 45 45 18.5 45.5-18.5 19-45-18.5-45.5-44.5-19zm-649 17-34 34q-83 83-88 154t68 144l82 82q45 46 48.5 78T248 753q-16 19-15.5 44.5T251 841t43.5 18.5T339 844l1 1q25-25 47-32t45.5 4.5T486 859l95 96q75 74 147.5 70T884 938l33-34-71-72-18 18q-47 47-84 47.5T662 853L550 741q-86-86-169-17l-11-11q35-42 31.5-83T356 548L256 447q-31-31-40.5-56.5t1-51.5 42.5-59l17-17zm498 134q-28 0-46.5 19T638 390.5t18.5 45.5 45 19 45.5-19 19-45.5-18.5-45T703 326zM551 477q-27 0-46 19t-19 45.5 19 45.5 45.5 19 45.5-19 19-45.5-19-45-45-19.5z" />
  </symbol>
  <symbol id="icon-palette" xmlns="http://www.w3.org/2000/svg" fill="none" viewBox="0 0 24 24">
    <path stroke="currentColor" stroke-linecap="round" stroke-linejoin="round" stroke-width="2"
      d="M15.5 8.5h.01m-5.01-1h.01m-3.01 4h.01M12 21a9 9 0 1 1 9-9 3 3 0 0 1-3 3h-.6c-.372 0-.557 0-.713.025a2 2 0 0 0-1.662 1.662c-.025.156-.025.341-.025.713v.6a3 3 0 0 1-3 3Zm4-12.5a.5.5 0 1 1-1 0 .5.5 0 0 1 1 0Zm-5-1a.5.5 0 1 1-1 0 .5.5 0 0 1 1 0Zm-3 4a.5.5 0 1 1-1 0 .5.5 0 0 1 1 0Z" />
  </symbol>
  <symbol id="icon-rss-feed"
    xmlns="http://www.w3.org/2000/svg" xml:space="preserve" viewBox="0 0 512 512">
    <path d="M108.56 342.78a60.34 60.34 0 1 0 60.56 60.44 60.63 60.63 0 0 0-60.56-60.44Z"/>
    <path d="M48 186.67v86.55c52 0 101.94 15.39 138.67 52.11s52 86.56 52 138.67h86.66c0-151.56-125.66-277.33-277.33-277.33Z"/>
    <path d="M48 48v86.56c185.25 0 329.22 144.08 329.22 329.44H464C464 234.66 277.67 48 48 48Z"/>
  </symbol>
</svg>