<svg xmlns="http://www.w3.org/2000/svg"
  xmlns:xlink="http://www.w3.org/1999/xlink">
  <symbol id="icon-codepen"
    xmlns="http://www.w3.org/2000/svg" viewBox="0 0 32 32">
    <path d="M8.333 14.668v2.663l1.989-1.332zm6.871-1.933V9.024L8.969 13.18l2.785 1.863zm7.827.445-6.235-4.156v3.711l3.449 2.309zM8.969 18.82l6.235 4.156v-3.711l-3.449-2.307zm7.827.445v3.713l6.235-4.156-2.785-1.863zM16 14.118 13.186 16 16 17.884 18.814 16zm0-13.093C7.729 1.025 1.025 7.73 1.025 16S7.73 30.975 16 30.975c8.271 0 14.975-6.705 14.975-14.975C30.975 7.729 24.27 1.025 16 1.025zm9.26 17.797a.762.762 0 0 1-.008.108v-.004l-.006.035-.014.066-.012.039a.403.403 0 0 1-.023.062l.001-.004-.017.037-.026.054-.024.037a.731.731 0 0 1-.1.125l-.032.031-.045.037-.036.027-.012.01-8.464 5.643a.79.79 0 0 1-.887-.002l.003.002-8.476-5.654A.782.782 0 0 1 7 19.406l-.032-.031-.04-.042-.026-.035a.741.741 0 0 1-.082-.133l-.002-.004-.017-.039-.021-.059-.012-.037a.489.489 0 0 1-.012-.064v-.003l-.007-.035a.813.813 0 0 1-.008-.103v-5.642c0-.037.003-.072.008-.108v.004l.006-.034.014-.067.012-.037a.736.736 0 0 1 .15-.272l-.001.001.039-.042.032-.031a.704.704 0 0 1 .079-.063l.002-.002.012-.01 8.463-5.642a.79.79 0 0 1 .887.002l-.003-.002 8.557 5.717.032.031c.037.037.07.078.098.122l.002.003.024.037.026.054.017.037c.009.02.015.04.021.059l.012.039a.489.489 0 0 1 .012.064v.003l.007.034a.667.667 0 0 1 .007.103zm-1.593-1.49v-2.663l-1.989 1.332z"/>
  </symbol>
  <symbol id="icon-github"
    xmlns="http://www.w3.org/2000/svg" viewBox="0 0 20 20">
    <path fill-rule="evenodd" d="M10 0c5.523 0 10 4.59 10 10.253 0 4.529-2.862 8.371-6.833 9.728-.507.101-.687-.219-.687-.492 0-.338.012-1.442.012-2.814 0-.956-.32-1.58-.679-1.898 2.227-.254 4.567-1.121 4.567-5.059 0-1.12-.388-2.034-1.03-2.752.104-.259.447-1.302-.098-2.714 0 0-.838-.275-2.747 1.051A9.396 9.396 0 0 0 10 4.958a9.375 9.375 0 0 0-2.503.345C5.586 3.977 4.746 4.252 4.746 4.252c-.543 1.412-.2 2.455-.097 2.714-.639.718-1.03 1.632-1.03 2.752 0 3.928 2.335 4.808 4.556 5.067-.286.256-.545.708-.635 1.371-.57.262-2.018.715-2.91-.852 0 0-.529-.985-1.533-1.057 0 0-.975-.013-.068.623 0 0 .655.315 1.11 1.5 0 0 .587 1.83 3.369 1.21.005.857.014 1.665.014 1.909 0 .271-.184.588-.683.493C2.865 18.627 0 14.783 0 10.253 0 4.59 4.478 0 10 0"/>
  </symbol>
  <symbol id="icon-linkedin"
    xmlns="http://www.w3.org/2000/svg" xml:space="preserve" viewBox="-143 145 512 512">
    <path d="M113 145c-141.4 0-256 114.6-256 256s114.6 256 256 256 256-114.6 256-256-114.6-256-256-256zM41.4 508.1H-8.5V348.4h49.9v159.7zM15.1 328.4h-.4c-18.1 0-29.8-12.2-29.8-27.7 0-15.8 12.1-27.7 30.5-27.7s29.7 11.9 30.1 27.7c.1 15.4-11.6 27.7-30.4 27.7zM241 508.1h-56.6v-82.6c0-21.6-8.8-36.4-28.3-36.4-14.9 0-23.2 10-27 19.6-1.4 3.4-1.2 8.2-1.2 13.1v86.3H71.8s.7-146.4 0-159.7h56.1v25.1c3.3-11 21.2-26.6 49.8-26.6 35.5 0 63.3 23 63.3 72.4v88.8z"/>
  </symbol>
  <symbol id="icon-mastodon"
    xmlns="http://www.w3.org/2000/svg" viewBox="-10 -5 1034 1034">
    <path d="M499 112q-93 1-166 11-81 11-128 33l-14 8q-16 10-32 25-22 21-38 47-21 33-32 73-14 47-14 103v37q0 77 1 119 3 113 18 188 19 95 62 154 50 67 134 89 109 29 210 24 46-3 88-12 30-7 55-17l19-8-4-75-22 6q-28 6-57 10-41 6-78 4-53-1-80-7-43-8-67-30-29-25-35-72-2-14-2-29l25 6q31 6 65 10 48 7 93 9 42 2 92-2 32-2 88-9t107-30q49-23 81.5-54.5T907 659q9-45 13-109 4-46 5-97v-41q0-56-14-103-11-40-32-73-16-26-38-47-15-15-32-25-12-8-14-8-46-22-127-33-74-10-166-11h-3zM367 267q73 0 109 56l24 39 24-39q36-56 109-56 63 0 101 43t38 117v239h-95V434q0-74-61-74-69 0-69 88v127h-94V448q0-88-69-88-61 0-61 74v232h-95V427q0-74 38-117t101-43z"/>
  </symbol>
  <symbol id="icon-xing"
    xmlns="http://www.w3.org/2000/svg" xml:space="preserve" viewBox="0 0 97.75 97.75">
    <path d="M48.875 0C21.883 0 0 21.882 0 48.875S21.883 97.75 48.875 97.75 97.75 75.868 97.75 48.875 75.867 0 48.875 0zM31.231 62.516h-9.806c-.591 0-1.032-.266-1.28-.67-.26-.418-.273-.962 0-1.503l10.416-18.385c.012-.021.012-.033 0-.056l-6.629-11.477c-.273-.546-.314-1.085-.056-1.504.25-.405.746-.612 1.337-.612h9.806c1.504 0 2.241.969 2.729 1.838 0 0 6.701 11.689 6.741 11.755L33.905 60.621c-.502.904-1.208 1.895-2.674 1.895zm46.365-45.494L55.887 55.406c-.015.021-.015.045 0 .063l13.821 25.255c.272.545.28 1.098.021 1.516-.248.402-.711.627-1.302.627h-9.794c-1.502 0-2.253-.999-2.738-1.867L41.963 55.439 63.779 16.75c.525-.944 1.162-1.867 2.625-1.867h9.906c.59 0 1.053.223 1.303.626.261.419.253.971-.017 1.513z"/>
  </symbol>
</svg>